<svg width="31" height="31" viewBox="0 0 31 31" fill="none" xmlns="http://www.w3.org/2000/svg">
<path d="M15.5 15.5C17.6401 15.5 19.375 13.7651 19.375 11.625C19.375 9.4849 17.6401 7.75 15.5 7.75C13.3599 7.75 11.625 9.4849 11.625 11.625C11.625 13.7651 13.3599 15.5 15.5 15.5Z" stroke="#9E9E9E" stroke-width="2"/>
<path d="M15.5 28.4166C22.6337 28.4166 28.4167 22.6336 28.4167 15.4999C28.4167 8.36624 22.6337 2.58325 15.5 2.58325C8.36636 2.58325 2.58337 8.36624 2.58337 15.4999C2.58337 22.6336 8.36636 28.4166 15.5 28.4166Z" stroke="#9E9E9E" stroke-width="2"/>
<path d="M23.21 25.8333C23.0045 22.0985 21.861 19.375 15.4998 19.375C9.13875 19.375 7.99524 22.0985 7.78967 25.8333" stroke="#9E9E9E" stroke-width="2" stroke-linecap="round"/>
</svg>
