<svg width="29" height="29" viewBox="0 0 29 29" fill="none" xmlns="http://www.w3.org/2000/svg">
<path d="M14.5 26.5834C21.1734 26.5834 26.5833 21.1735 26.5833 14.5001C26.5833 7.82664 21.1734 2.41675 14.5 2.41675C7.82652 2.41675 2.41663 7.82664 2.41663 14.5001C2.41663 21.1735 7.82652 26.5834 14.5 26.5834Z" stroke="#9E9E9E" stroke-width="2"/>
<path d="M14.5 19.3334C17.1693 19.3334 19.3333 17.1695 19.3333 14.5001C19.3333 11.8307 17.1693 9.66675 14.5 9.66675C11.8306 9.66675 9.66663 11.8307 9.66663 14.5001C9.66663 17.1695 11.8306 19.3334 14.5 19.3334Z" stroke="#9E9E9E" stroke-width="2"/>
<path d="M18.125 10.8751L22.9583 6.04175" stroke="#9E9E9E" stroke-width="2"/>
<path d="M6.04163 22.9583L10.875 18.125" stroke="#9E9E9E" stroke-width="2"/>
<path d="M10.875 10.8751L6.04163 6.04175" stroke="#9E9E9E" stroke-width="2"/>
<path d="M22.9583 22.9583L18.125 18.125" stroke="#9E9E9E" stroke-width="2"/>
</svg>
