<svg width="31" height="31" viewBox="0 0 31 31" fill="none" xmlns="http://www.w3.org/2000/svg">
<path d="M2.58337 15.7635C2.58337 12.8077 2.58337 11.3297 3.25401 10.1045C3.92464 8.87935 5.14985 8.11895 7.60025 6.59816L10.1836 4.99487C12.7738 3.38729 14.069 2.5835 15.5 2.5835C16.9311 2.5835 18.2262 3.38729 20.8165 4.99487L23.3999 6.59815C25.8503 8.11895 27.0754 8.87935 27.7461 10.1045C28.4167 11.3297 28.4167 12.8077 28.4167 15.7635V17.7283C28.4167 22.7668 28.4167 25.2862 26.9034 26.8515C25.3902 28.4168 22.9545 28.4168 18.0834 28.4168H12.9167C8.04552 28.4168 5.60994 28.4168 4.09665 26.8515C2.58337 25.2862 2.58337 22.7668 2.58337 17.7283V15.7635Z" stroke="#9E9E9E" stroke-width="2"/>
<path d="M19.375 23.25H11.625" stroke="#9E9E9E" stroke-width="2" stroke-linecap="round"/>
</svg>
