<svg width="26" height="26" viewBox="0 0 26 26" fill="none" xmlns="http://www.w3.org/2000/svg">
<path fill-rule="evenodd" clip-rule="evenodd" d="M12.86 1.44996L1.41499 10.5966C1.38936 10.6205 1.36889 10.6494 1.35484 10.6815C1.3408 10.7136 1.33347 10.7483 1.33332 10.7833L1.23999 22.17C1.23999 22.7888 1.48582 23.3823 1.92341 23.8199C2.36099 24.2575 2.95449 24.5033 3.57332 24.5033L22.3333 24.6666C22.9522 24.6666 23.5457 24.4208 23.9832 23.9832C24.4208 23.5456 24.6667 22.9521 24.6667 22.3333V10.7833C24.6658 10.7472 24.657 10.7118 24.6409 10.6795C24.6247 10.6473 24.6017 10.6189 24.5733 10.5966L13.14 1.44996C13.1015 1.41552 13.0516 1.39648 13 1.39648C12.9483 1.39648 12.8985 1.41552 12.86 1.44996Z" stroke="url(#paint0_linear_11_503)" stroke-width="2" stroke-linecap="round" stroke-linejoin="round"/>
<defs>
<linearGradient id="paint0_linear_11_503" x1="3.63396" y1="5.00737" x2="27.5877" y2="14.6689" gradientUnits="userSpaceOnUse">
<stop stop-color="#004236"/>
<stop offset="1" stop-color="#007E67"/>
</linearGradient>
</defs>
</svg>
