<svg width="22" height="22" viewBox="0 0 22 22" fill="none" xmlns="http://www.w3.org/2000/svg">
<path d="M11.017 2.37109C10.2936 2.37109 9.56765 2.65112 9.01578 3.20957L3.59099 8.69457C3.08098 9.21066 2.76874 9.88552 2.7682 10.5951L2.76123 17.3937C2.76005 18.9694 4.02862 20.2585 5.59217 20.2585H8.90422C9.02257 20.2585 9.13607 20.2114 9.21976 20.1275C9.30344 20.0437 9.35046 19.9299 9.35047 19.8113V15.0181H12.6834V19.8113C12.6835 19.9299 12.7305 20.0437 12.8142 20.1275C12.8979 20.2114 13.0114 20.2585 13.1297 20.2585H16.4418C18.0053 20.2585 19.2734 18.9693 19.2727 17.3937V10.5951C19.2724 9.88147 18.9511 9.20881 18.4429 8.69457L13.0181 3.20957C12.4663 2.65113 11.7403 2.37109 11.017 2.37109ZM11.017 3.26546C11.5131 3.26546 12.001 3.45127 12.3836 3.83842L17.8084 9.32343C18.1745 9.6939 18.38 10.1548 18.3802 10.5951V17.3937C18.3807 18.4927 17.5213 19.3641 16.4418 19.3641H13.576V14.5709C13.5759 14.4523 13.5289 14.3385 13.4452 14.2547C13.3616 14.1708 13.2481 14.1237 13.1297 14.1237H8.90422C8.78587 14.1237 8.67237 14.1708 8.58868 14.2547C8.505 14.3385 8.45797 14.4523 8.45796 14.5709V19.3641H5.59217C4.51265 19.3641 3.65292 18.4926 3.65374 17.3937L3.66072 10.6021C3.66073 10.5998 3.66073 10.5974 3.66072 10.5951C3.66105 10.1506 3.86128 9.69199 4.22551 9.32343L9.6503 3.83842C10.0329 3.45127 10.5208 3.26546 11.017 3.26546Z" fill="url(#paint0_linear_50_3030)"/>
<defs>
<linearGradient id="paint0_linear_50_3030" x1="2.76123" y1="11.3148" x2="19.2727" y2="11.3148" gradientUnits="userSpaceOnUse">
<stop stop-color="#905E26"/>
<stop offset="0.258244" stop-color="#F5EC9B"/>
<stop offset="1" stop-color="#905E26"/>
</linearGradient>
</defs>
</svg>
