<svg width="28" height="29" viewBox="0 0 28 29" fill="none" xmlns="http://www.w3.org/2000/svg">
<path d="M24.5 7.85449C24.5 9.85652 22.933 11.4795 21 11.4795C19.0669 11.4795 17.5 9.85652 17.5 7.85449C17.5 5.85247 19.0669 4.22949 21 4.22949C22.933 4.22949 24.5 5.85247 24.5 7.85449Z" stroke="url(#paint0_linear_50_3797)" stroke-width="1.99861"/>
<path d="M10.5 14.5C10.5 16.5021 8.93299 18.125 7 18.125C5.06701 18.125 3.5 16.5021 3.5 14.5C3.5 12.4979 5.06701 10.875 7 10.875C8.93299 10.875 10.5 12.4979 10.5 14.5Z" stroke="url(#paint1_linear_50_3797)" stroke-width="1.99861"/>
<path d="M24.5 21.1458C24.5 23.1478 22.933 24.7708 21 24.7708C19.0669 24.7708 17.5 23.1478 17.5 21.1458C17.5 19.1437 19.0669 17.5208 21 17.5208C22.933 17.5208 24.5 19.1437 24.5 21.1458Z" stroke="url(#paint2_linear_50_3797)" stroke-width="1.99861"/>
<path d="M10.1831 12.9887L17.7664 9.36426M10.1831 16.0101L17.7664 19.6345" stroke="url(#paint3_linear_50_3797)" stroke-width="1.99861"/>
<defs>
<linearGradient id="paint0_linear_50_3797" x1="17.5" y1="7.85449" x2="24.5" y2="7.85449" gradientUnits="userSpaceOnUse">
<stop stop-color="#905E26"/>
<stop offset="0.258244" stop-color="#F5EC9B"/>
<stop offset="1" stop-color="#905E26"/>
</linearGradient>
<linearGradient id="paint1_linear_50_3797" x1="3.5" y1="14.5" x2="10.5" y2="14.5" gradientUnits="userSpaceOnUse">
<stop stop-color="#905E26"/>
<stop offset="0.258244" stop-color="#F5EC9B"/>
<stop offset="1" stop-color="#905E26"/>
</linearGradient>
<linearGradient id="paint2_linear_50_3797" x1="17.5" y1="21.1458" x2="24.5" y2="21.1458" gradientUnits="userSpaceOnUse">
<stop stop-color="#905E26"/>
<stop offset="0.258244" stop-color="#F5EC9B"/>
<stop offset="1" stop-color="#905E26"/>
</linearGradient>
<linearGradient id="paint3_linear_50_3797" x1="10.1831" y1="14.4994" x2="17.7664" y2="14.4994" gradientUnits="userSpaceOnUse">
<stop stop-color="#905E26"/>
<stop offset="0.258244" stop-color="#F5EC9B"/>
<stop offset="1" stop-color="#905E26"/>
</linearGradient>
</defs>
</svg>
