<svg width="26" height="26" viewBox="0 0 26 26" fill="none" xmlns="http://www.w3.org/2000/svg">
<path d="M2.63913 5.57576C2.1665 6.11373 2.1665 7.03612 2.1665 8.88087V19.0569C2.1665 20.3634 2.1665 21.0167 2.50732 21.5085C2.84813 22.0002 3.44398 22.2068 4.63568 22.62L6.03772 23.106C6.79706 23.3693 7.38136 23.5718 7.87169 23.7022C8.19157 23.7874 8.48594 23.5363 8.48594 23.2053V6.7926C8.48594 6.52294 8.28695 6.29536 8.02557 6.22906C7.60391 6.12211 7.09705 5.94638 6.40236 5.70554C4.71966 5.12218 3.87832 4.8305 3.23816 5.12671C3.01086 5.23187 2.80693 5.38475 2.63913 5.57576Z" fill="url(#paint0_linear_50_3776)"/>
<path d="M13.6719 3.77115L12.0079 4.9249C11.4059 5.34229 10.9648 5.64818 10.5881 5.86626C10.4095 5.96962 10.2915 6.1566 10.2915 6.3629V22.6638C10.2915 23.0653 10.7075 23.3158 11.0457 23.0995C11.4086 22.8673 11.8243 22.5792 12.3277 22.23L13.9917 21.0763C14.5936 20.659 15.0349 20.353 15.4116 20.1349C15.5902 20.0316 15.7082 19.8446 15.7082 19.6383V3.33746C15.7082 2.93599 15.2922 2.68533 14.954 2.90167C14.591 3.13388 14.1754 3.42208 13.6719 3.77115Z" fill="url(#paint1_linear_50_3776)"/>
<path d="M21.3644 3.38101L19.9624 2.89495C19.203 2.63167 18.6187 2.42914 18.1284 2.29869C17.8085 2.21361 17.5142 2.46469 17.5142 2.7957V19.2084C17.5142 19.478 17.7132 19.7056 17.9745 19.7719C18.3962 19.8788 18.9031 20.0546 19.5977 20.2954C21.2804 20.8788 22.1218 21.1705 22.7619 20.8743C22.9892 20.7691 23.1931 20.6163 23.3609 20.4252C23.8336 19.8873 23.8336 18.9648 23.8336 17.1201V6.94404C23.8336 5.63756 23.8336 4.98432 23.4928 4.49253C23.1519 4.00073 22.5561 3.79416 21.3644 3.38101Z" fill="url(#paint2_linear_50_3776)"/>
<defs>
<linearGradient id="paint0_linear_50_3776" x1="2.1665" y1="14.3642" x2="8.48594" y2="14.3642" gradientUnits="userSpaceOnUse">
<stop stop-color="#905E26"/>
<stop offset="0.258244" stop-color="#F5EC9B"/>
<stop offset="1" stop-color="#905E26"/>
</linearGradient>
<linearGradient id="paint1_linear_50_3776" x1="10.2915" y1="13.0006" x2="15.7082" y2="13.0006" gradientUnits="userSpaceOnUse">
<stop stop-color="#905E26"/>
<stop offset="0.258244" stop-color="#F5EC9B"/>
<stop offset="1" stop-color="#905E26"/>
</linearGradient>
<linearGradient id="paint2_linear_50_3776" x1="17.5142" y1="11.6367" x2="23.8336" y2="11.6367" gradientUnits="userSpaceOnUse">
<stop stop-color="#905E26"/>
<stop offset="0.258244" stop-color="#F5EC9B"/>
<stop offset="1" stop-color="#905E26"/>
</linearGradient>
</defs>
</svg>
