<svg width="25" height="25" viewBox="0 0 25 25" fill="none" xmlns="http://www.w3.org/2000/svg">
<path d="M17.3223 14.4699L17.7968 13.9981L16.695 12.8901L16.2206 13.3619L17.3223 14.4699ZM19.3901 13.8005L21.3802 14.8824L22.1265 13.5097L20.1363 12.4278L19.3901 13.8005ZM21.7633 17.0326L20.2835 18.5039L21.3852 19.612L22.865 18.1406L21.7633 17.0326ZM19.3819 18.9777C17.8716 19.1184 13.9641 18.993 9.73341 14.7863L8.6317 15.8944C13.2484 20.4849 17.6425 20.7091 19.5269 20.5334L19.3819 18.9777ZM9.73341 14.7863C5.70072 10.7766 5.03271 7.404 4.94955 5.94088L3.38958 6.02953C3.49422 7.87102 4.32138 11.6085 8.6317 15.8944L9.73341 14.7863ZM11.166 8.34854L11.4648 8.05147L10.3631 6.94348L10.0644 7.24054L11.166 8.34854ZM11.7026 4.26479L10.3891 2.51021L9.13828 3.4466L10.4518 5.2012L11.7026 4.26479ZM5.97138 2.12831L4.33638 3.75403L5.43809 4.86203L7.07309 3.23631L5.97138 2.12831ZM10.6152 7.79454C10.0644 7.24054 10.0636 7.24128 10.0629 7.24203C10.0626 7.24228 10.0619 7.24304 10.0613 7.24355C10.0603 7.24458 10.0593 7.24562 10.0582 7.2467C10.0561 7.24885 10.0539 7.25109 10.0517 7.25343C10.0472 7.2581 10.0424 7.26317 10.0374 7.26862C10.0273 7.27953 10.0163 7.29201 10.0045 7.3061C9.98087 7.33428 9.95411 7.36898 9.92598 7.41049C9.8696 7.49371 9.80816 7.60374 9.75602 7.74211C9.64964 8.02446 9.59261 8.39666 9.66411 8.85754C9.80394 9.75887 10.4247 10.9495 12.0148 12.5305L13.1165 11.4225C11.6284 9.94289 11.274 9.04248 11.2081 8.618C11.1768 8.41599 11.2093 8.31656 11.2182 8.29302C11.2236 8.27846 11.2262 8.27697 11.2196 8.28692C11.2162 8.29178 11.2107 8.2994 11.2021 8.30966C11.1978 8.31479 11.1927 8.3206 11.1868 8.32708C11.1837 8.33032 11.1806 8.33373 11.1771 8.3373C11.1754 8.33909 11.1736 8.34092 11.1718 8.34279C11.1708 8.34373 11.1699 8.34468 11.1689 8.34563C11.1685 8.34611 11.1678 8.34684 11.1675 8.34708C11.1668 8.34781 11.166 8.34854 10.6152 7.79454ZM12.0148 12.5305C13.6054 14.1121 14.8016 14.7276 15.7044 14.8661C16.1657 14.9369 16.5377 14.8804 16.8199 14.7753C16.9582 14.7237 17.0684 14.663 17.1518 14.6072C17.1934 14.5793 17.2282 14.5527 17.2564 14.5293C17.2706 14.5176 17.2831 14.5067 17.2941 14.4967C17.2996 14.4917 17.3047 14.487 17.3094 14.4825C17.3118 14.4802 17.3139 14.478 17.3161 14.4759C17.3172 14.4749 17.3182 14.4738 17.3193 14.4728C17.3198 14.4723 17.3206 14.4715 17.3208 14.4713C17.3216 14.4706 17.3223 14.4699 16.7715 13.9158C16.2206 13.3619 16.2213 13.3611 16.2221 13.3604C16.2223 13.3602 16.223 13.3595 16.2235 13.3589C16.2245 13.358 16.2254 13.3571 16.2263 13.3561C16.2283 13.3544 16.2301 13.3526 16.2319 13.3508C16.2355 13.3474 16.2389 13.3443 16.2422 13.3412C16.2486 13.3354 16.2545 13.3303 16.2597 13.3261C16.2699 13.3176 16.2775 13.3122 16.2822 13.3089C16.2919 13.3025 16.2899 13.3054 16.2745 13.3111C16.249 13.3206 16.1468 13.3532 15.9413 13.3217C15.5108 13.2557 14.6041 12.9016 13.1165 11.4225L12.0148 12.5305ZM10.3891 2.51021C9.32733 1.09189 7.23943 0.867459 5.97138 2.12831L7.07309 3.23631C7.62692 2.68561 8.61054 2.74167 9.13828 3.4466L10.3891 2.51021ZM4.94955 5.94088C4.92906 5.58034 5.09442 5.20374 5.43809 4.86203L4.33638 3.75403C3.77667 4.31056 3.33665 5.09837 3.38958 6.02953L4.94955 5.94088ZM20.2835 18.5039C19.9973 18.7886 19.6904 18.9489 19.3819 18.9777L19.5269 20.5334C20.2921 20.4621 20.9191 20.0755 21.3852 19.612L20.2835 18.5039ZM11.4648 8.05147C12.4903 7.03176 12.5666 5.41884 11.7026 4.26479L10.4518 5.2012C10.8721 5.76264 10.8096 6.49955 10.3631 6.94348L11.4648 8.05147ZM21.3802 14.8824C22.2321 15.3455 22.3648 16.4345 21.7633 17.0326L22.865 18.1406C24.2611 16.7524 23.8306 14.436 22.1265 13.5097L21.3802 14.8824ZM17.7968 13.9981C18.1968 13.6004 18.8406 13.5019 19.3901 13.8005L20.1363 12.4278C19.0076 11.8142 17.6068 11.9836 16.695 12.8901L17.7968 13.9981Z" fill="url(#paint0_linear_50_3540)"/>
<defs>
<linearGradient id="paint0_linear_50_3540" x1="3.38525" y1="10.9374" x2="23.6992" y2="10.9374" gradientUnits="userSpaceOnUse">
<stop stop-color="#905E26"/>
<stop offset="0.258244" stop-color="#F5EC9B"/>
<stop offset="1" stop-color="#905E26"/>
</linearGradient>
</defs>
</svg>
