<svg width="32" height="32" viewBox="0 0 32 32" fill="none" xmlns="http://www.w3.org/2000/svg">
<rect width="32" height="32" rx="16" fill="white"/>
<path d="M16 21.3334C19 19.232 22 16.8906 22 13.7806C22.0011 13.3719 21.9243 12.967 21.7739 12.5891C21.6236 12.2113 21.4026 11.868 21.1238 11.5789C20.845 11.2899 20.5139 11.0609 20.1494 10.905C19.7849 10.7491 19.3943 10.6695 19 10.6707C18.2286 10.6707 17.4657 10.9728 16.8786 11.5814L16 12.4922L15.1214 11.5814C14.8434 11.2916 14.5129 11.0615 14.1488 10.9045C13.7847 10.7476 13.3943 10.6667 13 10.6667C12.6057 10.6667 12.2153 10.7476 11.8512 10.9045C11.4871 11.0615 11.1566 11.2916 10.8786 11.5814C10.5996 11.87 10.3784 12.2128 10.2276 12.5902C10.0769 12.9676 9.99951 13.3721 10 13.7806C10 16.8906 13 19.232 16 21.3334Z" stroke="#0A0A0A" stroke-width="1.5"/>
</svg>
