<svg width="180" height="86" viewBox="0 0 180 86" fill="none" xmlns="http://www.w3.org/2000/svg">
<rect width="180" height="86" rx="10" fill="#D0F2EB"/>
<path d="M50.223 21L48.206 13.7273H49.3601L50.777 19.3594H50.8445L52.3182 13.7273H53.4616L54.9354 19.3629H55.0028L56.4162 13.7273H57.5739L55.5533 21H54.4489L52.9183 15.5526H52.8615L51.331 21H50.223ZM59.5394 21.1207C59.1938 21.1207 58.8813 21.0568 58.6019 20.929C58.3226 20.7988 58.1012 20.6106 57.9379 20.3643C57.7769 20.1181 57.6964 19.8163 57.6964 19.4588C57.6964 19.151 57.7556 18.8977 57.8739 18.6989C57.9923 18.5 58.1521 18.3426 58.3533 18.2266C58.5546 18.1106 58.7795 18.023 59.0281 17.9638C59.2766 17.9046 59.5299 17.8596 59.788 17.8288C60.1147 17.791 60.3799 17.7602 60.5835 17.7365C60.7871 17.7105 60.935 17.669 61.0273 17.6122C61.1197 17.5554 61.1658 17.4631 61.1658 17.3352V17.3104C61.1658 17.0002 61.0782 16.7599 60.9031 16.5895C60.7302 16.419 60.4722 16.3338 60.1289 16.3338C59.7714 16.3338 59.4897 16.4131 59.2837 16.5717C59.0801 16.728 58.9393 16.902 58.8612 17.0938L57.8633 16.8665C57.9817 16.535 58.1545 16.2675 58.3817 16.0639C58.6114 15.858 58.8754 15.7088 59.1737 15.6165C59.4719 15.5218 59.7856 15.4744 60.1147 15.4744C60.3325 15.4744 60.5633 15.5005 60.8072 15.5526C61.0534 15.6023 61.283 15.6946 61.4961 15.8295C61.7115 15.9645 61.8879 16.1574 62.0252 16.4084C62.1625 16.657 62.2312 16.9801 62.2312 17.3778V21H61.1942V20.2543H61.1516C61.083 20.3916 60.98 20.5265 60.8427 20.6591C60.7054 20.7917 60.529 20.9018 60.3136 20.9893C60.0981 21.0769 59.8401 21.1207 59.5394 21.1207ZM59.7702 20.2685C60.0638 20.2685 60.3147 20.2105 60.5231 20.0945C60.7338 19.9785 60.8936 19.8269 61.0025 19.6399C61.1138 19.4505 61.1694 19.2481 61.1694 19.0327V18.3295C61.1315 18.3674 61.0581 18.4029 60.9492 18.4361C60.8427 18.4669 60.7208 18.4941 60.5835 18.5178C60.4461 18.5391 60.3124 18.5592 60.1822 18.5781C60.052 18.5947 59.9431 18.6089 59.8555 18.6207C59.6495 18.6468 59.4613 18.6906 59.2908 18.7521C59.1228 18.8137 58.9878 18.9025 58.886 19.0185C58.7866 19.1321 58.7369 19.2836 58.7369 19.473C58.7369 19.7358 58.8339 19.9347 59.0281 20.0696C59.2222 20.2022 59.4696 20.2685 59.7702 20.2685ZM64.7072 17.7614V21H63.6454V15.5455H64.6646V16.4332H64.7321C64.8575 16.1444 65.054 15.9124 65.3216 15.7372C65.5914 15.562 65.9312 15.4744 66.3407 15.4744C66.7124 15.4744 67.0379 15.5526 67.3173 15.7088C67.5967 15.8627 67.8133 16.0923 67.9672 16.3977C68.121 16.7031 68.198 17.0807 68.198 17.5305V21H67.1362V17.6584C67.1362 17.263 67.0332 16.9541 66.8272 16.7315C66.6213 16.5066 66.3384 16.3942 65.9785 16.3942C65.7323 16.3942 65.5133 16.4474 65.3216 16.554C65.1322 16.6605 64.9818 16.8168 64.8706 17.0227C64.7617 17.2263 64.7072 17.4725 64.7072 17.7614ZM72.1681 15.5455V16.3977H69.1887V15.5455H72.1681ZM69.9877 14.2386H71.0495V19.3984C71.0495 19.6044 71.0803 19.7595 71.1419 19.8636C71.2034 19.9654 71.2827 20.0353 71.3798 20.0732C71.4792 20.1087 71.5869 20.1264 71.7029 20.1264C71.7882 20.1264 71.8627 20.1205 71.9267 20.1087C71.9906 20.0968 72.0403 20.0874 72.0758 20.0803L72.2676 20.9574C72.206 20.9811 72.1184 21.0047 72.0048 21.0284C71.8912 21.0545 71.7491 21.0687 71.5787 21.071C71.2993 21.0758 71.0389 21.026 70.7974 20.9219C70.5559 20.8177 70.3606 20.6567 70.2115 20.4389C70.0623 20.2211 69.9877 19.9477 69.9877 19.6186V14.2386ZM78.5353 15.5455V16.3977H75.5559V15.5455H78.5353ZM76.3549 14.2386H77.4167V19.3984C77.4167 19.6044 77.4475 19.7595 77.5091 19.8636C77.5706 19.9654 77.6499 20.0353 77.747 20.0732C77.8464 20.1087 77.9541 20.1264 78.0701 20.1264C78.1554 20.1264 78.2299 20.1205 78.2939 20.1087C78.3578 20.0968 78.4075 20.0874 78.443 20.0803L78.6348 20.9574C78.5732 20.9811 78.4856 21.0047 78.372 21.0284C78.2583 21.0545 78.1163 21.0687 77.9458 21.071C77.6665 21.0758 77.4061 21.026 77.1646 20.9219C76.9231 20.8177 76.7278 20.6567 76.5787 20.4389C76.4295 20.2211 76.3549 19.9477 76.3549 19.6186V14.2386ZM81.9489 21.1101C81.4375 21.1101 80.9912 20.9929 80.6101 20.7585C80.2289 20.5241 79.933 20.1963 79.7223 19.7749C79.5116 19.3535 79.4062 18.861 79.4062 18.2976C79.4062 17.7318 79.5116 17.237 79.7223 16.8132C79.933 16.3894 80.2289 16.0604 80.6101 15.826C80.9912 15.5916 81.4375 15.4744 81.9489 15.4744C82.4602 15.4744 82.9065 15.5916 83.2876 15.826C83.6688 16.0604 83.9647 16.3894 84.1754 16.8132C84.3861 17.237 84.4915 17.7318 84.4915 18.2976C84.4915 18.861 84.3861 19.3535 84.1754 19.7749C83.9647 20.1963 83.6688 20.5241 83.2876 20.7585C82.9065 20.9929 82.4602 21.1101 81.9489 21.1101ZM81.9524 20.2188C82.2839 20.2188 82.5585 20.1312 82.7763 19.956C82.9941 19.7808 83.1551 19.5476 83.2592 19.2564C83.3658 18.9652 83.419 18.6444 83.419 18.294C83.419 17.946 83.3658 17.6264 83.2592 17.3352C83.1551 17.0417 82.9941 16.8061 82.7763 16.6286C82.5585 16.451 82.2839 16.3622 81.9524 16.3622C81.6186 16.3622 81.3416 16.451 81.1214 16.6286C80.9036 16.8061 80.7415 17.0417 80.6349 17.3352C80.5308 17.6264 80.4787 17.946 80.4787 18.294C80.4787 18.6444 80.5308 18.9652 80.6349 19.2564C80.7415 19.5476 80.9036 19.7808 81.1214 19.956C81.3416 20.1312 81.6186 20.2188 81.9524 20.2188ZM92.4105 16.8771L91.4482 17.0476C91.4079 16.9245 91.344 16.8073 91.2564 16.696C91.1712 16.5848 91.0552 16.4936 90.9084 16.4226C90.7616 16.3516 90.5781 16.3161 90.358 16.3161C90.0573 16.3161 89.8063 16.3835 89.6051 16.5185C89.4039 16.651 89.3033 16.8227 89.3033 17.0334C89.3033 17.2157 89.3707 17.3625 89.5057 17.4737C89.6406 17.585 89.8584 17.6761 90.1591 17.7472L91.0256 17.946C91.5275 18.062 91.9015 18.2408 92.1477 18.4822C92.3939 18.7237 92.517 19.0374 92.517 19.4233C92.517 19.75 92.4223 20.0412 92.233 20.2969C92.0459 20.5502 91.7843 20.7491 91.4482 20.8935C91.1143 21.0379 90.7273 21.1101 90.2869 21.1101C89.6761 21.1101 89.1778 20.9799 88.7919 20.7195C88.406 20.4567 88.1693 20.0838 88.0817 19.6009L89.108 19.4446C89.1719 19.7121 89.3033 19.9145 89.5021 20.0518C89.701 20.1868 89.9602 20.2543 90.2798 20.2543C90.6278 20.2543 90.906 20.1821 91.1143 20.0376C91.3227 19.8909 91.4268 19.7121 91.4268 19.5014C91.4268 19.331 91.3629 19.1877 91.2351 19.0717C91.1096 18.9557 90.9167 18.8681 90.6562 18.8089L89.733 18.6065C89.224 18.4905 88.8475 18.3059 88.6037 18.0526C88.3622 17.7992 88.2415 17.4785 88.2415 17.0902C88.2415 16.7682 88.3314 16.4865 88.5114 16.245C88.6913 16.0036 88.9399 15.8153 89.2571 15.6804C89.5743 15.5431 89.9377 15.4744 90.3473 15.4744C90.9368 15.4744 91.4008 15.6023 91.7393 15.858C92.0779 16.1113 92.3016 16.451 92.4105 16.8771ZM96.0353 21.1101C95.4979 21.1101 95.0351 20.9953 94.6468 20.7656C94.2609 20.5336 93.9627 20.2081 93.752 19.7891C93.5436 19.3677 93.4395 18.8741 93.4395 18.3082C93.4395 17.7495 93.5436 17.2571 93.752 16.831C93.9627 16.4048 94.2562 16.0722 94.6326 15.8331C95.0114 15.594 95.4541 15.4744 95.9608 15.4744C96.2685 15.4744 96.5668 15.5253 96.8556 15.6271C97.1445 15.7289 97.4037 15.8887 97.6333 16.1065C97.863 16.3243 98.0441 16.6072 98.1767 16.9553C98.3092 17.3009 98.3755 17.7211 98.3755 18.2159V18.5923H94.0396V17.7969H97.335C97.335 17.5175 97.2782 17.2701 97.1646 17.0547C97.051 16.8369 96.8912 16.6652 96.6852 16.5398C96.4816 16.4143 96.2425 16.3516 95.9679 16.3516C95.6696 16.3516 95.4092 16.425 95.1866 16.5717C94.9664 16.7161 94.796 16.9055 94.6752 17.1399C94.5569 17.3719 94.4977 17.6241 94.4977 17.8963V18.5178C94.4977 18.8823 94.5616 19.1925 94.6895 19.4482C94.8197 19.7038 95.0008 19.8991 95.2328 20.0341C95.4648 20.1667 95.7359 20.233 96.046 20.233C96.2472 20.233 96.4307 20.2045 96.5964 20.1477C96.7621 20.0885 96.9054 20.0009 97.0261 19.8849C97.1468 19.7689 97.2392 19.6257 97.3031 19.4553L98.3081 19.6364C98.2276 19.9323 98.0832 20.1915 97.8748 20.4141C97.6689 20.6342 97.4096 20.8059 97.0971 20.929C96.787 21.0497 96.4331 21.1101 96.0353 21.1101ZM100.615 13.7273V21H99.5536V13.7273H100.615ZM103.106 13.7273V21H102.044V13.7273H103.106ZM108.768 21.1207C108.422 21.1207 108.11 21.0568 107.83 20.929C107.551 20.7988 107.33 20.6106 107.166 20.3643C107.005 20.1181 106.925 19.8163 106.925 19.4588C106.925 19.151 106.984 18.8977 107.102 18.6989C107.221 18.5 107.381 18.3426 107.582 18.2266C107.783 18.1106 108.008 18.023 108.257 17.9638C108.505 17.9046 108.758 17.8596 109.017 17.8288C109.343 17.791 109.608 17.7602 109.812 17.7365C110.016 17.7105 110.164 17.669 110.256 17.6122C110.348 17.5554 110.394 17.4631 110.394 17.3352V17.3104C110.394 17.0002 110.307 16.7599 110.132 16.5895C109.959 16.419 109.701 16.3338 109.357 16.3338C109 16.3338 108.718 16.4131 108.512 16.5717C108.309 16.728 108.168 16.902 108.09 17.0938L107.092 16.8665C107.21 16.535 107.383 16.2675 107.61 16.0639C107.84 15.858 108.104 15.7088 108.402 15.6165C108.7 15.5218 109.014 15.4744 109.343 15.4744C109.561 15.4744 109.792 15.5005 110.036 15.5526C110.282 15.6023 110.512 15.6946 110.725 15.8295C110.94 15.9645 111.116 16.1574 111.254 16.4084C111.391 16.657 111.46 16.9801 111.46 17.3778V21H110.423V20.2543H110.38C110.311 20.3916 110.209 20.5265 110.071 20.6591C109.934 20.7917 109.758 20.9018 109.542 20.9893C109.327 21.0769 109.069 21.1207 108.768 21.1207ZM108.999 20.2685C109.292 20.2685 109.543 20.2105 109.752 20.0945C109.962 19.9785 110.122 19.8269 110.231 19.6399C110.342 19.4505 110.398 19.2481 110.398 19.0327V18.3295C110.36 18.3674 110.287 18.4029 110.178 18.4361C110.071 18.4669 109.949 18.4941 109.812 18.5178C109.675 18.5391 109.541 18.5592 109.411 18.5781C109.28 18.5947 109.172 18.6089 109.084 18.6207C108.878 18.6468 108.69 18.6906 108.519 18.7521C108.351 18.8137 108.216 18.9025 108.115 19.0185C108.015 19.1321 107.965 19.2836 107.965 19.473C107.965 19.7358 108.062 19.9347 108.257 20.0696C108.451 20.2022 108.698 20.2685 108.999 20.2685ZM116.582 17.7614V21H115.52V13.7273H116.568V16.4332H116.635C116.763 16.1397 116.959 15.9065 117.221 15.7337C117.484 15.5608 117.827 15.4744 118.251 15.4744C118.625 15.4744 118.952 15.5514 119.231 15.7053C119.513 15.8591 119.731 16.0888 119.885 16.3942C120.041 16.6972 120.119 17.076 120.119 17.5305V21H119.057V17.6584C119.057 17.2583 118.954 16.9482 118.748 16.728C118.542 16.5054 118.256 16.3942 117.889 16.3942C117.638 16.3942 117.413 16.4474 117.214 16.554C117.018 16.6605 116.863 16.8168 116.749 17.0227C116.638 17.2263 116.582 17.4725 116.582 17.7614ZM123.834 21.1101C123.322 21.1101 122.876 20.9929 122.495 20.7585C122.114 20.5241 121.818 20.1963 121.607 19.7749C121.396 19.3535 121.291 18.861 121.291 18.2976C121.291 17.7318 121.396 17.237 121.607 16.8132C121.818 16.3894 122.114 16.0604 122.495 15.826C122.876 15.5916 123.322 15.4744 123.834 15.4744C124.345 15.4744 124.791 15.5916 125.172 15.826C125.554 16.0604 125.849 16.3894 126.06 16.8132C126.271 17.237 126.376 17.7318 126.376 18.2976C126.376 18.861 126.271 19.3535 126.06 19.7749C125.849 20.1963 125.554 20.5241 125.172 20.7585C124.791 20.9929 124.345 21.1101 123.834 21.1101ZM123.837 20.2188C124.169 20.2188 124.443 20.1312 124.661 19.956C124.879 19.7808 125.04 19.5476 125.144 19.2564C125.251 18.9652 125.304 18.6444 125.304 18.294C125.304 17.946 125.251 17.6264 125.144 17.3352C125.04 17.0417 124.879 16.8061 124.661 16.6286C124.443 16.451 124.169 16.3622 123.837 16.3622C123.503 16.3622 123.226 16.451 123.006 16.6286C122.788 16.8061 122.626 17.0417 122.52 17.3352C122.416 17.6264 122.363 17.946 122.363 18.294C122.363 18.6444 122.416 18.9652 122.52 19.2564C122.626 19.5476 122.788 19.7808 123.006 19.956C123.226 20.1312 123.503 20.2188 123.837 20.2188ZM127.561 21V15.5455H128.581V16.4332H128.648C128.762 16.1326 128.948 15.8982 129.206 15.7301C129.464 15.5597 129.773 15.4744 130.132 15.4744C130.497 15.4744 130.802 15.5597 131.049 15.7301C131.297 15.9006 131.481 16.1349 131.599 16.4332H131.656C131.786 16.142 131.993 15.91 132.277 15.7372C132.561 15.562 132.9 15.4744 133.293 15.4744C133.788 15.4744 134.191 15.6295 134.504 15.9396C134.819 16.2498 134.976 16.7173 134.976 17.3423V21H133.914V17.4418C133.914 17.0724 133.814 16.8049 133.613 16.6392C133.411 16.4735 133.171 16.3906 132.892 16.3906C132.546 16.3906 132.277 16.4972 132.086 16.7102C131.894 16.9209 131.798 17.192 131.798 17.5234V21H130.74V17.3743C130.74 17.0784 130.647 16.8404 130.463 16.6605C130.278 16.4806 130.038 16.3906 129.742 16.3906C129.541 16.3906 129.355 16.4439 129.184 16.5504C129.016 16.6546 128.88 16.8002 128.776 16.9872C128.674 17.1742 128.623 17.3909 128.623 17.6371V21H127.561ZM138.75 21.1101C138.213 21.1101 137.75 20.9953 137.362 20.7656C136.976 20.5336 136.677 20.2081 136.467 19.7891C136.258 19.3677 136.154 18.8741 136.154 18.3082C136.154 17.7495 136.258 17.2571 136.467 16.831C136.677 16.4048 136.971 16.0722 137.347 15.8331C137.726 15.594 138.169 15.4744 138.676 15.4744C138.983 15.4744 139.282 15.5253 139.57 15.6271C139.859 15.7289 140.119 15.8887 140.348 16.1065C140.578 16.3243 140.759 16.6072 140.892 16.9553C141.024 17.3009 141.09 17.7211 141.09 18.2159V18.5923H136.754V17.7969H140.05C140.05 17.5175 139.993 17.2701 139.879 17.0547C139.766 16.8369 139.606 16.6652 139.4 16.5398C139.196 16.4143 138.957 16.3516 138.683 16.3516C138.384 16.3516 138.124 16.425 137.901 16.5717C137.681 16.7161 137.511 16.9055 137.39 17.1399C137.272 17.3719 137.213 17.6241 137.213 17.8963V18.5178C137.213 18.8823 137.276 19.1925 137.404 19.4482C137.535 19.7038 137.716 19.8991 137.948 20.0341C138.18 20.1667 138.451 20.233 138.761 20.233C138.962 20.233 139.146 20.2045 139.311 20.1477C139.477 20.0885 139.62 20.0009 139.741 19.8849C139.862 19.7689 139.954 19.6257 140.018 19.4553L141.023 19.6364C140.942 19.9323 140.798 20.1915 140.59 20.4141C140.384 20.6342 140.124 20.8059 139.812 20.929C139.502 21.0497 139.148 21.1101 138.75 21.1101ZM48.7138 35V29.5455H49.7756V35H48.7138ZM49.25 28.7038C49.0653 28.7038 48.9067 28.6423 48.7741 28.5192C48.6439 28.3937 48.5788 28.2446 48.5788 28.0717C48.5788 27.8965 48.6439 27.7474 48.7741 27.6243C48.9067 27.4988 49.0653 27.4361 49.25 27.4361C49.4347 27.4361 49.5921 27.4988 49.7223 27.6243C49.8549 27.7474 49.9212 27.8965 49.9212 28.0717C49.9212 28.2446 49.8549 28.3937 49.7223 28.5192C49.5921 28.6423 49.4347 28.7038 49.25 28.7038ZM52.2658 31.7614V35H51.204V29.5455H52.2232V30.4332H52.2907C52.4161 30.1444 52.6126 29.9124 52.8801 29.7372C53.15 29.562 53.4898 29.4744 53.8993 29.4744C54.271 29.4744 54.5965 29.5526 54.8759 29.7088C55.1552 29.8627 55.3719 30.0923 55.5257 30.3977C55.6796 30.7031 55.7566 31.0807 55.7566 31.5305V35H54.6948V31.6584C54.6948 31.263 54.5918 30.9541 54.3858 30.7315C54.1799 30.5066 53.897 30.3942 53.5371 30.3942C53.2909 30.3942 53.0719 30.4474 52.8801 30.554C52.6908 30.6605 52.5404 30.8168 52.4292 31.0227C52.3203 31.2263 52.2658 31.4725 52.2658 31.7614ZM60.5479 27.7273L62.5721 33.6506H62.6538L64.6779 27.7273H65.864L63.2468 35H61.979L59.3619 27.7273H60.5479ZM66.829 35V29.5455H67.8908V35H66.829ZM67.3652 28.7038C67.1806 28.7038 67.022 28.6423 66.8894 28.5192C66.7592 28.3937 66.6941 28.2446 66.6941 28.0717C66.6941 27.8965 66.7592 27.7474 66.8894 27.6243C67.022 27.4988 67.1806 27.4361 67.3652 27.4361C67.5499 27.4361 67.7073 27.4988 67.8375 27.6243C67.9701 27.7474 68.0364 27.8965 68.0364 28.0717C68.0364 28.2446 67.9701 28.3937 67.8375 28.5192C67.7073 28.6423 67.5499 28.7038 67.3652 28.7038ZM73.4066 30.8771L72.4442 31.0476C72.404 30.9245 72.3401 30.8073 72.2525 30.696C72.1673 30.5848 72.0513 30.4936 71.9045 30.4226C71.7577 30.3516 71.5742 30.3161 71.354 30.3161C71.0534 30.3161 70.8024 30.3835 70.6012 30.5185C70.4 30.651 70.2994 30.8227 70.2994 31.0334C70.2994 31.2157 70.3668 31.3625 70.5018 31.4737C70.6367 31.585 70.8545 31.6761 71.1552 31.7472L72.0217 31.946C72.5236 32.062 72.8976 32.2408 73.1438 32.4822C73.39 32.7237 73.5131 33.0374 73.5131 33.4233C73.5131 33.75 73.4184 34.0412 73.229 34.2969C73.042 34.5502 72.7804 34.7491 72.4442 34.8935C72.1104 35.0379 71.7234 35.1101 71.283 35.1101C70.6722 35.1101 70.1739 34.9799 69.788 34.7195C69.4021 34.4567 69.1654 34.0838 69.0778 33.6009L70.104 33.4446C70.168 33.7121 70.2994 33.9145 70.4982 34.0518C70.6971 34.1868 70.9563 34.2543 71.2759 34.2543C71.6239 34.2543 71.9021 34.1821 72.1104 34.0376C72.3188 33.8909 72.4229 33.7121 72.4229 33.5014C72.4229 33.331 72.359 33.1877 72.2312 33.0717C72.1057 32.9557 71.9128 32.8681 71.6523 32.8089L70.729 32.6065C70.2201 32.4905 69.8436 32.3059 69.5998 32.0526C69.3583 31.7992 69.2376 31.4785 69.2376 31.0902C69.2376 30.7682 69.3275 30.4865 69.5075 30.245C69.6874 30.0036 69.936 29.8153 70.2532 29.6804C70.5704 29.5431 70.9338 29.4744 71.3434 29.4744C71.9329 29.4744 72.3969 29.6023 72.7354 29.858C73.074 30.1113 73.2977 30.451 73.4066 30.8771ZM77.2267 29.5455V30.3977H74.2473V29.5455H77.2267ZM75.0463 28.2386H76.1081V33.3984C76.1081 33.6044 76.1389 33.7595 76.2005 33.8636C76.262 33.9654 76.3413 34.0353 76.4384 34.0732C76.5378 34.1087 76.6455 34.1264 76.7615 34.1264C76.8468 34.1264 76.9213 34.1205 76.9853 34.1087C77.0492 34.0968 77.0989 34.0874 77.1344 34.0803L77.3262 34.9574C77.2646 34.9811 77.177 35.0047 77.0634 35.0284C76.9498 35.0545 76.8077 35.0687 76.6373 35.071C76.3579 35.0758 76.0975 35.026 75.856 34.9219C75.6145 34.8177 75.4192 34.6567 75.2701 34.4389C75.1209 34.2211 75.0463 33.9477 75.0463 33.6186V28.2386ZM79.9886 35.1207C79.643 35.1207 79.3305 35.0568 79.0511 34.929C78.7718 34.7988 78.5504 34.6106 78.3871 34.3643C78.2261 34.1181 78.1456 33.8163 78.1456 33.4588C78.1456 33.151 78.2048 32.8977 78.3232 32.6989C78.4415 32.5 78.6013 32.3426 78.8026 32.2266C79.0038 32.1106 79.2287 32.023 79.4773 31.9638C79.7259 31.9046 79.9792 31.8596 80.2372 31.8288C80.5639 31.791 80.8291 31.7602 81.0327 31.7365C81.2363 31.7105 81.3842 31.669 81.4766 31.6122C81.5689 31.5554 81.6151 31.4631 81.6151 31.3352V31.3104C81.6151 31.0002 81.5275 30.7599 81.3523 30.5895C81.1795 30.419 80.9214 30.3338 80.5781 30.3338C80.2206 30.3338 79.9389 30.4131 79.733 30.5717C79.5294 30.728 79.3885 30.902 79.3104 31.0938L78.3125 30.8665C78.4309 30.535 78.6037 30.2675 78.831 30.0639C79.0606 29.858 79.3246 29.7088 79.6229 29.6165C79.9212 29.5218 80.2348 29.4744 80.5639 29.4744C80.7817 29.4744 81.0125 29.5005 81.2564 29.5526C81.5026 29.6023 81.7322 29.6946 81.9453 29.8295C82.1607 29.9645 82.3371 30.1574 82.4744 30.4084C82.6117 30.657 82.6804 30.9801 82.6804 31.3778V35H81.6435V34.2543H81.6009C81.5322 34.3916 81.4292 34.5265 81.2919 34.6591C81.1546 34.7917 80.9782 34.9018 80.7628 34.9893C80.5473 35.0769 80.2893 35.1207 79.9886 35.1207ZM80.2195 34.2685C80.513 34.2685 80.764 34.2105 80.9723 34.0945C81.183 33.9785 81.3428 33.8269 81.4517 33.6399C81.563 33.4505 81.6186 33.2481 81.6186 33.0327V32.3295C81.5807 32.3674 81.5073 32.4029 81.3984 32.4361C81.2919 32.4669 81.17 32.4941 81.0327 32.5178C80.8954 32.5391 80.7616 32.5592 80.6314 32.5781C80.5012 32.5947 80.3923 32.6089 80.3047 32.6207C80.0987 32.6468 79.9105 32.6906 79.7401 32.7521C79.572 32.8137 79.437 32.9025 79.3352 33.0185C79.2358 33.1321 79.1861 33.2836 79.1861 33.473C79.1861 33.7358 79.2831 33.9347 79.4773 34.0696C79.6714 34.2022 79.9188 34.2685 80.2195 34.2685ZM88.5655 29.5455L86.5875 35H85.4512L83.4696 29.5455H84.6096L85.9909 33.7429H86.0478L87.4256 29.5455H88.5655ZM89.5634 35V29.5455H90.6252V35H89.5634ZM90.0996 28.7038C89.915 28.7038 89.7563 28.6423 89.6238 28.5192C89.4935 28.3937 89.4284 28.2446 89.4284 28.0717C89.4284 27.8965 89.4935 27.7474 89.6238 27.6243C89.7563 27.4988 89.915 27.4361 90.0996 27.4361C90.2843 27.4361 90.4417 27.4988 90.5719 27.6243C90.7045 27.7474 90.7708 27.8965 90.7708 28.0717C90.7708 28.2446 90.7045 28.3937 90.5719 28.5192C90.4417 28.6423 90.2843 28.7038 90.0996 28.7038ZM94.4045 35.1101C93.8671 35.1101 93.4042 34.9953 93.016 34.7656C92.6301 34.5336 92.3318 34.2081 92.1211 33.7891C91.9128 33.3677 91.8086 32.8741 91.8086 32.3082C91.8086 31.7495 91.9128 31.2571 92.1211 30.831C92.3318 30.4048 92.6254 30.0722 93.0018 29.8331C93.3806 29.594 93.8233 29.4744 94.3299 29.4744C94.6377 29.4744 94.936 29.5253 95.2248 29.6271C95.5136 29.7289 95.7728 29.8887 96.0025 30.1065C96.2321 30.3243 96.4132 30.6072 96.5458 30.9553C96.6784 31.3009 96.7447 31.7211 96.7447 32.2159V32.5923H92.4087V31.7969H95.7042C95.7042 31.5175 95.6474 31.2701 95.5337 31.0547C95.4201 30.8369 95.2603 30.6652 95.0543 30.5398C94.8507 30.4143 94.6116 30.3516 94.337 30.3516C94.0387 30.3516 93.7783 30.425 93.5558 30.5717C93.3356 30.7161 93.1651 30.9055 93.0444 31.1399C92.926 31.3719 92.8668 31.6241 92.8668 31.8963V32.5178C92.8668 32.8823 92.9308 33.1925 93.0586 33.4482C93.1888 33.7038 93.3699 33.8991 93.6019 34.0341C93.8339 34.1667 94.105 34.233 94.4151 34.233C94.6164 34.233 94.7998 34.2045 94.9656 34.1477C95.1313 34.0885 95.2745 34.0009 95.3952 33.8849C95.516 33.7689 95.6083 33.6257 95.6722 33.4553L96.6772 33.6364C96.5967 33.9323 96.4523 34.1915 96.244 34.4141C96.038 34.6342 95.7788 34.8059 95.4663 34.929C95.1561 35.0497 94.8022 35.1101 94.4045 35.1101ZM99.0955 35L97.4904 29.5455H98.5877L99.6566 33.5511H99.7099L100.782 29.5455H101.88L102.945 33.5334H102.998L104.06 29.5455H105.157L103.556 35H102.473L101.365 31.0618H101.283L100.175 35H99.0955Z" fill="#004236"/>
<rect x="45" y="51" width="93" height="25" rx="7" fill="white"/>
<path d="M60.6037 60.6719C60.5639 60.2997 60.3963 60.0099 60.1009 59.8026C59.8082 59.5952 59.4276 59.4915 58.9588 59.4915C58.6293 59.4915 58.3466 59.5412 58.1108 59.6406C57.875 59.7401 57.6946 59.875 57.5696 60.0455C57.4446 60.2159 57.3807 60.4105 57.3778 60.6293C57.3778 60.8111 57.419 60.9687 57.5014 61.1023C57.5866 61.2358 57.7017 61.3494 57.8466 61.4432C57.9915 61.5341 58.152 61.6108 58.3281 61.6733C58.5043 61.7358 58.6818 61.7884 58.8608 61.831L59.679 62.0355C60.0085 62.1122 60.3253 62.2159 60.6293 62.3466C60.9361 62.4773 61.2102 62.642 61.4517 62.8409C61.696 63.0398 61.8892 63.2798 62.0312 63.5611C62.1733 63.8423 62.2443 64.1719 62.2443 64.5497C62.2443 65.0611 62.1136 65.5114 61.8523 65.9006C61.5909 66.2869 61.2131 66.5895 60.7188 66.8082C60.2273 67.0241 59.6321 67.1321 58.9332 67.1321C58.2543 67.1321 57.6648 67.027 57.1648 66.8168C56.6676 66.6065 56.2784 66.2997 55.9972 65.8963C55.7188 65.4929 55.5682 65.0014 55.5455 64.4219H57.1009C57.1236 64.7259 57.2173 64.9787 57.3821 65.1804C57.5469 65.3821 57.7614 65.5327 58.0256 65.6321C58.2926 65.7315 58.5909 65.7812 58.9205 65.7812C59.2642 65.7812 59.5653 65.7301 59.8239 65.6278C60.0852 65.5227 60.2898 65.3778 60.4375 65.1932C60.5852 65.0057 60.6605 64.7869 60.6634 64.5369C60.6605 64.3097 60.5938 64.1222 60.4631 63.9744C60.3324 63.8239 60.1491 63.6989 59.9134 63.5994C59.6804 63.4972 59.4077 63.4062 59.0952 63.3267L58.1023 63.071C57.3835 62.8864 56.8153 62.6065 56.3977 62.2315C55.983 61.8537 55.7756 61.3523 55.7756 60.7273C55.7756 60.2131 55.9148 59.7628 56.1932 59.3764C56.4744 58.9901 56.8565 58.6903 57.3395 58.4773C57.8224 58.2614 58.3693 58.1534 58.9801 58.1534C59.5994 58.1534 60.142 58.2614 60.608 58.4773C61.0767 58.6903 61.4446 58.9872 61.7116 59.3679C61.9787 59.7457 62.1165 60.1804 62.125 60.6719H60.6037ZM66.2433 67.1278C65.5871 67.1278 65.0203 66.9915 64.543 66.7188C64.0686 66.4432 63.7035 66.054 63.4479 65.5511C63.1922 65.0455 63.0643 64.4503 63.0643 63.7656C63.0643 63.0923 63.1922 62.5014 63.4479 61.9929C63.7064 61.4815 64.0672 61.0838 64.5302 60.7997C64.9933 60.5128 65.5373 60.3693 66.1623 60.3693C66.5658 60.3693 66.9464 60.4347 67.3044 60.5653C67.6652 60.6932 67.9834 60.892 68.2589 61.1619C68.5373 61.4318 68.7561 61.7756 68.9152 62.1932C69.0743 62.608 69.1538 63.1023 69.1538 63.6761V64.1491H63.7888V63.1094H67.6751C67.6723 62.8139 67.6084 62.5511 67.4834 62.321C67.3584 62.0881 67.1837 61.9048 66.9592 61.7713C66.7376 61.6378 66.4791 61.571 66.1837 61.571C65.8683 61.571 65.5913 61.6477 65.3527 61.8011C65.114 61.9517 64.928 62.1506 64.7944 62.3977C64.6638 62.642 64.597 62.9105 64.5942 63.2031V64.1108C64.5942 64.4915 64.6638 64.8182 64.803 65.0909C64.9422 65.3608 65.1368 65.5682 65.3868 65.7131C65.6368 65.8551 65.9294 65.9261 66.2646 65.9261C66.489 65.9261 66.6922 65.8949 66.874 65.8324C67.0558 65.767 67.2135 65.6719 67.347 65.5469C67.4805 65.4219 67.5814 65.267 67.6496 65.0824L69.0899 65.2443C68.999 65.625 68.8257 65.9574 68.57 66.2415C68.3172 66.5227 67.9933 66.7415 67.5984 66.8977C67.2035 67.0511 66.7518 67.1278 66.2433 67.1278ZM71.7615 58.2727V67H70.2189V58.2727H71.7615ZM74.6504 58.2727V67H73.1078V58.2727H74.6504ZM78.8014 67V58.2727H80.3824V61.9673H84.4264V58.2727H86.0116V67H84.4264V63.2926H80.3824V67H78.8014ZM90.278 67.1278C89.6388 67.1278 89.0849 66.9872 88.6161 66.706C88.1474 66.4247 87.7837 66.0312 87.5252 65.5256C87.2695 65.0199 87.1417 64.429 87.1417 63.7528C87.1417 63.0767 87.2695 62.4844 87.5252 61.9759C87.7837 61.4673 88.1474 61.0724 88.6161 60.7912C89.0849 60.5099 89.6388 60.3693 90.278 60.3693C90.9172 60.3693 91.4712 60.5099 91.94 60.7912C92.4087 61.0724 92.7709 61.4673 93.0266 61.9759C93.2851 62.4844 93.4144 63.0767 93.4144 63.7528C93.4144 64.429 93.2851 65.0199 93.0266 65.5256C92.7709 66.0312 92.4087 66.4247 91.94 66.706C91.4712 66.9872 90.9172 67.1278 90.278 67.1278ZM90.2866 65.892C90.6332 65.892 90.9229 65.7969 91.1559 65.6065C91.3888 65.4134 91.5621 65.1548 91.6758 64.831C91.7922 64.5071 91.8505 64.1463 91.8505 63.7486C91.8505 63.348 91.7922 62.9858 91.6758 62.6619C91.5621 62.3352 91.3888 62.0753 91.1559 61.8821C90.9229 61.6889 90.6332 61.5923 90.2866 61.5923C89.9314 61.5923 89.636 61.6889 89.4002 61.8821C89.1672 62.0753 88.9925 62.3352 88.8761 62.6619C88.7624 62.9858 88.7056 63.348 88.7056 63.7486C88.7056 64.1463 88.7624 64.5071 88.8761 64.831C88.9925 65.1548 89.1672 65.4134 89.4002 65.6065C89.636 65.7969 89.9314 65.892 90.2866 65.892ZM94.4837 67V60.4545H95.9581V61.5668H96.0348C96.1712 61.1918 96.3971 60.8991 96.7124 60.6889C97.0277 60.4759 97.4042 60.3693 97.8417 60.3693C98.2848 60.3693 98.6584 60.4773 98.9624 60.6932C99.2692 60.9062 99.4851 61.1974 99.6101 61.5668H99.6783C99.8232 61.2031 100.068 60.9134 100.411 60.6974C100.758 60.4787 101.168 60.3693 101.643 60.3693C102.245 60.3693 102.737 60.5597 103.117 60.9403C103.498 61.321 103.688 61.8764 103.688 62.6065V67H102.141V62.8452C102.141 62.4389 102.033 62.142 101.818 61.9545C101.602 61.7642 101.337 61.669 101.025 61.669C100.653 61.669 100.362 61.7855 100.151 62.0185C99.9439 62.2486 99.8402 62.5483 99.8402 62.9176V67H98.3275V62.7812C98.3275 62.4432 98.2252 62.1733 98.0206 61.9716C97.8189 61.7699 97.5547 61.669 97.228 61.669C97.0064 61.669 96.8047 61.7259 96.6229 61.8395C96.4411 61.9503 96.2962 62.108 96.1883 62.3125C96.0803 62.5142 96.0263 62.75 96.0263 63.0199V67H94.4837ZM107.911 67.1278C107.255 67.1278 106.688 66.9915 106.211 66.7188C105.736 66.4432 105.371 66.054 105.116 65.5511C104.86 65.0455 104.732 64.4503 104.732 63.7656C104.732 63.0923 104.86 62.5014 105.116 61.9929C105.374 61.4815 105.735 61.0838 106.198 60.7997C106.661 60.5128 107.205 60.3693 107.83 60.3693C108.233 60.3693 108.614 60.4347 108.972 60.5653C109.333 60.6932 109.651 60.892 109.927 61.1619C110.205 61.4318 110.424 61.7756 110.583 62.1932C110.742 62.608 110.821 63.1023 110.821 63.6761V64.1491H105.456V63.1094H109.343C109.34 62.8139 109.276 62.5511 109.151 62.321C109.026 62.0881 108.851 61.9048 108.627 61.7713C108.405 61.6378 108.147 61.571 107.851 61.571C107.536 61.571 107.259 61.6477 107.02 61.8011C106.782 61.9517 106.596 62.1506 106.462 62.3977C106.331 62.642 106.265 62.9105 106.262 63.2031V64.1108C106.262 64.4915 106.331 64.8182 106.471 65.0909C106.61 65.3608 106.804 65.5682 107.054 65.7131C107.304 65.8551 107.597 65.9261 107.932 65.9261C108.157 65.9261 108.36 65.8949 108.542 65.8324C108.723 65.767 108.881 65.6719 109.015 65.5469C109.148 65.4219 109.249 65.267 109.317 65.0824L110.758 65.2443C110.667 65.625 110.493 65.9574 110.238 66.2415C109.985 66.5227 109.661 66.7415 109.266 66.8977C108.871 67.0511 108.419 67.1278 107.911 67.1278Z" fill="url(#paint0_linear_11_421)"/>
<path d="M124.291 59.1985L128.181 62.7646L128.213 62.7925C128.343 62.9119 128.419 63.0692 128.43 63.2552L128.43 63.3177C128.42 63.465 128.359 63.6057 128.239 63.7318L128.194 63.7751L124.291 67.3541C124.003 67.6188 123.536 67.6188 123.247 67.3541C122.957 67.0879 122.957 66.655 123.247 66.3888L125.942 63.9174L115.112 63.9176C114.704 63.9176 114.372 63.6133 114.372 63.2365C114.372 62.8596 114.704 62.5553 115.112 62.5553L125.855 62.5551L123.247 60.1638C122.957 59.8976 122.957 59.4647 123.247 59.1985C123.536 58.9338 124.003 58.9338 124.291 59.1985Z" fill="url(#paint1_linear_11_421)"/>
<g clip-path="url(#clip0_11_421)">
<path d="M30.5302 34.7945C30.5302 34.9941 30.4953 35.1874 30.4288 35.368C30.7013 35.2951 31.0118 35.1811 31.316 35.0036C32.387 34.3921 32.9985 33.2863 33.1347 31.7084C33.1727 31.2743 33.3692 30.8688 33.6924 30.5741C34.0155 30.2763 34.4338 30.1147 34.871 30.1147H34.8806H35.115L35.1213 29.2687C35.1245 28.8283 34.7696 28.4702 34.3292 28.4702H32.3077C31.8736 28.4702 31.5188 28.8219 31.5156 29.256L31.5061 30.6945C31.5315 32.1774 31.1196 33.1089 30.5334 33.6887L30.5302 34.7945Z" fill="url(#paint2_linear_11_421)"/>
<path d="M36.5029 31.0775L35.1151 31.068H34.8806C34.8806 31.068 34.8774 31.068 34.8743 31.068C34.4624 31.068 34.1202 31.3817 34.0854 31.7936C33.6925 36.3403 29.8871 36.4575 29.4942 36.4575C29.4721 36.4575 29.4625 36.4575 29.4625 36.4575L22.5774 36.448C22.3683 36.448 22.1972 36.277 22.1972 36.0647V35.9442C22.1972 35.7351 22.3683 35.5672 22.5774 35.5672L28.7845 35.5767C29.2186 35.5767 29.5734 35.225 29.5766 34.7878L29.5798 34.3188L29.5861 33.0261C29.5893 32.5888 29.2376 32.2308 28.7972 32.2308L25.7206 32.2117C25.4417 32.2086 25.1661 32.1357 24.9253 31.9931C24.1553 31.54 22.175 30.5293 19.7669 30.5293C18.6168 30.5293 17.3684 30.7606 16.1073 31.3911L15.0396 31.3975C15.0712 31.5274 15.0871 31.6636 15.0871 31.8062L15.0934 38.6153C15.0934 38.7388 15.0807 38.8592 15.0554 38.9764H18.49C18.9305 38.9764 19.3677 39.0177 19.7986 39.1L21.4906 39.42C23.4075 39.7844 25.353 39.9713 27.3048 39.984L29.8839 39.9999C29.8839 39.9999 36.7659 39.6767 37.276 31.9234C37.3172 31.4672 36.9591 31.0806 36.5029 31.0775Z" fill="url(#paint3_linear_11_421)"/>
<path d="M14.0351 31.4009C13.9178 31.2045 13.7214 31.0651 13.4869 31.0239C13.4426 31.0176 13.3982 31.0112 13.3507 31.0112H13.0116H11.5129C11.0757 31.0112 10.7208 31.3661 10.7208 31.8034L10.7272 38.6124C10.7272 39.0497 11.082 39.4045 11.5193 39.4045H13.0402H13.357C13.4109 39.4045 13.4647 39.3982 13.5154 39.3887C13.7531 39.3412 13.9527 39.1827 14.0604 38.9705C14.1143 38.8628 14.146 38.7392 14.146 38.6093L14.1396 31.8002C14.146 31.6575 14.1047 31.5182 14.0351 31.4009Z" fill="url(#paint4_linear_11_421)"/>
<path d="M29.4688 17.8554V12.9505C29.4688 12.4246 29.0443 12 28.5182 12H27.3617C26.8358 12 26.4112 12.4246 26.4112 12.9505V14.7978L24.1742 12.5608C23.8638 12.2503 23.3631 12.2503 23.0526 12.5608L15.5274 20.086C15.1282 20.4852 15.4102 21.1664 15.9742 21.1664H16.9976C17.4349 21.1664 17.7897 21.5213 17.7897 21.9586V28.0896C17.7897 28.5269 18.1446 28.8817 18.5819 28.8817H20.2707C20.7079 28.8817 21.0628 28.5269 21.0628 28.0896V25.3647C21.0628 24.9274 21.4177 24.5726 21.8549 24.5726H25.3719C25.8092 24.5726 26.1641 24.9274 26.1641 25.3647V28.0928C26.1641 28.5301 26.5189 28.8849 26.9562 28.8849H28.645C29.0822 28.8849 29.4371 28.5301 29.4371 28.0928V21.9617C29.4371 21.5245 29.792 21.1696 30.2292 21.1696H31.2527C31.8167 21.1696 32.0986 20.4884 31.6994 20.0892L29.4688 17.8554Z" fill="url(#paint5_linear_11_421)"/>
</g>
<defs>
<linearGradient id="paint0_linear_11_421" x1="61.3358" y1="57.7931" x2="86.7139" y2="92.8149" gradientUnits="userSpaceOnUse">
<stop stop-color="#004236"/>
<stop offset="1" stop-color="#007E67"/>
</linearGradient>
<linearGradient id="paint1_linear_11_421" x1="115.809" y1="60.3271" x2="127.466" y2="68.004" gradientUnits="userSpaceOnUse">
<stop stop-color="#004236"/>
<stop offset="1" stop-color="#007E67"/>
</linearGradient>
<linearGradient id="paint2_linear_11_421" x1="30.9084" y1="29.5406" x2="36.1013" y2="30.9559" gradientUnits="userSpaceOnUse">
<stop stop-color="#004236"/>
<stop offset="1" stop-color="#007E67"/>
</linearGradient>
<linearGradient id="paint3_linear_11_421" x1="17.3122" y1="31.9989" x2="31.3372" y2="45.194" gradientUnits="userSpaceOnUse">
<stop stop-color="#004236"/>
<stop offset="1" stop-color="#007E67"/>
</linearGradient>
<linearGradient id="paint4_linear_11_421" x1="11.0708" y1="32.3136" x2="15.0368" y2="32.9621" gradientUnits="userSpaceOnUse">
<stop stop-color="#004236"/>
<stop offset="1" stop-color="#007E67"/>
</linearGradient>
<linearGradient id="paint5_linear_11_421" x1="17.0312" y1="14.6201" x2="34.0748" y2="21.3115" gradientUnits="userSpaceOnUse">
<stop stop-color="#004236"/>
<stop offset="1" stop-color="#007E67"/>
</linearGradient>
<clipPath id="clip0_11_421">
<rect width="28" height="28" fill="white" transform="translate(10 12)"/>
</clipPath>
</defs>
</svg>
