<svg width="26" height="26" viewBox="0 0 26 26" fill="none" xmlns="http://www.w3.org/2000/svg">
<path d="M2.63937 5.576C2.16675 6.11398 2.16675 7.03636 2.16675 8.88111V19.0572C2.16675 20.3637 2.16675 21.0169 2.50756 21.5087C2.84837 22.0005 3.44423 22.2071 4.63592 22.6202L6.03796 23.1062C6.7973 23.3696 7.3816 23.5721 7.87194 23.7025C8.19181 23.7876 8.48619 23.5365 8.48619 23.2056V6.79285C8.48619 6.52318 8.28719 6.29561 8.02582 6.22931C7.60415 6.12235 7.09729 5.94662 6.4026 5.70579C4.7199 5.12242 3.87857 4.83075 3.2384 5.12695C3.01111 5.23211 2.80717 5.38499 2.63937 5.576Z" fill="white"/>
<path d="M13.6722 3.77091L12.0082 4.92466C11.4062 5.34204 10.965 5.64793 10.5883 5.86602C10.4098 5.96938 10.2917 6.15635 10.2917 6.36265V22.6635C10.2917 23.065 10.7077 23.3156 11.046 23.0992C11.4089 22.8671 11.8246 22.5789 12.328 22.2298L13.992 21.076C14.5939 20.6587 15.0351 20.3528 15.4118 20.1347C15.5904 20.0313 15.7084 19.8444 15.7084 19.6381V3.33722C15.7084 2.93574 15.2924 2.68508 14.9542 2.90142C14.5913 3.13364 14.1756 3.42184 13.6722 3.77091Z" fill="white"/>
<path d="M21.3642 3.38077L19.9621 2.89471C19.2027 2.63142 18.6185 2.42889 18.1282 2.29845C17.8083 2.21337 17.5139 2.46445 17.5139 2.79545V19.2081C17.5139 19.4778 17.7129 19.7054 17.9742 19.7717C18.396 19.8786 18.9029 20.0543 19.5975 20.2951C21.2801 20.8785 22.1215 21.1703 22.7617 20.8741C22.989 20.7689 23.1929 20.616 23.3607 20.4249C23.8333 19.887 23.8333 18.9646 23.8333 17.1199V6.94379C23.8333 5.63732 23.8333 4.98408 23.4925 4.49229C23.1517 4.00049 22.5559 3.79392 21.3642 3.38077Z" fill="white"/>
</svg>
