<svg width="40" height="40" viewBox="0 0 40 40" fill="none" xmlns="http://www.w3.org/2000/svg">
<path d="M6.58331 19.7635C6.58331 16.8077 6.58331 15.3297 7.25395 14.1045C7.92458 12.8794 9.14979 12.1189 11.6002 10.5982L14.1835 8.99487C16.7738 7.38729 18.0689 6.5835 19.5 6.5835C20.931 6.5835 22.2262 7.38729 24.8165 8.99487L27.3998 10.5982C29.8502 12.1189 31.0754 12.8794 31.746 14.1045C32.4166 15.3297 32.4166 16.8077 32.4166 19.7635V21.7283C32.4166 26.7668 32.4166 29.2862 30.9033 30.8515C29.3901 32.4168 26.9544 32.4168 22.0833 32.4168H16.9166C12.0455 32.4168 9.60988 32.4168 8.09659 30.8515C6.58331 29.2862 6.58331 26.7668 6.58331 21.7283V19.7635Z" fill="url(#paint0_linear_73_1427)"/>
<path d="M23.375 27.25H15.625" stroke="white" stroke-width="2" stroke-linecap="round"/>
<defs>
<linearGradient id="paint0_linear_73_1427" x1="9.22322" y1="10.5921" x2="35.6871" y2="21.1947" gradientUnits="userSpaceOnUse">
<stop stop-color="#004236"/>
<stop offset="1" stop-color="#007E67"/>
</linearGradient>
</defs>
</svg>
