<svg width="31" height="31" viewBox="0 0 31 31" fill="none" xmlns="http://www.w3.org/2000/svg">
<path d="M26.7964 4.3002C26.292 3.79577 25.4741 3.79577 24.9697 4.3002L15.5478 13.7221L6.12591 4.3002C5.62149 3.79577 4.80365 3.79577 4.29922 4.3002C3.79479 4.80462 3.79479 5.62247 4.29922 6.12689L13.7211 15.5488L4.29925 24.9706C3.79482 25.4751 3.79482 26.2929 4.29925 26.7974C4.80367 27.3018 5.62152 27.3018 6.12594 26.7974L15.5478 17.3755L24.9697 26.7974C25.4741 27.3018 26.292 27.3018 26.7964 26.7974C27.3008 26.2929 27.3008 25.4751 26.7964 24.9707L17.3745 15.5488L26.7964 6.12689C27.3008 5.62247 27.3008 4.80462 26.7964 4.3002Z" fill="white"/>
</svg>
