<svg width="38" height="38" viewBox="0 0 38 38" fill="none" xmlns="http://www.w3.org/2000/svg">
<path d="M19.3652 9.31934C22.5778 5.98153 25.9865 5.6575 28.5391 6.82422C31.1547 8.01983 33.0615 10.858 33.0615 14.2324C33.0614 17.6687 31.6531 20.3149 29.6484 22.5723C27.6095 24.8682 25.0373 26.68 22.71 28.5146C21.9006 29.1527 21.169 29.721 20.4609 30.1348C19.7525 30.5487 19.1624 30.7499 18.6455 30.75C18.1286 30.75 17.5385 30.5487 16.8301 30.1348C16.1219 29.7209 15.3896 29.1528 14.5801 28.5146C12.2528 26.68 9.68057 24.8682 7.6416 22.5723C5.63697 20.315 4.22861 17.6686 4.22852 14.2324C4.22852 10.8581 6.13539 8.01986 8.75098 6.82422C11.3036 5.65742 14.7121 5.98146 17.9248 9.31934L18.6455 10.0684L19.3652 9.31934Z" stroke="url(#paint0_linear_255_1049)" stroke-width="2"/>
<defs>
<linearGradient id="paint0_linear_255_1049" x1="3.22852" y1="18.4799" x2="34.0618" y2="18.4799" gradientUnits="userSpaceOnUse">
<stop stop-color="#905E26"/>
<stop offset="0.258244" stop-color="#F5EC9B"/>
<stop offset="1" stop-color="#905E26"/>
</linearGradient>
</defs>
</svg>
