<svg width="33" height="33" viewBox="0 0 33 33" fill="none" xmlns="http://www.w3.org/2000/svg">
<g clip-path="url(#clip0_129_2676)">
<path d="M28.05 0H4.95C2.21619 0 0 2.21619 0 4.95V28.05C0 30.7838 2.21619 33 4.95 33H28.05C30.7838 33 33 30.7838 33 28.05V4.95C33 2.21619 30.7838 0 28.05 0Z" fill="white"/>
<path d="M24.2988 11.9109L11.6467 25.7168H7.00604C6.68377 25.7168 6.42596 25.3945 6.49041 25.0723L9.58416 5.47852C9.64861 5.02734 10.0353 4.70508 10.4865 4.70508H18.3498C23.7638 4.89844 25.2463 7.66992 24.2795 11.9238L24.2988 11.9109Z" fill="#002C8A"/>
<path d="M24.506 10.6348C26.4396 11.666 26.8908 13.5996 26.2463 16.1777C25.4084 19.9805 22.8947 21.5918 19.2209 21.6562L18.1896 21.7207C17.8029 21.7207 17.5451 21.9785 17.4806 22.3652L16.6428 27.457C16.5783 27.9082 16.1916 28.2305 15.7404 28.2305H11.8732C11.551 28.2305 11.2931 27.9082 11.3576 27.5859L12.7756 18.3691C12.84 18.0469 24.506 10.6348 24.506 10.6348Z" fill="#009BE1"/>
<path d="M12.6973 18.8203L13.9863 10.6348C14.0286 10.4409 14.1336 10.2664 14.2851 10.1382C14.4365 10.0101 14.626 9.9354 14.8242 9.92578H21.0117C22.4941 9.92578 23.5898 10.1836 24.4922 10.6348C24.1699 13.4707 22.8164 18.0469 16.2422 18.1758H13.4062C13.084 18.1758 12.7617 18.4336 12.6973 18.8203Z" fill="#001F6B"/>
</g>
<defs>
<clipPath id="clip0_129_2676">
<rect width="33" height="33" fill="white"/>
</clipPath>
</defs>
</svg>
