<svg width="33" height="33" viewBox="0 0 33 33" fill="none" xmlns="http://www.w3.org/2000/svg">
<path fill-rule="evenodd" clip-rule="evenodd" d="M14.0256 19.4352H13.4169C12.4083 19.4352 11.5908 20.2526 11.5908 21.2613C11.5908 22.2699 12.4083 23.0873 13.4169 23.0873H15.8517C16.1877 23.0873 16.4604 23.36 16.4604 23.696C16.4604 24.032 16.1877 24.3047 15.8517 24.3047H13.4169C13.0809 24.3047 12.8082 24.032 12.8082 23.696C12.8082 23.36 12.5355 23.0873 12.1995 23.0873C11.8635 23.0873 11.5908 23.36 11.5908 23.696C11.5908 24.7046 12.4083 25.5221 13.4169 25.5221H14.0256V26.1308C14.0256 26.4668 14.2983 26.7395 14.6343 26.7395C14.9703 26.7395 15.243 26.4668 15.243 26.1308V25.5221H15.8517C16.8603 25.5221 17.6778 24.7046 17.6778 23.696C17.6778 22.6874 16.8603 21.8699 15.8517 21.8699H13.4169C13.0809 21.8699 12.8082 21.5973 12.8082 21.2613C12.8082 20.9253 13.0809 20.6526 13.4169 20.6526H15.8517C16.1877 20.6526 16.4604 20.9253 16.4604 21.2613C16.4604 21.5973 16.7331 21.8699 17.0691 21.8699C17.4051 21.8699 17.6778 21.5973 17.6778 21.2613C17.6778 20.2526 16.8603 19.4352 15.8517 19.4352H15.243V18.8265C15.243 18.4905 14.9703 18.2178 14.6343 18.2178C14.2983 18.2178 14.0256 18.4905 14.0256 18.8265V19.4352Z" fill="url(#paint0_linear_285_2795)"/>
<path d="M14.6338 2.24219C17.74 2.24221 20.2617 4.76487 20.2617 7.87109C20.2617 8.50933 20.1536 9.12214 19.957 9.69434C20.6509 10.0938 21.3192 10.4796 21.8223 10.7695C22.0866 10.9219 22.3054 11.0478 22.458 11.1357C22.5343 11.1797 22.5941 11.2148 22.6348 11.2383C22.6551 11.25 22.6712 11.2586 22.6816 11.2646C22.6868 11.2676 22.6907 11.27 22.6934 11.2715C22.6946 11.2722 22.6956 11.2731 22.6963 11.2734H22.6973C23.4311 11.6969 23.9665 12.3947 24.1855 13.2129L27.3359 24.9717C27.7926 26.6757 26.7815 28.4262 25.0781 28.8828L21.4941 29.8428C20.948 30.2796 20.2564 30.543 19.5029 30.543H9.76465C8.0012 30.543 6.57031 29.1121 6.57031 27.3486V15.1748C6.57041 14.328 6.90754 13.516 7.50586 12.917L9.75293 10.6689C9.27872 9.84443 9.0059 8.88949 9.00586 7.87109C9.00586 4.76486 11.5276 2.24219 14.6338 2.24219ZM15.8184 9.12012C15.1643 8.46591 14.1033 8.46594 13.4492 9.12012V9.12109L11.7598 10.8076C12.5012 11.5335 13.5151 11.9814 14.6338 11.9814C15.0526 11.9815 15.3925 12.3215 15.3926 12.7402C15.3926 13.1591 15.0526 13.499 14.6338 13.499C13.097 13.499 11.7036 12.8808 10.6875 11.8809L8.5791 13.9902C8.26473 14.304 8.08799 14.7302 8.08789 15.1748V27.3486C8.08789 28.2744 8.83888 29.0254 9.76465 29.0254H19.5029C20.4287 29.0254 21.1797 28.2744 21.1797 27.3486V15.1748C21.1796 14.7858 21.0441 14.4111 20.7998 14.1133L20.6885 13.9902L15.8184 9.12109V9.12012ZM21.7617 12.917L21.8711 13.0312C22.4011 13.6171 22.6972 14.3809 22.6973 15.1748V27.3486C22.6973 27.5595 22.6749 27.7661 22.6357 27.9658L24.6855 27.417C25.5798 27.1772 26.1102 26.2581 25.8711 25.3643L22.7197 13.6055C22.6047 13.1764 22.3235 12.8103 21.9385 12.5879L20.7412 11.8965L21.7617 12.917ZM14.6338 3.75977C12.3652 3.75977 10.5225 5.60255 10.5225 7.87109C10.5225 8.4666 10.6498 9.03221 10.8779 9.54297L12.375 8.04688C13.4929 6.92958 15.2317 6.81475 16.4785 7.69922C16.5094 7.7158 16.582 7.75643 16.6787 7.81152C16.8006 7.881 16.9729 7.97896 17.1816 8.09863C17.5604 8.31584 18.0612 8.60335 18.6064 8.91699C18.6943 8.58284 18.7441 8.23293 18.7441 7.87109C18.7441 5.60256 16.9023 3.75979 14.6338 3.75977Z" fill="url(#paint1_linear_285_2795)" stroke="url(#paint2_linear_285_2795)" stroke-width="0.3"/>
<defs>
<linearGradient id="paint0_linear_285_2795" x1="11.5908" y1="22.4786" x2="17.6778" y2="22.4786" gradientUnits="userSpaceOnUse">
<stop stop-color="#905E26"/>
<stop offset="0.258244" stop-color="#F5EC9B"/>
<stop offset="1" stop-color="#905E26"/>
</linearGradient>
<linearGradient id="paint1_linear_285_2795" x1="6.7207" y1="16.3926" x2="27.2957" y2="16.3926" gradientUnits="userSpaceOnUse">
<stop stop-color="#905E26"/>
<stop offset="0.258244" stop-color="#F5EC9B"/>
<stop offset="1" stop-color="#905E26"/>
</linearGradient>
<linearGradient id="paint2_linear_285_2795" x1="6.7207" y1="16.3926" x2="27.2957" y2="16.3926" gradientUnits="userSpaceOnUse">
<stop stop-color="#905E26"/>
<stop offset="0.258244" stop-color="#F5EC9B"/>
<stop offset="1" stop-color="#905E26"/>
</linearGradient>
</defs>
</svg>
