<svg width="32" height="32" viewBox="0 0 32 32" fill="none" xmlns="http://www.w3.org/2000/svg">
<path d="M16.0137 3.19629C17.1296 3.19629 18.2498 3.62838 19.1006 4.48926L26.9854 12.4619L27.1279 12.6123C27.823 13.3782 28.2632 14.3564 28.2637 15.4004V25.2822L28.2578 25.5078C28.1422 27.8295 26.2369 29.6963 23.8984 29.6963H19.085C18.8466 29.6963 18.6177 29.6013 18.4492 29.4326C18.2808 29.2638 18.1856 29.0344 18.1855 28.7959V22.0791H13.8418V28.7959C13.8418 29.0344 13.7466 29.2638 13.5781 29.4326C13.4306 29.5803 13.2371 29.671 13.0312 29.6914L12.9424 29.6963H8.12891C5.71523 29.6963 3.76195 27.7077 3.76367 25.2822L3.77344 15.4004C3.77427 14.2945 4.261 13.2522 5.04199 12.4619L12.9268 4.48926L13.0898 4.33301C13.918 3.57621 14.9675 3.19629 16.0137 3.19629ZM16.0137 4.99609C15.4387 4.99609 14.8736 5.18425 14.4014 5.5752L14.2051 5.75488L6.31934 13.7266C5.82928 14.2225 5.57172 14.8292 5.57129 15.4004C5.57131 15.4043 5.57132 15.4082 5.57129 15.4121L5.56055 25.2822C5.55945 26.7448 6.70141 27.8965 8.12891 27.8965H12.0439V21.1787C12.0441 20.9405 12.1384 20.7117 12.3066 20.543C12.475 20.3742 12.704 20.2794 12.9424 20.2793H19.085C19.3233 20.2794 19.5523 20.3742 19.7207 20.543C19.8889 20.7117 19.9833 20.9405 19.9834 21.1787V27.8965H23.8984C25.3259 27.8965 26.4675 26.7451 26.4668 25.2822V15.4004C26.4665 14.8371 26.2013 14.2277 25.707 13.7275V13.7266L17.8223 5.75488C17.315 5.24154 16.6707 4.99609 16.0137 4.99609Z" fill="url(#paint0_linear_285_2782)" stroke="url(#paint1_linear_285_2782)" stroke-width="0.5"/>
<defs>
<linearGradient id="paint0_linear_285_2782" x1="4.01367" y1="16.4463" x2="28.0137" y2="16.4463" gradientUnits="userSpaceOnUse">
<stop stop-color="#905E26"/>
<stop offset="0.258244" stop-color="#F5EC9B"/>
<stop offset="1" stop-color="#905E26"/>
</linearGradient>
<linearGradient id="paint1_linear_285_2782" x1="4.01367" y1="16.4463" x2="28.0137" y2="16.4463" gradientUnits="userSpaceOnUse">
<stop stop-color="#905E26"/>
<stop offset="0.258244" stop-color="#F5EC9B"/>
<stop offset="1" stop-color="#905E26"/>
</linearGradient>
</defs>
</svg>
