<svg width="14" height="14" viewBox="0 0 14 14" fill="none" xmlns="http://www.w3.org/2000/svg">
<path d="M12.5181 5.70251L8.15781 1.34139C7.85135 1.03262 7.43467 0.859375 6.99999 0.859375C6.5653 0.859375 6.14862 1.0326 5.84216 1.34139L1.48192 5.70251C1.17321 6.00903 1 6.42579 1 6.86057C1 7.29534 1.17319 7.7121 1.48192 8.01863L5.84273 12.3803L5.84217 12.3798C6.48153 13.0192 7.51852 13.0192 8.15783 12.3798L12.5186 8.01806L12.5181 8.01863C12.8268 7.7121 13 7.29534 13 6.86057C13 6.42579 12.8268 6.00903 12.5181 5.70251ZM9.78911 8.82234C9.55743 8.82234 9.36905 8.63449 9.36905 8.4022C9.36905 7.70647 8.80503 7.14234 8.10945 7.14234H5.20055L5.89614 7.83807V7.83863C5.97824 7.91681 6.02491 8.02481 6.02491 8.13841C6.02491 8.25201 5.97824 8.36001 5.89614 8.43818C5.81798 8.5203 5.71001 8.56698 5.59643 8.56698C5.48285 8.56698 5.37487 8.5203 5.29671 8.43818L3.91115 7.02254C3.87123 6.97473 3.84086 6.91961 3.82118 6.86055C3.7582 6.7042 3.79363 6.52535 3.91115 6.40441L5.32034 5.01857C5.48622 4.85322 5.75445 4.85322 5.92034 5.01857C6.08622 5.18448 6.08622 5.45277 5.92034 5.6187L5.20057 6.30262H8.08585C8.64255 6.30262 9.17619 6.52366 9.57031 6.91736C9.96394 7.31163 10.1849 7.84537 10.1849 8.40211C10.1855 8.6254 10.0118 8.8094 9.78911 8.82234Z" fill="black"/>
</svg>
