<svg width="26" height="26" viewBox="0 0 26 26" fill="none" xmlns="http://www.w3.org/2000/svg">
  <path d="M13.3601 6.30566C15.6695 3.90624 18.1551 3.64862 20.0369 4.50879C21.9501 5.38336 23.3337 7.45143 23.3337 9.89844C23.3337 12.3765 22.3149 14.2818 20.8835 15.8936C19.4352 17.5245 17.6055 18.814 15.9822 20.0938C15.4152 20.5407 14.8895 20.949 14.3777 21.248C13.8657 21.5472 13.4145 21.708 12.9998 21.708C12.5851 21.7079 12.1337 21.5472 11.6218 21.248C11.1101 20.949 10.5852 20.5406 10.0183 20.0938C8.39491 18.814 6.5644 17.5245 5.11597 15.8936C3.68479 14.2819 2.66675 12.3763 2.66675 9.89844C2.66676 7.45142 4.05034 5.38336 5.96362 4.50879C7.84531 3.6488 10.3301 3.90656 12.6394 6.30566L12.9998 6.67969L13.3601 6.30566Z" stroke="url(#paint0_linear_292_5954)" fill="url(#paint0_linear_292_5954)"/>
  <defs>
    <linearGradient id="paint0_linear_292_5954" x1="4.38086" y1="6.45251" x2="25.5523" y2="16.3069" gradientUnits="userSpaceOnUse">
      <stop stop-color="#004236"/>
      <stop offset="1" stop-color="#007E67"/>
    </linearGradient>
  </defs>
</svg>
