<svg width="22" height="24" viewBox="0 0 22 24" fill="none" xmlns="http://www.w3.org/2000/svg">
<path fill-rule="evenodd" clip-rule="evenodd" d="M3.58862 15.205H3.70599L3.59608 16.0429C3.57933 16.1661 3.58306 16.2618 3.60538 16.3234C3.62776 16.3849 3.66868 16.4157 3.73014 16.4157C3.78971 16.4157 3.83998 16.3849 3.87913 16.3234C3.91821 16.2617 3.94432 16.166 3.96108 16.0429L4.07092 15.205H4.19012L4.07838 16.0634C4.05416 16.2481 4.01135 16.3884 3.94805 16.4807C3.88659 16.5731 3.80463 16.621 3.70409 16.621C3.60355 16.621 3.53462 16.5765 3.49737 16.4841C3.46013 16.3918 3.45267 16.2516 3.47688 16.0669L3.58862 15.2051V15.205ZM17.7222 16.5833L17.9009 15.205H18.3087L18.2845 15.3965H17.9959L17.9512 15.7419H18.2398L18.2137 15.9369H17.9251L17.8674 16.3813H18.1561L18.13 16.5832H17.7222V16.5833ZM17.711 15.5401C17.6849 15.4856 17.6533 15.4444 17.6198 15.4204C17.5862 15.3931 17.549 15.3794 17.5061 15.3794C17.4261 15.3794 17.3553 15.4273 17.292 15.5231C17.2287 15.6189 17.1877 15.7455 17.1672 15.8992C17.1486 16.0464 17.1561 16.1695 17.1934 16.2687C17.2287 16.3644 17.2845 16.4123 17.359 16.4123C17.4018 16.4123 17.4447 16.3986 17.4875 16.3678C17.5303 16.3405 17.5732 16.296 17.6179 16.2379L17.5843 16.4909C17.5471 16.5353 17.508 16.5662 17.467 16.5868C17.426 16.6072 17.385 16.6175 17.3404 16.6175C17.2845 16.6175 17.2342 16.6003 17.1914 16.5661C17.1485 16.5319 17.1132 16.4806 17.0852 16.4123C17.0573 16.3473 17.0406 16.2687 17.0331 16.1798C17.0257 16.0909 17.0276 15.9952 17.0425 15.8925C17.0555 15.79 17.0778 15.6974 17.1077 15.6085C17.1375 15.5196 17.1765 15.441 17.2212 15.376C17.2659 15.3076 17.3143 15.2564 17.3665 15.2222C17.4186 15.188 17.4707 15.1709 17.5248 15.1709C17.5676 15.1709 17.6067 15.1812 17.644 15.2051C17.6793 15.2291 17.7128 15.2632 17.7426 15.3111L17.711 15.5401ZM16.5527 16.0395H16.7556L16.7221 15.7248C16.7203 15.7044 16.7184 15.6803 16.7184 15.6564C16.7165 15.6291 16.7165 15.6017 16.7165 15.5709C16.709 15.6017 16.7016 15.629 16.6923 15.6564C16.6848 15.6837 16.6774 15.7077 16.67 15.7283L16.5527 16.0395H16.5527ZM16.8115 16.5833L16.7743 16.2277H16.4838L16.3534 16.5833H16.2287L16.7687 15.1504L16.9362 16.5833H16.8115ZM15.8284 16.5833L16.0071 15.205H16.4149L16.3907 15.3965H16.102L16.0574 15.7385H16.3459L16.3199 15.9335H16.0313L15.9475 16.5798H15.8283V16.5833H15.8284ZM15.4764 15.7898H15.4987C15.562 15.7898 15.6049 15.7761 15.6291 15.7487C15.6533 15.7213 15.6701 15.6735 15.6794 15.6016C15.6886 15.5263 15.6849 15.4716 15.6663 15.4408C15.6478 15.4101 15.6086 15.3929 15.549 15.3929H15.5266L15.4763 15.7897L15.4764 15.7898ZM15.4466 15.9643L15.3665 16.5798H15.2548L15.4336 15.2016H15.5993C15.6478 15.2016 15.6849 15.2085 15.7092 15.2188C15.7352 15.2291 15.7557 15.2496 15.7706 15.2769C15.7892 15.3111 15.8003 15.3521 15.8059 15.4068C15.8115 15.4583 15.8096 15.5163 15.8022 15.5813C15.7873 15.6908 15.763 15.7797 15.7259 15.8412C15.6886 15.9027 15.642 15.9403 15.5862 15.954L15.7556 16.5797H15.6215L15.4595 15.9642H15.4465L15.4466 15.9643ZM14.7111 16.5833L14.8899 15.205H15.2995L15.2754 15.3965H14.9867L14.9421 15.7419H15.2307L15.2047 15.9369H14.916L14.8583 16.3813H15.1469L15.1208 16.5832H14.7111L14.7111 16.5833ZM14.5826 15.3931L14.4281 16.5798H14.3089L14.4635 15.3931H14.2698L14.294 15.2016H14.8005L14.7764 15.3931H14.5827H14.5826ZM13.3704 16.5833L13.5566 15.1504L13.9104 15.9917C13.9198 16.0156 13.929 16.0396 13.9383 16.0669C13.9476 16.0942 13.957 16.1251 13.9681 16.1591L14.0929 15.205H14.2028L14.0165 16.6346L13.6553 15.7761C13.646 15.7522 13.6366 15.7283 13.6274 15.7042C13.6181 15.677 13.6106 15.6529 13.605 15.6221L13.4803 16.5797H13.3705V16.5832L13.3704 16.5833ZM13.0799 16.5833L13.2587 15.205H13.3778L13.199 16.5833H13.0799ZM12.2028 16.3063L12.3089 16.2242C12.3108 16.2857 12.3201 16.3336 12.3406 16.3644C12.3611 16.3951 12.389 16.4123 12.4262 16.4123C12.4616 16.4123 12.4914 16.3951 12.5175 16.3576C12.5435 16.32 12.5603 16.2721 12.5677 16.2106C12.5789 16.1285 12.5529 16.0566 12.4896 15.9952C12.4803 15.9848 12.4747 15.978 12.469 15.9746C12.3983 15.8993 12.3536 15.8344 12.335 15.7729C12.3164 15.7113 12.3126 15.6394 12.3238 15.5541C12.3387 15.4412 12.3704 15.3522 12.4206 15.2805C12.4709 15.2121 12.5268 15.1744 12.5939 15.1744C12.6479 15.1744 12.6906 15.195 12.7223 15.2325C12.754 15.2702 12.7707 15.3283 12.7763 15.4002L12.6721 15.4892C12.6627 15.4447 12.6515 15.4139 12.6367 15.3933C12.6218 15.3729 12.6032 15.3626 12.5808 15.3626C12.5491 15.3626 12.5212 15.3796 12.4989 15.4104C12.4765 15.4412 12.4616 15.4823 12.4542 15.537C12.443 15.6191 12.4747 15.6976 12.5473 15.7695C12.5529 15.7764 12.5566 15.7798 12.5603 15.7831C12.6236 15.8447 12.6665 15.9063 12.685 15.9679C12.7037 16.0293 12.7074 16.1012 12.6963 16.1935C12.6795 16.3235 12.6441 16.426 12.5901 16.5048C12.5361 16.5799 12.4728 16.6211 12.3983 16.6211C12.3369 16.6211 12.2884 16.5936 12.2549 16.5389C12.2177 16.4842 12.2009 16.4055 12.2028 16.3064V16.3063ZM12.0781 15.3931L11.9235 16.5798H11.8044L11.9589 15.3931H11.7653L11.7894 15.2016H12.2959L12.2717 15.3931H12.0781ZM10.8658 16.5833L11.052 15.1504L11.4059 15.9917C11.4152 16.0156 11.4245 16.0396 11.4338 16.0669C11.443 16.0942 11.4524 16.1251 11.4636 16.1591L11.5884 15.205H11.6982L11.512 16.6346L11.1508 15.7761C11.1414 15.7522 11.1322 15.7283 11.1228 15.7042C11.1135 15.677 11.1061 15.6529 11.1005 15.6221L10.9757 16.5797H10.8659V16.5832L10.8658 16.5833ZM10.3221 16.5833L10.5008 15.205H10.9086L10.8844 15.3965H10.5958L10.5511 15.7419H10.8397L10.8137 15.9369H10.5251L10.4673 16.3813H10.756L10.7299 16.5832H10.3221V16.5833ZM10.1247 15.9027C10.1247 15.8925 10.1265 15.8616 10.1303 15.8138C10.1322 15.7728 10.134 15.742 10.1359 15.7146C10.1284 15.7455 10.121 15.7761 10.1117 15.8103C10.1024 15.8412 10.0912 15.8753 10.0782 15.9061L9.79139 16.6413L9.69831 15.8925C9.69458 15.8617 9.69085 15.8309 9.68895 15.8035C9.68712 15.7762 9.68522 15.7455 9.68522 15.7181C9.68149 15.7455 9.67592 15.7761 9.67036 15.8103C9.66473 15.8412 9.65733 15.8753 9.64797 15.9096L9.4804 16.5868H9.37056L9.72993 15.1504L9.83237 16.019C9.8342 16.0327 9.8361 16.0566 9.838 16.0874C9.83983 16.1183 9.84356 16.1593 9.84729 16.2071C9.86032 16.1661 9.87708 16.1183 9.89946 16.0566C9.90503 16.0396 9.91059 16.0293 9.91249 16.019L10.2365 15.1504L10.2253 16.5868H10.1155L10.1248 15.9027H10.1247ZM8.9907 16.5833L9.07266 15.954L8.92368 15.2085H9.04838L9.14146 15.6771C9.14335 15.6907 9.14519 15.7044 9.14892 15.7248C9.15265 15.7455 9.15455 15.7659 9.15822 15.7863C9.16568 15.7659 9.17314 15.7454 9.1806 15.7248C9.18806 15.7044 9.19552 15.6872 9.20292 15.6701L9.42083 15.2085H9.53997L9.19179 15.9506L9.10984 16.5797H8.99064V16.5832L8.9907 16.5833ZM8.43765 16.0395H8.64057L8.60705 15.7248C8.60516 15.7044 8.60332 15.6803 8.60332 15.6564C8.60143 15.6291 8.60143 15.6017 8.60143 15.5709C8.59397 15.6017 8.5865 15.629 8.57721 15.6564C8.56975 15.6837 8.56235 15.7077 8.55482 15.7283L8.43752 16.0395H8.43765ZM8.69457 16.5833L8.65733 16.2277H8.36682L8.23649 16.5833H8.11173L8.65176 15.1504L8.81934 16.5833H8.69457ZM7.94789 15.7796H7.97767C8.04287 15.7796 8.08941 15.7659 8.11546 15.7385C8.14151 15.7112 8.15827 15.6634 8.16763 15.5948C8.17686 15.5231 8.1713 15.4684 8.15271 15.4411C8.13222 15.4103 8.09124 15.3966 8.02984 15.3966H8.00006L7.94789 15.7797V15.7796ZM7.91621 15.9643L7.83615 16.5833H7.72441L7.90318 15.205H8.08378C8.13778 15.205 8.17503 15.2118 8.19925 15.222C8.22347 15.2323 8.24212 15.2495 8.25698 15.2767C8.27557 15.3075 8.2886 15.352 8.29423 15.4067C8.29979 15.4615 8.29796 15.5196 8.2905 15.5845C8.2812 15.6495 8.26818 15.7111 8.24769 15.7658C8.2272 15.8205 8.20298 15.865 8.17693 15.8957C8.1546 15.9197 8.13039 15.9401 8.10433 15.9504C8.07828 15.9607 8.0373 15.9676 7.98513 15.9676H7.91627V15.9642L7.91621 15.9643ZM6.80453 16.3781H6.90507C6.95907 16.3781 7.00188 16.3712 7.03173 16.3576C7.06152 16.344 7.08757 16.32 7.11179 16.2892C7.1453 16.2447 7.17325 16.19 7.19558 16.1216C7.21796 16.0566 7.23472 15.978 7.24585 15.8891C7.25698 15.8002 7.26071 15.7249 7.25514 15.6601C7.24958 15.595 7.23655 15.5369 7.21417 15.4924C7.19741 15.4583 7.17692 15.4377 7.14903 15.424C7.12108 15.4103 7.07827 15.4036 7.01681 15.4036H6.93119L6.80453 16.3782V16.3781ZM6.65927 16.5833L6.8381 15.205H6.99822C7.10249 15.205 7.17515 15.2152 7.21417 15.2358C7.25331 15.2563 7.28676 15.2871 7.31288 15.3349C7.34639 15.3965 7.36878 15.4752 7.37807 15.5674C7.38737 15.6632 7.38364 15.7726 7.36878 15.8924C7.35196 16.0155 7.3278 16.1214 7.29429 16.2171C7.26077 16.3129 7.21796 16.3882 7.16769 16.4497C7.13044 16.4977 7.08947 16.5285 7.04476 16.5489C7.00195 16.5695 6.93675 16.5797 6.85107 16.5797H6.65927V16.5832V16.5833ZM6.11368 16.5833L6.29245 15.205H6.70025L6.67603 15.3965H6.38736L6.34265 15.7419H6.63132L6.60527 15.9369H6.3166L6.25887 16.3813H6.54754L6.52148 16.5832H6.11368V16.5833ZM5.82501 16.5833L6.00378 15.205H6.12291L5.94414 16.5833H5.82495H5.82501ZM5.28498 16.5833L5.46374 15.205H5.87155L5.84733 15.3965H5.55872L5.51402 15.7385H5.80262L5.77657 15.9335H5.4879L5.40411 16.5798H5.28491V16.5833H5.28498ZM4.99631 16.5833L5.17507 15.205H5.29421L5.11544 16.5833H4.99624H4.99631ZM4.1733 16.5833L4.35946 15.1504L4.71327 15.9917C4.72256 16.0156 4.73186 16.0396 4.74122 16.0669C4.75051 16.0942 4.75981 16.1251 4.771 16.1591L4.89576 15.205H5.0056L4.81944 16.6346L4.45817 15.7761C4.44888 15.7522 4.43958 15.7283 4.43022 15.7042C4.42093 15.677 4.41347 15.6529 4.4079 15.6221L4.28314 16.5797H4.1733V16.5832V16.5833Z" fill="#3A3734"/>
<path fill-rule="evenodd" clip-rule="evenodd" d="M15.554 14.0043H14.7364L15.8725 6.47168H16.6901L15.554 14.0043ZM8.75978 13.5324C8.71506 13.8299 8.56605 14.0384 8.39845 14.0384H4.18372C4.06823 14.0384 3.98259 13.9665 3.92668 13.823C3.87084 13.6793 3.85781 13.5015 3.89133 13.2896L4.91941 6.49223H5.73707L4.81885 12.5647H8.08936L9.00751 6.49223H9.82517L8.75984 13.5324H8.75978ZM15.1294 6.70762C15.0735 6.56399 14.9859 6.49223 14.8668 6.49223H10.3745L10.1529 7.9693H14.2392L14.0008 9.54565H10.7322V9.54216H9.91461L9.23666 14.0385H10.0543L10.5087 11.0227H14.1833C14.2988 11.0227 14.4069 10.9508 14.5074 10.8073C14.608 10.6637 14.6751 10.4859 14.7067 10.2739L15.1611 7.25823C15.1965 7.03262 15.1854 6.85137 15.1295 6.70774L15.1294 6.70762Z" fill="#716D6A"/>
<path fill-rule="evenodd" clip-rule="evenodd" d="M18.1006 6.48535L19.1341 10.2602L16.9609 14.035L17.2194 12.3227L18.4079 10.2602L17.8425 8.19511L18.1006 6.48535Z" fill="#0E8635"/>
<path fill-rule="evenodd" clip-rule="evenodd" d="M17.376 6.48535L18.4095 10.2602L16.2344 14.035L17.376 6.48535Z" fill="#E97208"/>
<path d="M2.73935 0H19.8519C20.3977 0 20.8937 0.409727 21.253 1.06961C21.6124 1.72961 21.8355 2.64047 21.8355 3.64272V19.4691C21.8355 20.4713 21.6123 21.3821 21.253 22.0421C20.8936 22.702 20.3976 23.1119 19.852 23.1119H2.73941C2.19372 23.1119 1.69768 22.7021 1.33829 22.0421C0.978967 21.3822 0.755859 20.4715 0.755859 19.4691V3.64272C0.755859 2.64035 0.978967 1.7295 1.33829 1.06961C1.69761 0.409727 2.19366 0 2.73948 0H2.73935ZM19.8519 1.25554H2.73935C2.38224 1.25554 2.05732 1.5244 1.82156 1.95735C1.58581 2.39031 1.43941 2.98701 1.43941 3.64283V19.4692C1.43941 20.125 1.58581 20.7217 1.82156 21.1546C2.05738 21.5877 2.3823 21.8565 2.73935 21.8565H19.8519C20.2089 21.8565 20.5338 21.5877 20.7696 21.1546C21.0054 20.7215 21.1518 20.1248 21.1518 19.4694V3.64295C21.1518 2.98736 21.0054 2.39054 20.7697 1.95747C20.5339 1.52452 20.2089 1.25566 19.8519 1.25566V1.25554Z" fill="#808080"/>
</svg>
