<svg width="37" height="37" viewBox="0 0 37 37" fill="none" xmlns="http://www.w3.org/2000/svg">
<g clip-path="url(#clip0_1_3015)">
<path d="M11.1494 7.11633C18.2291 7.11633 24.421 11 27.7188 16.754C29.641 15.4175 31.9446 14.6887 34.293 14.6886C34.5203 14.6886 34.7352 14.7933 34.875 14.9728C35.0147 15.1523 35.0637 15.3862 35.0078 15.6066L33.7031 20.754C34.4973 20.3823 35.3681 20.1847 36.2627 20.1847C36.49 20.1847 36.705 20.2894 36.8447 20.4689C36.9842 20.6484 37.0335 20.8823 36.9775 21.1027L35.8477 25.5597C36.1516 25.6506 36.373 25.9322 36.373 26.2657V29.1466C36.373 29.5534 36.0435 29.8837 35.6367 29.8839H1.36328C0.956403 29.8838 0.626014 29.5535 0.625977 29.1466V24.5031C0.626013 24.0962 0.956402 23.7659 1.36328 23.7657H2.09082L0.0224609 15.6066C-0.0333939 15.3862 0.0156207 15.1524 0.155273 14.9728C0.295035 14.7933 0.509957 14.6886 0.737305 14.6886C3.20399 14.6886 5.51701 15.4737 7.41602 16.8253L7.10645 15.6075C7.05029 15.3871 7.09866 15.1524 7.23828 14.9728C7.37783 14.7932 7.59294 14.6887 7.82031 14.6886C10.2327 14.6886 12.5244 15.4243 14.4521 16.7902C13.3533 12.6034 10.5609 8.30097 10.5322 8.25696C10.3842 8.03061 10.3724 7.74094 10.501 7.50305C10.6297 7.2651 10.8788 7.11635 11.1494 7.11633ZM2.10059 28.4093H34.8994V27.0031H15.7725C15.6394 27.003 15.5087 26.9668 15.3945 26.8986L12.6211 25.2404H2.10059V28.4093ZM12.4941 8.64172C13.4742 10.3227 15.1794 13.5354 15.958 16.7296C16.9199 20.6764 16.7879 24.0174 16.6475 25.5284H28.7568C28.3887 16.5722 21.3435 9.31483 12.4941 8.64172ZM33.334 16.2091C31.5614 16.3809 29.8542 17.0263 28.4072 18.0734C29.4858 20.3489 30.1296 22.8702 30.2305 25.5284H30.9717L33.334 16.2091ZM35.2891 21.7628C34.503 21.9338 33.7715 22.3112 33.167 22.8663L32.4922 25.5284H34.335L35.2891 21.7628ZM9.38965 18.6027C10.6564 20.0382 11.5781 21.7988 12.0107 23.7657H12.8242C12.9574 23.7657 13.0888 23.8019 13.2031 23.8702L15.2031 25.0665C15.2927 23.8467 15.3433 21.692 14.9355 19.1222C13.2604 17.4415 11.1077 16.4261 8.78027 16.2072L9.38965 18.6027ZM3.61133 23.7657H10.4971C9.44832 19.634 5.90654 16.6103 1.69531 16.2081L3.61133 23.7657ZM17.7715 11.545C17.958 11.1834 18.402 11.0413 18.7637 11.2277C21.2801 12.5245 23.4637 14.4468 25.0771 16.7872C25.3081 17.1222 25.2235 17.5815 24.8887 17.8126C24.761 17.9007 24.6149 17.9435 24.4707 17.9435C24.2365 17.9435 24.0063 17.8315 23.8633 17.6241C22.3871 15.4829 20.3904 13.7244 18.0889 12.5382C17.727 12.3518 17.585 11.9069 17.7715 11.545ZM14.8018 10.5138C14.9155 10.1229 15.3253 9.89854 15.7158 10.0118C15.9603 10.083 16.2072 10.1609 16.4492 10.2433C16.8345 10.3745 17.0402 10.7935 16.9092 11.1788C16.8046 11.4852 16.5185 11.6787 16.2119 11.6788C16.1331 11.6788 16.0523 11.6655 15.9736 11.6388C15.7525 11.5636 15.5269 11.4927 15.3037 11.4279C14.9129 11.3141 14.6881 10.9046 14.8018 10.5138Z" fill="url(#paint0_linear_1_3015)"/>
</g>
<defs>
<linearGradient id="paint0_linear_1_3015" x1="0" y1="18.5001" x2="37.0003" y2="18.5001" gradientUnits="userSpaceOnUse">
<stop stop-color="#905E26"/>
<stop offset="0.258244" stop-color="#F5EC9B"/>
<stop offset="1" stop-color="#905E26"/>
</linearGradient>
<clipPath id="clip0_1_3015">
<rect width="37" height="37" fill="white"/>
</clipPath>
</defs>
</svg>
