<svg width="38" height="38" viewBox="0 0 38 38" fill="none" xmlns="http://www.w3.org/2000/svg">
<g clip-path="url(#clip0_1_3038)">
<path d="M13.0281 0.506218L12.8533 0.644535L12.8172 6.0945L12.7807 11.5376L11.7255 11.5593C10.7648 11.5737 10.663 11.5885 10.5102 11.7341C10.4012 11.8359 10.343 11.9742 10.343 12.1342C10.343 12.7092 10.5832 12.811 11.8786 12.811H12.8172V24.5994V36.3881H6.79914C0.424642 36.3953 0.643142 36.3809 0.461122 36.7301C0.322802 36.9847 0.359282 37.1884 0.584622 37.4141L0.795522 37.625H19.0021H37.2086L37.4195 37.4141C37.7106 37.123 37.6814 36.7373 37.3466 36.4827C37.2592 36.4098 34.6395 36.3953 25.6452 36.3881H14.0541V35.7695V35.1508H18.4857H22.9244L23.1065 34.9836C23.3975 34.7362 23.4192 34.4231 23.1866 34.1469L22.9902 33.9139H18.5221H14.0541V33.2953V32.6766L18.6821 32.6622L23.3101 32.6405L23.4846 32.4369C23.7103 32.1674 23.7103 31.8475 23.4773 31.6218L23.3025 31.4397H18.6749H14.0541V30.8211V30.2025L18.8132 30.188L23.5723 30.1664L23.7616 29.9916C24.0017 29.7658 24.0162 29.4094 23.7832 29.1476L23.616 28.9511L18.8569 28.9439L14.0906 28.9295L14.0689 28.2892L14.0469 27.6561H18.966C21.9786 27.6561 23.936 27.6268 24.0162 27.5831C24.2419 27.4668 24.351 27.11 24.2419 26.8554C24.0527 26.4044 24.2054 26.4188 18.8934 26.4188H14.0541V25.8002V25.1815H18.9949H23.936L24.1325 24.9486C24.3582 24.6868 24.3434 24.3736 24.0888 24.1263C23.9504 23.9807 23.8414 23.9807 19.0025 23.9591L14.0541 23.9446V23.326V22.7073H18.8204H23.594L23.7688 22.5253C23.9508 22.3509 24.0017 22.0522 23.9071 21.7976C23.7832 21.4777 23.7179 21.4701 18.7479 21.4701H14.0541V20.8514V20.2328H18.6456H23.2372L23.4481 20.0219C23.7247 19.7452 23.7247 19.4834 23.4481 19.2068L23.2372 18.9959H18.6456H14.0541V18.3772V17.7586H17.9909C20.6688 17.7586 21.9714 17.7369 22.0732 17.6784C22.2841 17.5694 22.4373 17.1544 22.3571 16.9291C22.1971 16.5069 22.3062 16.5217 18.0057 16.5217H14.0541V15.9031V15.2844H17.4087H20.7634L20.9743 15.0735C21.2433 14.7969 21.2581 14.4769 21.0035 14.2295L20.8291 14.0475H17.438H14.0545V13.4289V12.8102H17.6782H21.2946L21.7822 13.6253C23.412 16.3978 24.4163 19.0031 24.8966 21.7243C25.1224 22.9904 25.1877 23.9146 25.1877 25.6466C25.1877 29.0013 24.8385 32.0067 24.1982 34.2916C23.958 35.1577 23.9436 35.223 24.0527 35.4267C24.1762 35.6669 24.3 35.7322 24.6348 35.7322C24.9331 35.7322 25.1296 35.5213 25.2823 35.041C25.6753 33.7965 26.0465 31.7954 26.243 29.838C26.403 28.2736 26.4687 24.4386 26.3593 23.2454C26.061 20.0728 25.035 16.8344 23.3759 13.8366L22.8009 12.8106H23.5503H24.2997L24.6272 13.3711C26.2646 16.2166 27.2686 19.4766 27.5962 23.0205C27.7052 24.2429 27.6399 28.3253 27.4799 29.8023C27.2762 31.7669 26.9122 33.6738 26.5557 34.707C26.4102 35.1364 26.4318 35.318 26.6648 35.573C26.7666 35.6821 26.8977 35.733 27.0797 35.733C27.4434 35.733 27.611 35.5365 27.8291 34.8233C28.7825 31.7597 29.2115 25.538 28.7168 21.7976C28.3383 18.9016 27.5015 16.1801 26.2282 13.6987L25.7771 12.811H27.087C28.5496 12.811 28.7533 12.7601 28.8844 12.3744C28.979 12.1198 28.9425 11.967 28.7316 11.7341L28.5861 11.5741H25.2968H22.0003L21.6218 11.0212C19.9194 8.55424 17.2415 5.7088 14.7088 3.67884L14.0902 3.17686L14.0537 1.94717L14.0172 0.717499L13.8136 0.542698C13.5666 0.331417 13.261 0.316978 13.0281 0.506218ZM14.9273 5.50512C15.7713 6.24004 17.9765 8.47406 18.6821 9.31804C19.3878 10.162 20.3849 11.4502 20.3849 11.5156C20.3849 11.5521 18.9588 11.5737 17.2195 11.5737H14.0541V8.1826C14.0541 5.49752 14.0758 4.8063 14.1487 4.84962C14.1924 4.87926 14.5489 5.17034 14.9273 5.50512Z" fill="url(#paint0_linear_1_3038)"/>
</g>
<defs>
<linearGradient id="paint0_linear_1_3038" x1="0.379883" y1="18.9993" x2="37.6193" y2="18.9993" gradientUnits="userSpaceOnUse">
<stop stop-color="#905E26"/>
<stop offset="0.258244" stop-color="#F5EC9B"/>
<stop offset="1" stop-color="#905E26"/>
</linearGradient>
<clipPath id="clip0_1_3038">
<rect width="38" height="38" fill="white"/>
</clipPath>
</defs>
</svg>
