<svg width="28" height="28" viewBox="0 0 28 28" fill="none" xmlns="http://www.w3.org/2000/svg">
<path d="M20.5302 22.7945C20.5302 22.9941 20.4953 23.1874 20.4288 23.368C20.7013 23.2951 21.0118 23.1811 21.316 23.0036C22.387 22.3921 22.9985 21.2863 23.1347 19.7084C23.1727 19.2743 23.3692 18.8688 23.6924 18.5741C24.0155 18.2763 24.4338 18.1147 24.871 18.1147H24.8806H25.115L25.1213 17.2687C25.1245 16.8283 24.7696 16.4702 24.3292 16.4702H22.3077C21.8736 16.4702 21.5188 16.8219 21.5156 17.256L21.5061 18.6945C21.5315 20.1774 21.1196 21.1089 20.5334 21.6887L20.5302 22.7945Z" fill="url(#paint0_linear_11_492)"/>
<path d="M26.5029 19.0775L25.1151 19.068H24.8806C24.8806 19.068 24.8774 19.068 24.8743 19.068C24.4624 19.068 24.1202 19.3817 24.0854 19.7936C23.6925 24.3403 19.8871 24.4575 19.4942 24.4575C19.4721 24.4575 19.4625 24.4575 19.4625 24.4575L12.5774 24.448C12.3683 24.448 12.1972 24.277 12.1972 24.0647V23.9442C12.1972 23.7351 12.3683 23.5672 12.5774 23.5672L18.7845 23.5767C19.2186 23.5767 19.5734 23.225 19.5766 22.7878L19.5798 22.3188L19.5861 21.0261C19.5893 20.5888 19.2376 20.2308 18.7972 20.2308L15.7206 20.2117C15.4417 20.2086 15.1661 20.1357 14.9253 19.9931C14.1553 19.54 12.175 18.5293 9.76694 18.5293C8.61678 18.5293 7.36842 18.7606 6.10733 19.3911L5.03955 19.3975C5.07124 19.5274 5.08708 19.6636 5.08708 19.8062L5.09342 26.6153C5.09342 26.7388 5.08074 26.8592 5.05539 26.9764H8.49004C8.93046 26.9764 9.36771 27.0177 9.79863 27.1L11.4906 27.42C13.4075 27.7844 15.353 27.9713 17.3048 27.984L19.8839 27.9999C19.8839 27.9999 26.7659 27.6767 27.276 19.9234C27.3172 19.4672 26.9591 19.0806 26.5029 19.0775Z" fill="url(#paint1_linear_11_492)"/>
<path d="M4.03507 19.4009C3.91783 19.2045 3.72139 19.0651 3.48692 19.0239C3.44256 19.0176 3.3982 19.0112 3.35067 19.0112H3.01165H1.51295C1.0757 19.0112 0.720825 19.3661 0.720825 19.8034L0.727162 26.6124C0.727162 27.0497 1.08203 27.4045 1.51929 27.4045H3.04016H3.35701C3.41088 27.4045 3.46474 27.3982 3.51544 27.3887C3.75307 27.3412 3.95269 27.1827 4.06042 26.9705C4.11428 26.8628 4.14597 26.7392 4.14597 26.6093L4.13963 19.8002C4.14597 19.6575 4.10474 19.5182 4.03507 19.4009Z" fill="url(#paint2_linear_11_492)"/>
<path d="M19.4688 5.85537V0.950548C19.4688 0.424578 19.0443 0 18.5182 0H17.3617C16.8358 0 16.4112 0.424578 16.4112 0.950548V2.79778L14.1742 0.560823C13.8638 0.250311 13.3631 0.250311 13.0526 0.560823L5.52743 8.08599C5.1282 8.48522 5.41019 9.16645 5.97418 9.16645H6.99761C7.43486 9.16645 7.78973 9.52132 7.78973 9.95857V16.0896C7.78973 16.5269 8.1446 16.8817 8.58185 16.8817H10.2707C10.7079 16.8817 11.0628 16.5269 11.0628 16.0896V13.3647C11.0628 12.9274 11.4177 12.5726 11.8549 12.5726H15.3719C15.8092 12.5726 16.1641 12.9274 16.1641 13.3647V16.0928C16.1641 16.5301 16.5189 16.8849 16.9562 16.8849H18.645C19.0822 16.8849 19.4371 16.5301 19.4371 16.0928V9.96174C19.4371 9.52449 19.792 9.16962 20.2292 9.16962H21.2527C21.8167 9.16962 22.0986 8.48839 21.6994 8.08916L19.4688 5.85537Z" fill="url(#paint3_linear_11_492)"/>
<defs>
<linearGradient id="paint0_linear_11_492" x1="20.9084" y1="17.5406" x2="26.1013" y2="18.9559" gradientUnits="userSpaceOnUse">
<stop stop-color="#004236"/>
<stop offset="1" stop-color="#007E67"/>
</linearGradient>
<linearGradient id="paint1_linear_11_492" x1="7.31222" y1="19.9989" x2="21.3372" y2="33.194" gradientUnits="userSpaceOnUse">
<stop stop-color="#004236"/>
<stop offset="1" stop-color="#007E67"/>
</linearGradient>
<linearGradient id="paint2_linear_11_492" x1="1.07084" y1="20.3136" x2="5.03678" y2="20.9621" gradientUnits="userSpaceOnUse">
<stop stop-color="#004236"/>
<stop offset="1" stop-color="#007E67"/>
</linearGradient>
<linearGradient id="paint3_linear_11_492" x1="7.03118" y1="2.62007" x2="24.0748" y2="9.31154" gradientUnits="userSpaceOnUse">
<stop stop-color="#004236"/>
<stop offset="1" stop-color="#007E67"/>
</linearGradient>
</defs>
</svg>
