<svg width="22" height="23" viewBox="0 0 22 23" fill="none" xmlns="http://www.w3.org/2000/svg">
<path d="M4.40918 8.55518C7.22495 6.91033 10.0905 6.91033 12.9062 8.55518C13.4327 8.86186 13.822 9.37625 14.0059 9.98584L14.0713 10.2534L14.0723 10.2554C14.1023 10.4227 14.1191 10.5884 14.1191 10.7554C14.1191 11.0656 14.0628 11.3688 13.958 11.6528H14.5498V11.6636C15.4479 11.7431 16.1443 12.5284 16.1445 13.4731C16.1445 14.0416 15.8851 14.5826 15.4492 14.9253C15.0876 15.2096 14.8691 15.6633 14.8691 16.1421V20.4771C14.8691 20.737 14.6639 20.9604 14.3994 20.9604H2.91504C2.65069 20.9603 2.44629 20.7369 2.44629 20.4771V16.1421C2.44629 15.6633 2.22688 15.2096 1.86523 14.9253C1.42957 14.5826 1.16992 14.0414 1.16992 13.4731C1.17015 12.4765 1.94581 11.656 2.91504 11.6558H3.36035C3.19832 11.2158 3.15314 10.734 3.24316 10.2573L3.30859 9.98877C3.49046 9.37673 3.8802 8.86455 4.40918 8.55518ZM13.4424 12.6196C13.0053 12.6199 12.6358 12.9966 12.6357 13.4702V19.9907H13.9307V16.1382C13.9307 15.3634 14.286 14.6191 14.8818 14.1528C15.0833 13.9956 15.207 13.7393 15.207 13.4702C15.207 12.9964 14.8367 12.6196 14.3994 12.6196H13.4424ZM11.2314 15.5317C9.5223 14.7655 7.79313 14.7655 6.08398 15.5317L6.08301 15.5308C5.80443 15.6577 5.61719 15.9581 5.61719 16.3052V19.9907H11.6973V16.3052C11.6973 15.9974 11.5534 15.7299 11.3311 15.5854L11.2314 15.5317ZM2.91504 12.6196C2.47788 12.6198 2.10842 12.9965 2.1084 13.4702C2.1084 13.7393 2.23212 13.9956 2.43359 14.1528L2.54199 14.2437C3.07195 14.7125 3.38472 15.4118 3.38477 16.1382V19.9907H4.67969V13.4702C4.67967 12.9964 4.30937 12.6196 3.87207 12.6196H2.91504ZM12.4414 9.39404C10.0054 7.97018 7.54682 7.92537 5.10938 9.26025L4.87305 9.39404C4.55773 9.57718 4.31821 9.89176 4.2041 10.2749L4.16309 10.4438C4.06886 10.9244 4.20259 11.419 4.51172 11.7856C5.16092 12.0552 5.61717 12.7067 5.61719 13.4702V14.6968C5.6473 14.6805 5.67683 14.6623 5.70801 14.6479L5.70898 14.647C7.66526 13.769 9.65325 13.7699 11.6064 14.6479H11.6074C11.6383 14.6622 11.6675 14.6797 11.6973 14.6958V13.4702C11.6973 12.711 12.1504 12.0607 12.7959 11.7905C13.0439 11.501 13.1807 11.139 13.1807 10.7554C13.1807 10.7028 13.1786 10.6498 13.1738 10.5972L13.1523 10.4409C13.0641 9.98572 12.7996 9.60376 12.4414 9.39404Z" fill="url(#paint0_linear_50_3037)" stroke="url(#paint1_linear_50_3037)" stroke-width="0.3"/>
<path d="M18.866 2.31445C19.0914 2.31445 19.2805 2.47962 19.3259 2.69824L20.283 7.36719V7.36914C20.3095 7.5078 20.2794 7.65642 20.1892 7.77051C20.1017 7.88117 19.967 7.95117 19.823 7.95117H17.74V19.9912H18.2283C18.4927 19.9914 18.697 20.2148 18.697 20.4746C18.697 20.7344 18.4926 20.9579 18.2283 20.958H16.3142C16.0497 20.958 15.8445 20.7345 15.8445 20.4746C15.8445 20.2147 16.0497 19.9912 16.3142 19.9912H16.8015V7.95117H16.1453V8.80176C16.1452 9.06161 15.94 9.28516 15.6755 9.28516C15.4113 9.28494 15.2069 9.06148 15.2068 8.80176V7.95117H14.7185C14.5747 7.95105 14.4407 7.88093 14.3533 7.77051C14.2587 7.65172 14.2323 7.50609 14.2585 7.36914L14.2595 7.36719L15.2166 2.69824C15.262 2.47974 15.4503 2.31464 15.6755 2.31445H18.866ZM15.2986 6.98438H19.2439L18.4851 3.28223H16.0564L15.2986 6.98438Z" fill="url(#paint2_linear_50_3037)" stroke="url(#paint3_linear_50_3037)" stroke-width="0.3"/>
<defs>
<linearGradient id="paint0_linear_50_3037" x1="1.32031" y1="14.141" x2="15.9949" y2="14.141" gradientUnits="userSpaceOnUse">
<stop stop-color="#905E26"/>
<stop offset="0.258244" stop-color="#F5EC9B"/>
<stop offset="1" stop-color="#905E26"/>
</linearGradient>
<linearGradient id="paint1_linear_50_3037" x1="1.32031" y1="14.141" x2="15.9949" y2="14.141" gradientUnits="userSpaceOnUse">
<stop stop-color="#905E26"/>
<stop offset="0.258244" stop-color="#F5EC9B"/>
<stop offset="1" stop-color="#905E26"/>
</linearGradient>
<linearGradient id="paint2_linear_50_3037" x1="14.3992" y1="11.6364" x2="20.1424" y2="11.6364" gradientUnits="userSpaceOnUse">
<stop stop-color="#905E26"/>
<stop offset="0.258244" stop-color="#F5EC9B"/>
<stop offset="1" stop-color="#905E26"/>
</linearGradient>
<linearGradient id="paint3_linear_50_3037" x1="14.3992" y1="11.6364" x2="20.1424" y2="11.6364" gradientUnits="userSpaceOnUse">
<stop stop-color="#905E26"/>
<stop offset="0.258244" stop-color="#F5EC9B"/>
<stop offset="1" stop-color="#905E26"/>
</linearGradient>
</defs>
</svg>
