<svg width="21" height="25" viewBox="0 0 21 25" fill="none" xmlns="http://www.w3.org/2000/svg">
<path d="M10.5 0.125C11.047 0.125 11.5716 0.342298 11.9584 0.729092C12.3452 1.11589 12.5625 1.64049 12.5625 2.1875V22.8125C12.5625 23.3595 12.3452 23.8841 11.9584 24.2709C11.5716 24.6577 11.047 24.875 10.5 24.875C9.95299 24.875 9.42839 24.6577 9.04159 24.2709C8.6548 23.8841 8.4375 23.3595 8.4375 22.8125V2.1875C8.4375 1.64049 8.6548 1.11589 9.04159 0.729092C9.42839 0.342298 9.95299 0.125 10.5 0.125ZM18.75 8.375C19.297 8.375 19.8216 8.5923 20.2084 8.97909C20.5952 9.36589 20.8125 9.89049 20.8125 10.4375V22.8125C20.8125 23.3595 20.5952 23.8841 20.2084 24.2709C19.8216 24.6577 19.297 24.875 18.75 24.875C18.203 24.875 17.6784 24.6577 17.2916 24.2709C16.9048 23.8841 16.6875 23.3595 16.6875 22.8125V10.4375C16.6875 9.89049 16.9048 9.36589 17.2916 8.97909C17.6784 8.5923 18.203 8.375 18.75 8.375ZM4.3125 14.5625C4.3125 14.0155 4.0952 13.4909 3.70841 13.1041C3.32161 12.7173 2.79701 12.5 2.25 12.5C1.70299 12.5 1.17839 12.7173 0.791592 13.1041C0.404798 13.4909 0.1875 14.0155 0.1875 14.5625V22.8125C0.1875 23.3595 0.404798 23.8841 0.791592 24.2709C1.17839 24.6577 1.70299 24.875 2.25 24.875C2.79701 24.875 3.32161 24.6577 3.70841 24.2709C4.0952 23.8841 4.3125 23.3595 4.3125 22.8125V14.5625Z" fill="#9E9E9E"/>
</svg>
