<svg width="29" height="29" viewBox="0 0 29 29" fill="none" xmlns="http://www.w3.org/2000/svg">
<path d="M14.5 26.5832C21.1735 26.5832 26.5834 21.1733 26.5834 14.4998C26.5834 7.8264 21.1735 2.4165 14.5 2.4165C7.82658 2.4165 2.41669 7.8264 2.41669 14.4998C2.41669 21.1733 7.82658 26.5832 14.5 26.5832Z" stroke="#9E9E9E" stroke-width="2"/>
<path d="M14.5 19.3332C17.1694 19.3332 19.3334 17.1692 19.3334 14.4998C19.3334 11.8305 17.1694 9.6665 14.5 9.6665C11.8306 9.6665 9.66669 11.8305 9.66669 14.4998C9.66669 17.1692 11.8306 19.3332 14.5 19.3332Z" stroke="#9E9E9E" stroke-width="2"/>
<path d="M18.125 10.8748L22.9583 6.0415" stroke="#9E9E9E" stroke-width="2"/>
<path d="M6.04169 22.9583L10.875 18.125" stroke="#9E9E9E" stroke-width="2"/>
<path d="M10.875 10.8748L6.04169 6.0415" stroke="#9E9E9E" stroke-width="2"/>
<path d="M22.9583 22.9583L18.125 18.125" stroke="#9E9E9E" stroke-width="2"/>
</svg>
