<svg width="17" height="16" viewBox="0 0 17 16" fill="none" xmlns="http://www.w3.org/2000/svg">
<path d="M16 7.22222V11.8889C16 13.6071 14.5076 15 12.6667 15H4.33333C2.49238 15 1 13.6071 1 11.8889V4.11111C1 2.39289 2.49238 1 4.33333 1H9.33333" stroke="url(#paint0_linear_758_3097)" stroke-width="1.5" stroke-linecap="round"/>
<path d="M13.4356 1.39599C13.7173 1.14244 14.0994 1 14.4977 1C14.8962 1 15.2783 1.14244 15.56 1.39599C15.8417 1.64954 16 1.99342 16 2.35199C16 2.71056 15.8417 3.05445 15.56 3.30799L8.83258 9.36265L6 10L6.70815 7.45067L13.4356 1.39599Z" stroke="url(#paint1_linear_758_3097)" stroke-width="1.5" stroke-linecap="round" stroke-linejoin="round"/>
<path d="M12 3L14 5" stroke="url(#paint2_linear_758_3097)" stroke-width="1.5" stroke-linecap="round" stroke-linejoin="round"/>
<defs>
<linearGradient id="paint0_linear_758_3097" x1="2.53285" y1="3.17241" x2="17.5908" y2="9.63623" gradientUnits="userSpaceOnUse">
<stop stop-color="#004236"/>
<stop offset="1" stop-color="#007E67"/>
</linearGradient>
<linearGradient id="paint1_linear_758_3097" x1="7.0219" y1="2.39655" x2="16.944" y2="6.81351" gradientUnits="userSpaceOnUse">
<stop stop-color="#004236"/>
<stop offset="1" stop-color="#007E67"/>
</linearGradient>
<linearGradient id="paint2_linear_758_3097" x1="12.2044" y1="3.31034" x2="14.2532" y2="4.13119" gradientUnits="userSpaceOnUse">
<stop stop-color="#004236"/>
<stop offset="1" stop-color="#007E67"/>
</linearGradient>
</defs>
</svg>
