<svg width="45" height="45" viewBox="0 0 45 45" fill="none" xmlns="http://www.w3.org/2000/svg">
<path d="M32.9949 36.6333C32.9949 36.9541 32.9389 37.2647 32.832 37.555C33.27 37.4379 33.769 37.2546 34.2579 36.9694C35.9791 35.9866 36.9618 34.2094 37.1808 31.6735C37.2418 30.9759 37.5576 30.3241 38.077 29.8505C38.5964 29.3718 39.2686 29.1121 39.9713 29.1121H39.9866H40.3634L40.3736 27.7525C40.3787 27.0447 39.8083 26.4692 39.1005 26.4692H35.8517C35.154 26.4692 34.5838 27.0345 34.5787 27.7321L34.5634 30.044C34.6042 32.4271 33.9422 33.9242 33.0001 34.8561L32.9949 36.6333Z" fill="white"/>
<path d="M42.5937 30.6603L40.3634 30.645H39.9866C39.9866 30.645 39.9815 30.645 39.9764 30.645C39.3144 30.645 38.7644 31.1492 38.7085 31.8111C38.077 39.1185 31.9613 39.3068 31.3298 39.3068C31.2942 39.3068 31.2789 39.3068 31.2789 39.3068L20.2135 39.2916C19.8774 39.2916 19.6024 39.0166 19.6024 38.6754V38.4819C19.6024 38.1458 19.8774 37.8759 20.2135 37.8759L30.1892 37.8912C30.8869 37.8912 31.4571 37.326 31.4622 36.6233L31.4673 35.8696L31.4776 33.792C31.4826 33.0892 30.9174 32.5138 30.2096 32.5138L25.265 32.4832C24.8169 32.4781 24.3739 32.3611 23.9869 32.1319C22.7494 31.4037 19.5668 29.7793 15.6967 29.7793C13.8482 29.7793 11.842 30.151 9.8152 31.1644L8.09912 31.1746C8.15004 31.3833 8.1755 31.6023 8.1755 31.8314L8.18569 42.7746C8.18569 42.9731 8.16532 43.1667 8.12458 43.3551H13.6445C14.3524 43.3551 15.0551 43.4213 15.7476 43.5536L18.4669 44.068C21.5477 44.6536 24.6743 44.954 27.8111 44.9744L31.9562 44.9999C31.9562 44.9999 43.0164 44.4805 43.8363 32.0198C43.9025 31.2866 43.327 30.6654 42.5937 30.6603Z" fill="white"/>
<path d="M6.48491 31.1795C6.2965 30.8638 5.98078 30.6397 5.60396 30.5735C5.53266 30.5634 5.46137 30.5532 5.38499 30.5532H4.84012H2.4315C1.72878 30.5532 1.15845 31.1236 1.15845 31.8263L1.16863 42.7694C1.16863 43.4722 1.73896 44.0425 2.44169 44.0425H4.88595H5.39517C5.48174 44.0425 5.56831 44.0323 5.64979 44.017C6.0317 43.9406 6.35251 43.686 6.52565 43.3449C6.61221 43.1717 6.66314 42.9731 6.66314 42.7644L6.65295 31.8212C6.66314 31.5919 6.59689 31.3679 6.48491 31.1795Z" fill="white"/>
<path d="M31.289 9.41042V1.52767C31.289 0.682357 30.6067 0 29.7613 0H27.9026C27.0573 0 26.375 0.682357 26.375 1.52767V4.49643L22.7799 0.901323C22.2809 0.402285 21.4763 0.402285 20.9772 0.901323L8.88321 12.9953C8.24159 13.637 8.69479 14.7318 9.60121 14.7318H11.246C11.9487 14.7318 12.5191 15.3021 12.5191 16.0048V25.8583C12.5191 26.561 13.0894 27.1313 13.7921 27.1313H16.5063C17.209 27.1313 17.7793 26.561 17.7793 25.8583V21.479C17.7793 20.7763 18.3496 20.2059 19.0524 20.2059H24.7047C25.4074 20.2059 25.9778 20.7763 25.9778 21.479V25.8634C25.9778 26.5662 26.5481 27.1364 27.2508 27.1364H29.9649C30.6677 27.1364 31.238 26.5662 31.238 25.8634V16.0099C31.238 15.3072 31.8084 14.7369 32.5111 14.7369H34.1559C35.0624 14.7369 35.5155 13.6421 34.8739 13.0004L31.289 9.41042Z" fill="white"/>
</svg>
