<svg width="179" height="67" viewBox="0 0 179 67" fill="none" xmlns="http://www.w3.org/2000/svg">
<g filter="url(#filter0_dii_232_2837)">
<rect width="136" height="56" rx="10.5702" fill="url(#paint0_linear_232_2837)"/>
</g>
<path d="M59.8864 21.3636L63.3409 31.1591H63.4773L66.9318 21.3636H68.4091L64.1364 33H62.6818L58.4091 21.3636H59.8864ZM74.0852 22.6136V21.3636H82.8125V22.6136H79.1534V33H77.7443V22.6136H74.0852ZM87.0852 33.1818C86.2973 33.1818 85.6061 32.9943 85.0114 32.6193C84.4205 32.2443 83.9583 31.7197 83.625 31.0455C83.2955 30.3712 83.1307 29.5833 83.1307 28.6818C83.1307 27.7727 83.2955 26.9792 83.625 26.3011C83.9583 25.6231 84.4205 25.0966 85.0114 24.7216C85.6061 24.3466 86.2973 24.1591 87.0852 24.1591C87.8731 24.1591 88.5625 24.3466 89.1534 24.7216C89.7481 25.0966 90.2102 25.6231 90.5398 26.3011C90.8731 26.9792 91.0398 27.7727 91.0398 28.6818C91.0398 29.5833 90.8731 30.3712 90.5398 31.0455C90.2102 31.7197 89.7481 32.2443 89.1534 32.6193C88.5625 32.9943 87.8731 33.1818 87.0852 33.1818ZM87.0852 31.9773C87.6837 31.9773 88.1761 31.8239 88.5625 31.517C88.9489 31.2102 89.2348 30.8068 89.4205 30.3068C89.6061 29.8068 89.6989 29.2652 89.6989 28.6818C89.6989 28.0985 89.6061 27.5549 89.4205 27.0511C89.2348 26.5473 88.9489 26.1402 88.5625 25.8295C88.1761 25.5189 87.6837 25.3636 87.0852 25.3636C86.4867 25.3636 85.9943 25.5189 85.608 25.8295C85.2216 26.1402 84.9356 26.5473 84.75 27.0511C84.5644 27.5549 84.4716 28.0985 84.4716 28.6818C84.4716 29.2652 84.5644 29.8068 84.75 30.3068C84.9356 30.8068 85.2216 31.2102 85.608 31.517C85.9943 31.8239 86.4867 31.9773 87.0852 31.9773ZM98.5866 29.4318V24.2727H99.9276V33H98.5866V31.5227H98.4957C98.2912 31.9659 97.973 32.3428 97.5412 32.6534C97.1094 32.9602 96.5639 33.1136 95.9048 33.1136C95.3594 33.1136 94.8745 32.9943 94.4503 32.7557C94.026 32.5133 93.6927 32.1496 93.4503 31.6648C93.2079 31.1761 93.0866 30.5606 93.0866 29.8182V24.2727H94.4276V29.7273C94.4276 30.3636 94.6056 30.8712 94.9616 31.25C95.3215 31.6288 95.7798 31.8182 96.3366 31.8182C96.67 31.8182 97.009 31.733 97.3537 31.5625C97.7022 31.392 97.9938 31.1307 98.2287 30.7784C98.4673 30.4261 98.5866 29.9773 98.5866 29.4318ZM102.384 33V24.2727H103.679V25.5909H103.77C103.929 25.1591 104.217 24.8087 104.634 24.5398C105.05 24.2708 105.52 24.1364 106.043 24.1364C106.141 24.1364 106.264 24.1383 106.412 24.142C106.56 24.1458 106.671 24.1515 106.747 24.1591V25.5227C106.702 25.5114 106.598 25.4943 106.435 25.4716C106.276 25.4451 106.107 25.4318 105.929 25.4318C105.505 25.4318 105.126 25.5208 104.793 25.6989C104.463 25.8731 104.202 26.1155 104.009 26.4261C103.819 26.733 103.724 27.0833 103.724 27.4773V33H102.384Z" fill="white"/>
<path d="M21 15H47V40.9995H38.1845L39.1671 38.728H44.7269V17.2731H23.2731V38.728H32.9013L40.4475 21.2758L42.5244 23.1601L34.8104 40.9995H21V15ZM25.7413 21.2758L29.1096 23.6819L32.6599 31.9488L31.4826 34.6416L25.7413 21.2758Z" fill="url(#paint1_linear_232_2837)"/>
<defs>
<filter id="filter0_dii_232_2837" x="-3" y="-3" width="181.281" height="101.281" filterUnits="userSpaceOnUse" color-interpolation-filters="sRGB">
<feFlood flood-opacity="0" result="BackgroundImageFix"/>
<feColorMatrix in="SourceAlpha" type="matrix" values="0 0 0 0 0 0 0 0 0 0 0 0 0 0 0 0 0 0 127 0" result="hardAlpha"/>
<feOffset dx="21.1404" dy="21.1404"/>
<feGaussianBlur stdDeviation="10.5702"/>
<feComposite in2="hardAlpha" operator="out"/>
<feColorMatrix type="matrix" values="0 0 0 0 0.0470327 0 0 0 0 0.394281 0 0 0 0 0.430833 0 0 0 0.1 0"/>
<feBlend mode="normal" in2="BackgroundImageFix" result="effect1_dropShadow_232_2837"/>
<feBlend mode="normal" in="SourceGraphic" in2="effect1_dropShadow_232_2837" result="shape"/>
<feColorMatrix in="SourceAlpha" type="matrix" values="0 0 0 0 0 0 0 0 0 0 0 0 0 0 0 0 0 0 127 0" result="hardAlpha"/>
<feOffset dx="3" dy="3"/>
<feGaussianBlur stdDeviation="2.5"/>
<feComposite in2="hardAlpha" operator="arithmetic" k2="-1" k3="1"/>
<feColorMatrix type="matrix" values="0 0 0 0 0.960784 0 0 0 0 0.92549 0 0 0 0 0.607843 0 0 0 0.2 0"/>
<feBlend mode="normal" in2="shape" result="effect2_innerShadow_232_2837"/>
<feColorMatrix in="SourceAlpha" type="matrix" values="0 0 0 0 0 0 0 0 0 0 0 0 0 0 0 0 0 0 127 0" result="hardAlpha"/>
<feOffset dx="-3" dy="-3"/>
<feGaussianBlur stdDeviation="2.5"/>
<feComposite in2="hardAlpha" operator="arithmetic" k2="-1" k3="1"/>
<feColorMatrix type="matrix" values="0 0 0 0 0 0 0 0 0 0 0 0 0 0 0 0 0 0 0.25 0"/>
<feBlend mode="normal" in2="effect2_innerShadow_232_2837" result="effect3_innerShadow_232_2837"/>
</filter>
<linearGradient id="paint0_linear_232_2837" x1="13.8978" y1="8.68965" x2="96.9515" y2="89.5006" gradientUnits="userSpaceOnUse">
<stop stop-color="#004236"/>
<stop offset="1" stop-color="#007E67"/>
</linearGradient>
<linearGradient id="paint1_linear_232_2837" x1="21" y1="15" x2="47" y2="15" gradientUnits="userSpaceOnUse">
<stop stop-color="#905E26"/>
<stop offset="0.5" stop-color="#F5EC9B"/>
<stop offset="1" stop-color="#905E26"/>
</linearGradient>
</defs>
</svg>
