<svg width="19" height="25" viewBox="0 0 19 25" fill="none" xmlns="http://www.w3.org/2000/svg">
<path d="M9.58906 -0.00878906C4.46484 -0.00878906 0.125 4.35605 0.125 9.52559C0.125 14.9396 5.15547 20.4764 8.53906 24.3678C8.55234 24.3834 9.09922 24.9904 9.77266 24.9904H9.83203C10.5062 24.9904 11.0492 24.3834 11.0625 24.3678C14.2375 20.7178 18.875 14.6982 18.875 9.52559C18.875 4.35527 15.4898 -0.00878906 9.58906 -0.00878906ZM9.90234 23.3193C9.875 23.3467 9.83516 23.3771 9.8 23.4029C9.76406 23.3779 9.725 23.3467 9.69609 23.3193L9.2875 22.849C6.07969 19.1693 1.68672 14.1295 1.68672 9.52481C1.68672 5.20293 5.30547 1.55215 9.58828 1.55215C14.9234 1.55215 17.3117 5.55605 17.3117 9.52481C17.3117 13.0201 14.8187 17.6623 9.90234 23.3193ZM9.52734 4.72168C6.93906 4.72168 4.83984 6.82012 4.83984 9.40918C4.83984 11.9982 6.93906 14.0967 9.52734 14.0967C12.1156 14.0967 14.2148 11.9975 14.2148 9.40918C14.2148 6.8209 12.1164 4.72168 9.52734 4.72168ZM9.52734 12.5342C7.80391 12.5342 6.36641 11.0982 6.36641 9.3748C6.36641 7.65137 7.76797 6.2498 9.49141 6.2498C11.2156 6.2498 12.6164 7.65137 12.6164 9.3748C12.6172 11.0982 11.2516 12.5342 9.52734 12.5342Z" fill="#8F8F8F"/>
</svg>
