<svg width="34" height="34" viewBox="0 0 34 34" fill="none" xmlns="http://www.w3.org/2000/svg">
<path d="M17 0C9.95881 0 4.25 5.70881 4.25 12.75C4.25 15.5226 5.15897 18.0667 6.66984 20.1503C6.69694 20.2003 6.70119 20.256 6.732 20.3038L15.232 33.0538C15.6262 33.6451 16.2902 34 17 34C17.7098 34 18.3738 33.6451 18.768 33.0538L27.268 20.3038C27.2993 20.256 27.3031 20.2003 27.3302 20.1503C28.841 18.0667 29.75 15.5226 29.75 12.75C29.75 5.70881 24.0412 0 17 0ZM17 17C14.6529 17 12.75 15.0971 12.75 12.75C12.75 10.4029 14.6529 8.5 17 8.5C19.3471 8.5 21.25 10.4029 21.25 12.75C21.25 15.0971 19.3471 17 17 17Z" fill="url(#paint0_linear_260_1138)"/>
<defs>
<linearGradient id="paint0_linear_260_1138" x1="6.85584" y1="5.27586" x2="34.6608" y2="13.6308" gradientUnits="userSpaceOnUse">
<stop stop-color="#004236"/>
<stop offset="1" stop-color="#007E67"/>
</linearGradient>
</defs>
</svg>
