<svg width="24" height="28" viewBox="0 0 24 28" fill="none" xmlns="http://www.w3.org/2000/svg">
<path d="M21.9072 24.832C21.9072 25.332 21.6166 25.666 21.1807 25.666H13.916V23.999H21.9072V24.832ZM21.1807 2.33203C21.6165 2.33203 21.9071 2.66522 21.9072 3.16504V12.332H14.6426C14.2068 12.332 13.9161 12.6652 13.916 13.165C13.916 13.665 14.2067 13.999 14.6426 13.999H21.9072V15.665H13.1895C12.7536 15.665 12.4629 15.999 12.4629 16.499V25.665H8.83008V17.332C8.83008 16.832 8.53941 16.499 8.10352 16.499H5.19824C4.76234 16.499 4.47168 16.832 4.47168 17.332C4.47168 17.832 4.76234 18.165 5.19824 18.165H7.37695V25.665H2.29199C1.85609 25.665 1.56543 25.332 1.56543 24.832V13.999H10.2832C10.7191 13.999 11.0098 13.665 11.0098 13.165V2.33203H21.1807ZM21.9072 22.332H13.916V20.665H21.9072V22.332ZM21.9072 18.999H13.916V17.332H21.9072V18.999ZM9.55664 2.33203V12.332H1.56543V3.16504C1.56556 2.66522 1.85619 2.33203 2.29199 2.33203H9.55664Z" fill="url(#paint0_linear_292_10098)"/>
<defs>
<linearGradient id="paint0_linear_292_10098" x1="1.56543" y1="13.999" x2="21.9072" y2="13.999" gradientUnits="userSpaceOnUse">
<stop stop-color="#905E26"/>
<stop offset="0.258244" stop-color="#F5EC9B"/>
<stop offset="1" stop-color="#905E26"/>
</linearGradient>
</defs>
</svg>
