<svg width="23" height="23" viewBox="0 0 23 23" fill="none" xmlns="http://www.w3.org/2000/svg">
<g clip-path="url(#clip0_292_10079)">
<path d="M22.9392 22.5574C22.8669 22.7333 22.7266 22.8731 22.5502 22.9459C22.4627 22.9827 22.3694 23.0014 22.2762 23.0014H17.2441C16.8465 23.0014 16.5247 22.6799 16.5247 22.2827C16.5247 21.8855 16.8465 21.564 17.2441 21.564L20.5366 21.5604L13.8605 14.8838C13.5792 14.6033 13.5792 14.1485 13.8605 13.8673C14.141 13.5869 14.5958 13.5869 14.877 13.8673L21.6219 20.6125V17.2338C21.6219 16.8366 21.8785 16.5324 22.2762 16.5324C22.6731 16.5324 22.9948 16.8539 22.9948 17.2511V22.2827C22.9948 22.3764 22.976 22.4694 22.9392 22.5574ZM22.2762 6.46907C21.8785 6.46907 21.6219 6.0971 21.6219 5.6999V2.38895L14.877 9.13339C14.736 9.27396 14.5524 9.34461 14.3687 9.34461C14.1844 9.34461 14.0007 9.27396 13.8605 9.13339C13.5792 8.85297 13.5792 8.39811 13.8605 8.11697L20.6031 1.37469H17.2839C16.8862 1.37469 16.5247 1.11518 16.5247 0.718705C16.5247 0.321507 16.8465 0 17.2441 0H22.2762C22.3694 0 22.4627 0.0187426 22.5502 0.0555068C22.7266 0.128314 22.8669 0.268163 22.9392 0.444054C22.976 0.532 22.9948 0.624992 22.9948 0.718705V5.75036C22.9948 6.14684 22.6731 6.46907 22.2762 6.46907ZM2.44868 21.5604L5.74193 21.564C6.13958 21.564 6.46059 21.8855 6.46059 22.2827C6.46059 22.6799 6.13958 23.0014 5.74193 23.0014H0.709871C0.616604 23.0014 0.523337 22.9827 0.435131 22.9459C0.259443 22.8731 0.119182 22.7333 0.0461588 22.5574C0.0100089 22.4694 -0.00878906 22.3764 -0.00878906 22.2827V17.2511C-0.00878906 16.8539 0.312945 16.5324 0.709871 16.5324C1.10752 16.5324 1.37792 16.8366 1.37792 17.2338V20.5981L8.10903 13.8673C8.39027 13.5869 8.84504 13.5869 9.12556 13.8673C9.40681 14.1485 9.40681 14.6033 9.12556 14.8838L2.44868 21.5604ZM8.6173 9.34461C8.43365 9.34461 8.24929 9.27396 8.10903 9.13339L1.37792 2.40265V5.6999C1.37792 6.0971 1.10752 6.46907 0.709871 6.46907C0.312945 6.46907 -0.00878906 6.14684 -0.00878906 5.75036V0.718705C-0.00878906 0.624992 0.0100089 0.532 0.0461588 0.444054C0.119182 0.268163 0.259443 0.128314 0.435131 0.0555068C0.522614 0.0187426 0.615881 0 0.708425 0C0.709148 0 0.709148 0 0.709871 0H5.74193C6.13958 0 6.46059 0.321507 6.46059 0.718705C6.46059 1.11518 6.11355 1.37469 5.71591 1.37469H2.38289L9.12556 8.11697C9.40681 8.39811 9.40681 8.85297 9.12556 9.13339C8.9853 9.27396 8.80166 9.34461 8.6173 9.34461Z" fill="white"/>
</g>
<defs>
<clipPath id="clip0_292_10079">
<rect width="23" height="23" fill="white"/>
</clipPath>
</defs>
</svg>
