<svg width="24" height="24" viewBox="0 0 24 24" fill="none" xmlns="http://www.w3.org/2000/svg">
<g clip-path="url(#clip0_292_10075)">
<path fill-rule="evenodd" clip-rule="evenodd" d="M22.2857 6.85714C22.2857 7.80343 21.5177 8.57143 20.5714 8.57143H17.1429C16.1966 8.57143 15.4286 7.80343 15.4286 6.85714V3.42857C15.4286 2.48229 16.1966 1.71429 17.1429 1.71429H20.5714C21.5177 1.71429 22.2857 2.48229 22.2857 3.42857V6.85714ZM20.5714 0H17.1429C15.2494 0 13.7143 1.53514 13.7143 3.42857V6.85714C13.7143 8.75057 15.2494 10.2857 17.1429 10.2857H20.5714C22.4649 10.2857 24 8.75057 24 6.85714V3.42857C24 1.53514 22.4649 0 20.5714 0ZM22.2857 20.5714C22.2857 21.5177 21.5177 22.2857 20.5714 22.2857H17.1429C16.1966 22.2857 15.4286 21.5177 15.4286 20.5714V17.1429C15.4286 16.1966 16.1966 15.4286 17.1429 15.4286H20.5714C21.5177 15.4286 22.2857 16.1966 22.2857 17.1429V20.5714ZM20.5714 13.7143H17.1429C15.2494 13.7143 13.7143 15.2494 13.7143 17.1429V20.5714C13.7143 22.4649 15.2494 24 17.1429 24H20.5714C22.4649 24 24 22.4649 24 20.5714V17.1429C24 15.2494 22.4649 13.7143 20.5714 13.7143ZM8.57143 6.85714C8.57143 7.80343 7.80343 8.57143 6.85714 8.57143H3.42857C2.48229 8.57143 1.71429 7.80343 1.71429 6.85714V3.42857C1.71429 2.48229 2.48229 1.71429 3.42857 1.71429H6.85714C7.80343 1.71429 8.57143 2.48229 8.57143 3.42857V6.85714ZM6.85714 0H3.42857C1.53514 0 0 1.53514 0 3.42857V6.85714C0 8.75057 1.53514 10.2857 3.42857 10.2857H6.85714C8.75057 10.2857 10.2857 8.75057 10.2857 6.85714V3.42857C10.2857 1.53514 8.75057 0 6.85714 0ZM8.57143 20.5714C8.57143 21.5177 7.80343 22.2857 6.85714 22.2857H3.42857C2.48229 22.2857 1.71429 21.5177 1.71429 20.5714V17.1429C1.71429 16.1966 2.48229 15.4286 3.42857 15.4286H6.85714C7.80343 15.4286 8.57143 16.1966 8.57143 17.1429V20.5714ZM6.85714 13.7143H3.42857C1.53514 13.7143 0 15.2494 0 17.1429V20.5714C0 22.4649 1.53514 24 3.42857 24H6.85714C8.75057 24 10.2857 22.4649 10.2857 20.5714V17.1429C10.2857 15.2494 8.75057 13.7143 6.85714 13.7143Z" fill="white"/>
</g>
<defs>
<clipPath id="clip0_292_10075">
<rect width="24" height="24" fill="white"/>
</clipPath>
</defs>
</svg>
