<svg width="17" height="16" viewBox="0 0 17 16" fill="none" xmlns="http://www.w3.org/2000/svg">
<path fill-rule="evenodd" clip-rule="evenodd" d="M15.8507 5.8732L15.8507 10.5914C15.8507 10.6765 15.7811 10.7461 15.696 10.7461L3.51381 10.7461C2.84552 10.7461 2.21513 10.4839 1.73868 10.0074C1.26223 9.53094 1 8.90057 1 8.23229C1 7.564 1.26221 6.93361 1.73868 6.45716C2.21515 5.98071 2.84552 5.71848 3.51381 5.71848L15.696 5.71848C15.7811 5.71848 15.8507 5.78811 15.8507 5.8732ZM15.5413 10.4368L15.5413 6.02784L3.51376 6.02784C2.29862 6.02784 1.3093 7.01713 1.3093 8.2323C1.3093 9.44743 2.29858 10.4368 3.51376 10.4368L15.5413 10.4368Z" fill="#505050"/>
<path fill-rule="evenodd" clip-rule="evenodd" d="M4.07462 8.23247C4.07462 8.79246 3.61904 9.24805 3.05904 9.24805C2.4944 9.24805 2.03418 8.79246 2.03418 8.23247C2.03418 7.95712 2.14015 7.69954 2.33274 7.50617C2.52611 7.31357 2.78367 7.20761 3.05904 7.20761C3.61904 7.20761 4.07462 7.66782 4.07462 8.23247ZM2.34434 8.23247C2.34434 8.62231 2.66534 8.93866 3.05982 8.93866C3.44966 8.93866 3.766 8.62229 3.766 8.23247C3.766 7.83799 3.44964 7.517 3.05982 7.517C2.65839 7.517 2.34434 7.83102 2.34434 8.23247Z" fill="#505050"/>
<path fill-rule="evenodd" clip-rule="evenodd" d="M5.68927 8.76561L5.68927 10.5934C5.68927 10.6784 5.61966 10.748 5.53458 10.748C5.4495 10.748 5.37988 10.6784 5.37988 10.5934L5.37988 8.76561C5.37988 8.68053 5.4495 8.61092 5.53458 8.61092C5.61966 8.61092 5.68927 8.68053 5.68927 8.76561Z" fill="#505050"/>
<path fill-rule="evenodd" clip-rule="evenodd" d="M6.99396 9.67328L6.99396 10.5914C6.99396 10.6765 6.92435 10.7461 6.83927 10.7461C6.75418 10.7461 6.68457 10.6765 6.68457 10.5914L6.68457 9.67328C6.68457 9.5882 6.75418 9.51859 6.83927 9.51859C6.92435 9.51859 6.99396 9.5882 6.99396 9.67328Z" fill="#505050"/>
<path fill-rule="evenodd" clip-rule="evenodd" d="M8.28986 8.76561L8.28986 10.5934C8.28986 10.6784 8.22025 10.748 8.13516 10.748C8.05008 10.748 7.98047 10.6784 7.98047 10.5934L7.98047 8.76561C7.98047 8.68053 8.05008 8.61092 8.13516 8.61092C8.22025 8.61092 8.28986 8.68053 8.28986 8.76561Z" fill="#505050"/>
<path fill-rule="evenodd" clip-rule="evenodd" d="M9.59552 9.67328L9.59552 10.5914C9.59552 10.6765 9.52591 10.7461 9.44083 10.7461C9.35575 10.7461 9.28613 10.6765 9.28613 10.5914L9.28613 9.67328C9.28613 9.5882 9.35575 9.51859 9.44083 9.51859C9.52591 9.51859 9.59552 9.5882 9.59552 9.67328Z" fill="#505050"/>
<path fill-rule="evenodd" clip-rule="evenodd" d="M10.8914 8.76561L10.8914 10.5934C10.8914 10.6784 10.8218 10.748 10.7367 10.748C10.6516 10.748 10.582 10.6784 10.582 10.5934L10.582 8.76561C10.582 8.68053 10.6516 8.61092 10.7367 8.61092C10.8218 8.61092 10.8914 8.68053 10.8914 8.76561Z" fill="#505050"/>
<path fill-rule="evenodd" clip-rule="evenodd" d="M12.1873 9.67328L12.1873 10.5914C12.1873 10.6765 12.1177 10.7461 12.0326 10.7461C11.9475 10.7461 11.8779 10.6765 11.8779 10.5914L11.8779 9.67328C11.8779 9.5882 11.9475 9.51859 12.0326 9.51859C12.1177 9.51859 12.1873 9.5882 12.1873 9.67328Z" fill="#505050"/>
<path fill-rule="evenodd" clip-rule="evenodd" d="M13.491 8.76561L13.491 10.5934C13.491 10.6784 13.4214 10.748 13.3363 10.748C13.2513 10.748 13.1816 10.6784 13.1816 10.5934L13.1816 8.76561C13.1816 8.68053 13.2513 8.61092 13.3363 8.61092C13.4214 8.61092 13.491 8.68053 13.491 8.76561Z" fill="#505050"/>
<path fill-rule="evenodd" clip-rule="evenodd" d="M14.7869 9.67328L14.7869 10.5914C14.7869 10.6765 14.7173 10.7461 14.6322 10.7461C14.5472 10.7461 14.4775 10.6765 14.4775 10.5914L14.4775 9.67328C14.4775 9.5882 14.5472 9.51859 14.6322 9.51859C14.7173 9.51859 14.7869 9.5882 14.7869 9.67328Z" fill="#505050"/>
<path fill-rule="evenodd" clip-rule="evenodd" d="M15.059 6.73779L15.059 7.70077C15.059 7.78586 14.9894 7.85547 14.9043 7.85547L5.51505 7.85547C5.42996 7.85547 5.36035 7.78586 5.36035 7.70077L5.36035 6.73779C5.36035 6.6527 5.42996 6.58309 5.51505 6.58309L14.9043 6.58309C14.9902 6.58309 15.059 6.6527 15.059 6.73779ZM14.7496 7.54607L14.7496 6.89247L5.66984 6.89247L5.66984 7.54607L14.7496 7.54607Z" fill="#505050"/>
</svg>
