<svg width="42" height="29" viewBox="0 0 42 29" fill="none" xmlns="http://www.w3.org/2000/svg">
<path d="M20.5869 0.137848C20.7796 -0.0440203 21.0808 -0.0440203 21.2734 0.137848C21.5721 0.419812 21.7015 0.540782 21.8105 0.629059C21.9111 0.710419 21.9946 0.764389 22.2188 0.905426C22.6655 1.1865 23.5497 1.74338 25.8936 3.4025C27.1318 4.27901 27.8598 5.25157 28.2285 6.23746C28.4866 6.92757 28.5595 7.60546 28.5264 8.23453C28.9634 7.7597 29.4833 7.36455 30.0654 7.07339L30.1748 7.03433C30.2874 7.00781 30.407 7.02063 30.5127 7.07339C31.3991 7.5167 32.1449 8.19813 32.666 9.04117C33.187 9.88416 33.4637 10.8558 33.4639 11.8468V15.0431H35.8066V13.4972C35.8066 13.2211 36.0305 12.9972 36.3066 12.9972H37.8115V11.5314C37.8115 11.2553 38.0354 11.0314 38.3115 11.0314C38.5877 11.0314 38.8115 11.2553 38.8115 11.5314V13.4875C38.8116 13.4907 38.8125 13.494 38.8125 13.4972V27.0763H40.9863C41.2623 27.0765 41.4863 27.3003 41.4863 27.5763C41.4863 27.8523 41.2622 28.0761 40.9863 28.0763H0.5C0.223904 28.0763 7.52339e-05 27.8524 0 27.5763C0 27.3002 0.223858 27.0763 0.5 27.0763H3.04883V11.5314C3.04883 11.2553 3.27269 11.0314 3.54883 11.0314C3.82475 11.0317 4.04883 11.2554 4.04883 11.5314V12.9972H5.55469C5.83048 12.9976 6.05469 13.2213 6.05469 13.4972V15.0431H8.39648V11.8468L8.40918 11.4767C8.46921 10.6153 8.73744 9.77889 9.19336 9.04117C9.71442 8.19809 10.4603 7.51674 11.3467 7.07339L11.4561 7.03433C11.5687 7.00781 11.6883 7.02063 11.7939 7.07339C12.3763 7.36463 12.8959 7.76043 13.333 8.2355C13.2998 7.60617 13.3737 6.9279 13.6318 6.23746C14.0005 5.25169 14.7278 4.27893 15.9658 3.4025C18.3098 1.74328 19.1949 1.18651 19.6416 0.905426C19.8657 0.764398 19.9492 0.710417 20.0498 0.629059C20.1589 0.540782 20.2882 0.419807 20.5869 0.137848ZM4.04883 27.0763H8.39648V16.0431H4.04883V27.0763ZM9.39746 27.0763H13.7451V16.0431H9.39746V27.0763ZM14.7451 27.0763H16.4189V21.4494C16.4189 20.5919 16.6501 19.7502 17.0879 19.0128C17.5257 18.2755 18.1543 17.6693 18.9072 17.2589L20.6543 16.3068L20.7109 16.2804C20.8462 16.2274 20.999 16.2363 21.1289 16.3058L22.9209 17.2638C23.6823 17.6712 24.3188 18.2779 24.7627 19.0187C25.2065 19.7597 25.4415 20.6081 25.4414 21.4718V27.0763H27.1152V13.9972H14.7451V27.0763ZM24.4414 22.6964C24.3887 22.7154 24.3326 22.7276 24.2734 22.7277H17.5879C17.5285 22.7277 17.4718 22.7154 17.4189 22.6964V27.0763H20.3887V25.5705C20.3887 25.2943 20.6125 25.0705 20.8887 25.0705C21.1648 25.0705 21.3887 25.2943 21.3887 25.5705V27.0763H24.4414V22.6964ZM28.1152 27.0763H32.4639V16.0431H28.1152V27.0763ZM33.4639 27.0763H37.8125V16.0431H33.4639V27.0763ZM6.22266 22.3966C6.4988 22.3966 6.72266 22.6205 6.72266 22.8966V25.5705L6.71289 25.6711C6.66641 25.8991 6.46442 26.0705 6.22266 26.0705C5.9809 26.0705 5.7789 25.8991 5.73242 25.6711L5.72266 25.5705V22.8966C5.72266 22.6205 5.94651 22.3966 6.22266 22.3966ZM11.5713 22.3966C11.8472 22.3969 12.0713 22.6207 12.0713 22.8966V25.5705L12.0615 25.6711C12.0151 25.899 11.8129 26.0702 11.5713 26.0705C11.3296 26.0705 11.1276 25.899 11.0811 25.6711L11.0713 25.5705V22.8966C11.0713 22.6205 11.2951 22.3966 11.5713 22.3966ZM30.29 22.3966C30.566 22.3969 30.79 22.6207 30.79 22.8966V25.5705L30.7803 25.6711C30.7339 25.899 30.5316 26.0702 30.29 26.0705C30.0483 26.0705 29.8463 25.899 29.7998 25.6711L29.79 25.5705V22.8966C29.79 22.6205 30.0139 22.3966 30.29 22.3966ZM35.6377 22.3966C35.9138 22.3966 36.1377 22.6205 36.1377 22.8966V25.5705L36.1279 25.6711C36.0815 25.8991 35.8795 26.0705 35.6377 26.0705C35.3959 26.0705 35.1939 25.8991 35.1475 25.6711L35.1377 25.5705V22.8966C35.1377 22.6205 35.3616 22.3966 35.6377 22.3966ZM19.3857 18.1369C18.7906 18.4613 18.2934 18.9408 17.9473 19.5236C17.6014 20.1063 17.4189 20.7717 17.4189 21.4494V21.758C17.4717 21.739 17.5286 21.7277 17.5879 21.7277H20.4619C20.443 21.6749 20.4307 21.619 20.4307 21.5597V19.5539C20.4307 19.2777 20.6545 19.0539 20.9307 19.0539C21.2066 19.0541 21.4307 19.2779 21.4307 19.5539V21.5597C21.4306 21.619 21.4174 21.6749 21.3984 21.7277H24.2734C24.3325 21.7278 24.3888 21.7391 24.4414 21.758V21.4709C24.4414 20.7885 24.2559 20.1188 23.9053 19.5334C23.5544 18.9477 23.0512 18.4677 22.4492 18.1457L20.8955 17.3136L19.3857 18.1369ZM6.22266 17.048C6.4988 17.048 6.72266 17.2719 6.72266 17.548V20.2218L6.71289 20.3224C6.66641 20.5504 6.46442 20.7218 6.22266 20.7218C5.9809 20.7218 5.7789 20.5504 5.73242 20.3224L5.72266 20.2218V17.548C5.72266 17.2719 5.94651 17.048 6.22266 17.048ZM11.5713 17.048C11.8472 17.0483 12.0713 17.272 12.0713 17.548V20.2218L12.0615 20.3224C12.0151 20.5503 11.8129 20.7216 11.5713 20.7218C11.3296 20.7218 11.1276 20.5504 11.0811 20.3224L11.0713 20.2218V17.548C11.0713 17.2719 11.2951 17.048 11.5713 17.048ZM30.29 17.048C30.566 17.0483 30.79 17.272 30.79 17.548V20.2218L30.7803 20.3224C30.7339 20.5503 30.5316 20.7216 30.29 20.7218C30.0483 20.7218 29.8463 20.5504 29.7998 20.3224L29.79 20.2218V17.548C29.79 17.2719 30.0139 17.048 30.29 17.048ZM35.6377 17.048C35.9138 17.048 36.1377 17.2719 36.1377 17.548V20.2218L36.1279 20.3224C36.0815 20.5504 35.8795 20.7218 35.6377 20.7218C35.3959 20.7218 35.1939 20.5504 35.1475 20.3224L35.1377 20.2218V17.548C35.1377 17.2719 35.3616 17.048 35.6377 17.048ZM4.04883 15.0431H5.05469V13.9972H4.04883V15.0431ZM9.39648 15.0431H11.0713V14.2052C11.0713 13.9291 11.2951 13.7052 11.5713 13.7052C11.8472 13.7055 12.0713 13.9293 12.0713 14.2052V15.0431H13.7451V12.7003H9.39648V15.0431ZM28.1152 15.0431H29.79V14.2052C29.79 13.9291 30.0139 13.7052 30.29 13.7052C30.566 13.7055 30.79 13.9293 30.79 14.2052V15.0431H32.4639V12.7003H28.1152V15.0431ZM36.8066 15.0431H37.8115V13.9972H36.8066V15.0431ZM14.7451 12.9972H27.1152V12.0314H14.7451V12.9972ZM11.5703 8.08902C10.9483 8.44719 10.4227 8.9547 10.0439 9.56754C9.64651 10.2108 9.42703 10.9463 9.40137 11.7003H13.7402C13.7146 10.9462 13.4942 10.2109 13.0967 9.56754C12.7178 8.95456 12.1925 8.4472 11.5703 8.08902ZM30.2891 8.08902C29.667 8.44719 29.1415 8.9547 28.7627 9.56754C28.3653 10.2108 28.1458 10.9463 28.1201 11.7003H32.459C32.4333 10.9462 32.213 10.2109 31.8154 9.56754C31.4366 8.95456 30.9113 8.4472 30.2891 8.08902ZM20.6787 1.40738C20.5238 1.5327 20.3877 1.61752 20.1738 1.75211C19.7439 2.02263 18.8743 2.56935 16.5439 4.2189C15.445 4.99684 14.857 5.81608 14.5684 6.58804C14.2787 7.36273 14.2764 8.12842 14.4092 8.81754C14.5425 9.50941 14.8106 10.1145 15.0498 10.55C15.1614 10.7531 15.2661 10.9163 15.3438 11.0314H26.5166C26.5943 10.9163 26.6989 10.7531 26.8105 10.55C27.0498 10.1145 27.3178 9.50941 27.4512 8.81754C27.5839 8.12843 27.5816 7.36273 27.292 6.58804C27.0033 5.81609 26.4153 4.99684 25.3164 4.2189C22.9861 2.56938 22.1165 2.02264 21.6865 1.75211C21.4726 1.61753 21.3366 1.53269 21.1816 1.40738C21.1067 1.34671 21.0276 1.2758 20.9297 1.1857C20.8321 1.27557 20.7536 1.34682 20.6787 1.40738Z" fill="url(#paint0_linear_1_2926)"/>
<defs>
<linearGradient id="paint0_linear_1_2926" x1="0" y1="14.0386" x2="41.4863" y2="14.0386" gradientUnits="userSpaceOnUse">
<stop stop-color="#905E26"/>
<stop offset="0.258244" stop-color="#F5EC9B"/>
<stop offset="1" stop-color="#905E26"/>
</linearGradient>
</defs>
</svg>
