<svg width="43" height="43" viewBox="0 0 43 43" fill="none" xmlns="http://www.w3.org/2000/svg">
<g clip-path="url(#clip0_1_2997)">
<mask id="path-1-outside-1_1_2997" maskUnits="userSpaceOnUse" x="10.585" y="-1" width="22" height="45" fill="black">
<rect fill="white" x="10.585" y="-1" width="22" height="45"/>
<path d="M16.1162 6.8418H15.3984L17.3164 13.5537L17.7881 13.1807L18.5127 15.0264L18.5059 14.7881V14.7812L18.4844 12.1152C18.468 12.1027 18.4594 12.095 18.4395 12.0801C18.3293 11.9964 18.1737 11.8818 18.001 11.7568C17.6548 11.5068 17.2393 11.2128 16.9619 11.0176C16.7916 10.8976 16.6776 10.8191 16.6602 10.8066C16.6586 10.8056 16.6533 10.8008 16.6533 10.8008L16.6543 10.7998C16.5627 10.7371 16.5088 10.6349 16.5088 10.5283C16.5088 10.485 16.5178 10.4397 16.5361 10.3984C16.5889 10.275 16.7085 10.1994 16.8379 10.1992C16.8648 10.1992 16.8926 10.202 16.9189 10.209H16.918L18.873 10.6963L18.1797 8.70215C18.1678 8.6673 18.1621 8.63048 18.1621 8.59473C18.1621 8.50812 18.1963 8.42415 18.2578 8.3623L18.3281 8.30859C18.3794 8.27889 18.4361 8.26465 18.4912 8.26465C18.5859 8.26469 18.6799 8.30659 18.7441 8.38281L20.1973 10.1084C20.3226 10.0989 20.4488 10.0919 20.5742 10.085L21.0176 7.6875C21.0464 7.53118 21.1825 7.41755 21.3408 7.41797C21.4997 7.41797 21.6361 7.53112 21.665 7.6875L22.1074 10.082C22.193 10.0865 22.2782 10.0902 22.3633 10.0957L23.8066 8.38281C23.8709 8.30658 23.964 8.26465 24.0586 8.26465C24.1143 8.2647 24.1715 8.27931 24.2217 8.30859V8.30762C24.3271 8.36795 24.3882 8.47925 24.3877 8.59473C24.3877 8.63109 24.3825 8.66777 24.3701 8.70312L23.623 10.8516C23.6254 10.8545 23.6279 10.8575 23.6299 10.8604L25.7969 10.3203C25.8248 10.3128 25.8525 10.3096 25.8789 10.3096C25.9762 10.3097 26.0677 10.3525 26.1299 10.4258L26.1816 10.5088C26.1994 10.5504 26.2079 10.5951 26.208 10.6387C26.208 10.7473 26.1533 10.8532 26.0576 10.915H26.0586L26.0566 10.916V10.917L24.2178 12.1279L24.2383 14.7197V14.7266C24.2383 14.7623 24.2359 14.7902 24.2354 14.8096L24.2227 15.4727L24.082 15.2744C23.9346 15.6644 23.7665 16.0317 23.5762 16.3516C23.3565 16.7175 23.1046 17.0182 22.8037 17.2158L24.3125 17.875C24.7524 18.0672 25.07 18.4648 25.1602 18.9365V18.9385L25.5215 21.0996L26.1689 20.2949C26.413 19.9912 26.7693 19.7977 27.1572 19.7588H27.1582C27.2063 19.7535 27.2553 19.751 27.3027 19.751C27.6409 19.751 27.9699 19.8694 28.2324 20.0869L30.8887 22.291C31.2349 22.578 31.4155 22.9946 31.415 23.4121C31.4149 23.7313 31.3098 24.0544 31.0947 24.3223L31.0957 24.3203L26.9238 29.4707L27.8398 34.9434L26.9639 35.1621L27.2891 37.3252H30.0654V43H11.585V37.3252H13.8711L14.3408 30.3447L14.9873 29.6777L14.2695 25.5654L15.3838 24.415L14.3789 21.8467H14.3799C14.3017 21.6625 14.2627 21.4686 14.2627 21.2773C14.2627 20.836 14.4639 20.4055 14.8311 20.123L14.8545 20.1045L13.6045 18.1621C13.4493 17.9196 13.3741 17.6458 13.374 17.376C13.374 16.9447 13.5658 16.5183 13.9268 16.2324L14.5537 15.7373L13.4688 9.98242L12.3818 8.89551V6.8418H11.6055V4.85254H16.1162V6.8418ZM12.0215 42.5635H29.6289V37.7617H12.0215V42.5635ZM14.1982 16.5752C13.9452 16.7754 13.8105 17.0726 13.8105 17.376C13.8106 17.5652 13.8631 17.7555 13.9727 17.9258L15.4385 20.2061L15.0967 20.4688C14.8402 20.6665 14.6997 20.9681 14.6992 21.2773C14.6998 21.4132 14.726 21.5497 14.7822 21.6807L14.7842 21.6846L15.7178 24.0703L17.5166 22.2148L17.8301 22.5186L14.7383 25.709L15.3633 29.291L16.8613 27.7441L17.1758 28.0479L14.7656 30.5342L14.3086 37.3252H26.8477L26.4727 34.835L27.3428 34.6182L24.7305 19.0176C24.6677 18.6879 24.4458 18.41 24.1387 18.2754L18.3232 15.7354L17.5967 13.8877L14.1982 16.5752ZM22.4941 28.4385L19.9375 35.1475L19.5303 34.9922L22.0859 28.2832L22.4941 28.4385ZM27.2012 20.1934C26.9292 20.2213 26.6797 20.3561 26.5088 20.5693L25.6182 21.6758L26.8271 28.8965L30.7529 24.0508L30.7539 24.0488C30.9047 23.8597 30.9789 23.6365 30.9795 23.4121C30.979 23.1182 30.8534 22.8287 30.6104 22.627L27.9541 20.4229C27.7708 20.2704 27.5394 20.1885 27.3027 20.1885C27.2691 20.1885 27.2348 20.1899 27.2012 20.1934ZM21.0391 12.0352L18.6172 15.292L18.6631 15.4082L22.5557 17.1084L22.4619 16.9199C22.7144 16.7954 22.9711 16.5154 23.2012 16.1279C23.4159 15.7673 23.608 15.3181 23.7744 14.8389L21.791 12.0371C21.6545 12.0332 21.5173 12.0273 21.3809 12.0273C21.267 12.0274 21.153 12.0326 21.0391 12.0352ZM12.8174 8.71484L13.8721 9.76953L14.9404 15.4316L16.9463 13.8467L14.9443 6.8418H12.8174V8.71484ZM20.4756 12.0605C19.9547 12.0954 19.4358 12.1584 18.9229 12.2529L18.9375 14.1299L20.4756 12.0605ZM23.7959 14.1152L23.7822 12.2422C23.3072 12.157 22.8277 12.0993 22.3467 12.0654L23.7959 14.1152ZM20.9404 10.5049L20.7656 10.5117C20.55 10.5201 20.3343 10.5333 20.1182 10.5508L20.0059 10.5596L18.7822 9.10645L19.4395 10.9961L19.3125 11.2559L17.3701 10.7715C17.6695 10.9821 18.0569 11.2568 18.3672 11.4824C18.5639 11.6254 18.7267 11.7472 18.8223 11.8252C18.8231 11.8261 18.8239 11.8263 18.8252 11.8271C19.6679 11.6708 20.5242 11.5908 21.3809 11.5908C22.2226 11.5908 23.0642 11.668 23.8926 11.8193L25.2959 10.8955L23.4482 11.3564L23.3623 11.2305C23.3151 11.1613 23.2647 11.094 23.2109 11.0303L23.1318 10.9355L23.7676 9.10645L22.5557 10.5459L22.4453 10.5381C22.2677 10.5257 22.0915 10.5157 21.917 10.5098L21.7412 10.5039L21.3408 8.33691L20.9404 10.5049ZM12.042 6.4043H15.6797V5.28906H12.042V6.4043ZM13.9277 0.00292969C14.0352 0.0123312 14.1382 0.0469172 14.2402 0.0966797C14.3418 0.146962 14.4424 0.213318 14.543 0.292969C14.7442 0.453379 14.9447 0.668768 15.126 0.923828C15.4875 1.43279 15.7767 2.10195 15.7783 2.80469C15.7783 2.83509 15.7773 2.86608 15.7764 2.89648C15.7509 3.58217 15.5839 4.03449 15.4111 4.31738C15.2397 4.60015 15.0642 4.71068 15.0381 4.72559L14.8828 4.46094L14.8145 4.35059L14.8232 4.34375C14.8328 4.33724 14.8493 4.32447 14.8701 4.30469C14.912 4.26485 14.9739 4.19708 15.0391 4.08984C15.1691 3.87568 15.3174 3.50305 15.3408 2.87988C15.3418 2.85465 15.3418 2.82951 15.3418 2.80469C15.3422 2.42476 15.2356 2.03664 15.0703 1.68652C14.9049 1.33676 14.6811 1.02588 14.459 0.802734C14.3117 0.654321 14.1639 0.545581 14.0479 0.488281C14.0149 0.471886 13.9845 0.459337 13.958 0.451172L13.8916 0.4375L13.8613 0.436523C13.8549 0.436523 13.8555 0.437001 13.8516 0.4375C13.8506 0.439302 13.85 0.438362 13.8496 0.44043C13.8441 0.460334 13.8375 0.492859 13.8311 0.53418C13.8042 0.699042 13.7733 0.993587 13.5713 1.30859C13.4373 1.51974 13.2306 1.73907 12.917 1.95215C12.6829 2.11154 12.5293 2.29687 12.4307 2.49414C12.332 2.69139 12.2891 2.90362 12.2891 3.11523C12.2886 3.39221 12.3644 3.66793 12.4814 3.88965C12.5966 4.11231 12.7562 4.27605 12.8916 4.3418L12.6963 4.73242C12.4468 4.60586 12.2441 4.3753 12.0947 4.09277C11.9457 3.80984 11.853 3.47039 11.8525 3.11523C11.8525 2.84446 11.9082 2.56372 12.04 2.2998C12.1715 2.0354 12.3791 1.78947 12.6709 1.5918C12.9853 1.37705 13.149 1.17917 13.2441 1.00684C13.3377 0.833572 13.3663 0.682422 13.3887 0.540039C13.4047 0.443877 13.4122 0.352197 13.457 0.245117C13.4824 0.185421 13.5296 0.117067 13.5996 0.0703125C13.6802 0.0167451 13.7733 0 13.8613 0C13.8831 1.29476e-05 13.9054 0.00109472 13.9277 0.00292969Z"/>
</mask>
<path d="M16.1162 6.8418H15.3984L17.3164 13.5537L17.7881 13.1807L18.5127 15.0264L18.5059 14.7881V14.7812L18.4844 12.1152C18.468 12.1027 18.4594 12.095 18.4395 12.0801C18.3293 11.9964 18.1737 11.8818 18.001 11.7568C17.6548 11.5068 17.2393 11.2128 16.9619 11.0176C16.7916 10.8976 16.6776 10.8191 16.6602 10.8066C16.6586 10.8056 16.6533 10.8008 16.6533 10.8008L16.6543 10.7998C16.5627 10.7371 16.5088 10.6349 16.5088 10.5283C16.5088 10.485 16.5178 10.4397 16.5361 10.3984C16.5889 10.275 16.7085 10.1994 16.8379 10.1992C16.8648 10.1992 16.8926 10.202 16.9189 10.209H16.918L18.873 10.6963L18.1797 8.70215C18.1678 8.6673 18.1621 8.63048 18.1621 8.59473C18.1621 8.50812 18.1963 8.42415 18.2578 8.3623L18.3281 8.30859C18.3794 8.27889 18.4361 8.26465 18.4912 8.26465C18.5859 8.26469 18.6799 8.30659 18.7441 8.38281L20.1973 10.1084C20.3226 10.0989 20.4488 10.0919 20.5742 10.085L21.0176 7.6875C21.0464 7.53118 21.1825 7.41755 21.3408 7.41797C21.4997 7.41797 21.6361 7.53112 21.665 7.6875L22.1074 10.082C22.193 10.0865 22.2782 10.0902 22.3633 10.0957L23.8066 8.38281C23.8709 8.30658 23.964 8.26465 24.0586 8.26465C24.1143 8.2647 24.1715 8.27931 24.2217 8.30859V8.30762C24.3271 8.36795 24.3882 8.47925 24.3877 8.59473C24.3877 8.63109 24.3825 8.66777 24.3701 8.70312L23.623 10.8516C23.6254 10.8545 23.6279 10.8575 23.6299 10.8604L25.7969 10.3203C25.8248 10.3128 25.8525 10.3096 25.8789 10.3096C25.9762 10.3097 26.0677 10.3525 26.1299 10.4258L26.1816 10.5088C26.1994 10.5504 26.2079 10.5951 26.208 10.6387C26.208 10.7473 26.1533 10.8532 26.0576 10.915H26.0586L26.0566 10.916V10.917L24.2178 12.1279L24.2383 14.7197V14.7266C24.2383 14.7623 24.2359 14.7902 24.2354 14.8096L24.2227 15.4727L24.082 15.2744C23.9346 15.6644 23.7665 16.0317 23.5762 16.3516C23.3565 16.7175 23.1046 17.0182 22.8037 17.2158L24.3125 17.875C24.7524 18.0672 25.07 18.4648 25.1602 18.9365V18.9385L25.5215 21.0996L26.1689 20.2949C26.413 19.9912 26.7693 19.7977 27.1572 19.7588H27.1582C27.2063 19.7535 27.2553 19.751 27.3027 19.751C27.6409 19.751 27.9699 19.8694 28.2324 20.0869L30.8887 22.291C31.2349 22.578 31.4155 22.9946 31.415 23.4121C31.4149 23.7313 31.3098 24.0544 31.0947 24.3223L31.0957 24.3203L26.9238 29.4707L27.8398 34.9434L26.9639 35.1621L27.2891 37.3252H30.0654V43H11.585V37.3252H13.8711L14.3408 30.3447L14.9873 29.6777L14.2695 25.5654L15.3838 24.415L14.3789 21.8467H14.3799C14.3017 21.6625 14.2627 21.4686 14.2627 21.2773C14.2627 20.836 14.4639 20.4055 14.8311 20.123L14.8545 20.1045L13.6045 18.1621C13.4493 17.9196 13.3741 17.6458 13.374 17.376C13.374 16.9447 13.5658 16.5183 13.9268 16.2324L14.5537 15.7373L13.4688 9.98242L12.3818 8.89551V6.8418H11.6055V4.85254H16.1162V6.8418ZM12.0215 42.5635H29.6289V37.7617H12.0215V42.5635ZM14.1982 16.5752C13.9452 16.7754 13.8105 17.0726 13.8105 17.376C13.8106 17.5652 13.8631 17.7555 13.9727 17.9258L15.4385 20.2061L15.0967 20.4688C14.8402 20.6665 14.6997 20.9681 14.6992 21.2773C14.6998 21.4132 14.726 21.5497 14.7822 21.6807L14.7842 21.6846L15.7178 24.0703L17.5166 22.2148L17.8301 22.5186L14.7383 25.709L15.3633 29.291L16.8613 27.7441L17.1758 28.0479L14.7656 30.5342L14.3086 37.3252H26.8477L26.4727 34.835L27.3428 34.6182L24.7305 19.0176C24.6677 18.6879 24.4458 18.41 24.1387 18.2754L18.3232 15.7354L17.5967 13.8877L14.1982 16.5752ZM22.4941 28.4385L19.9375 35.1475L19.5303 34.9922L22.0859 28.2832L22.4941 28.4385ZM27.2012 20.1934C26.9292 20.2213 26.6797 20.3561 26.5088 20.5693L25.6182 21.6758L26.8271 28.8965L30.7529 24.0508L30.7539 24.0488C30.9047 23.8597 30.9789 23.6365 30.9795 23.4121C30.979 23.1182 30.8534 22.8287 30.6104 22.627L27.9541 20.4229C27.7708 20.2704 27.5394 20.1885 27.3027 20.1885C27.2691 20.1885 27.2348 20.1899 27.2012 20.1934ZM21.0391 12.0352L18.6172 15.292L18.6631 15.4082L22.5557 17.1084L22.4619 16.9199C22.7144 16.7954 22.9711 16.5154 23.2012 16.1279C23.4159 15.7673 23.608 15.3181 23.7744 14.8389L21.791 12.0371C21.6545 12.0332 21.5173 12.0273 21.3809 12.0273C21.267 12.0274 21.153 12.0326 21.0391 12.0352ZM12.8174 8.71484L13.8721 9.76953L14.9404 15.4316L16.9463 13.8467L14.9443 6.8418H12.8174V8.71484ZM20.4756 12.0605C19.9547 12.0954 19.4358 12.1584 18.9229 12.2529L18.9375 14.1299L20.4756 12.0605ZM23.7959 14.1152L23.7822 12.2422C23.3072 12.157 22.8277 12.0993 22.3467 12.0654L23.7959 14.1152ZM20.9404 10.5049L20.7656 10.5117C20.55 10.5201 20.3343 10.5333 20.1182 10.5508L20.0059 10.5596L18.7822 9.10645L19.4395 10.9961L19.3125 11.2559L17.3701 10.7715C17.6695 10.9821 18.0569 11.2568 18.3672 11.4824C18.5639 11.6254 18.7267 11.7472 18.8223 11.8252C18.8231 11.8261 18.8239 11.8263 18.8252 11.8271C19.6679 11.6708 20.5242 11.5908 21.3809 11.5908C22.2226 11.5908 23.0642 11.668 23.8926 11.8193L25.2959 10.8955L23.4482 11.3564L23.3623 11.2305C23.3151 11.1613 23.2647 11.094 23.2109 11.0303L23.1318 10.9355L23.7676 9.10645L22.5557 10.5459L22.4453 10.5381C22.2677 10.5257 22.0915 10.5157 21.917 10.5098L21.7412 10.5039L21.3408 8.33691L20.9404 10.5049ZM12.042 6.4043H15.6797V5.28906H12.042V6.4043ZM13.9277 0.00292969C14.0352 0.0123312 14.1382 0.0469172 14.2402 0.0966797C14.3418 0.146962 14.4424 0.213318 14.543 0.292969C14.7442 0.453379 14.9447 0.668768 15.126 0.923828C15.4875 1.43279 15.7767 2.10195 15.7783 2.80469C15.7783 2.83509 15.7773 2.86608 15.7764 2.89648C15.7509 3.58217 15.5839 4.03449 15.4111 4.31738C15.2397 4.60015 15.0642 4.71068 15.0381 4.72559L14.8828 4.46094L14.8145 4.35059L14.8232 4.34375C14.8328 4.33724 14.8493 4.32447 14.8701 4.30469C14.912 4.26485 14.9739 4.19708 15.0391 4.08984C15.1691 3.87568 15.3174 3.50305 15.3408 2.87988C15.3418 2.85465 15.3418 2.82951 15.3418 2.80469C15.3422 2.42476 15.2356 2.03664 15.0703 1.68652C14.9049 1.33676 14.6811 1.02588 14.459 0.802734C14.3117 0.654321 14.1639 0.545581 14.0479 0.488281C14.0149 0.471886 13.9845 0.459337 13.958 0.451172L13.8916 0.4375L13.8613 0.436523C13.8549 0.436523 13.8555 0.437001 13.8516 0.4375C13.8506 0.439302 13.85 0.438362 13.8496 0.44043C13.8441 0.460334 13.8375 0.492859 13.8311 0.53418C13.8042 0.699042 13.7733 0.993587 13.5713 1.30859C13.4373 1.51974 13.2306 1.73907 12.917 1.95215C12.6829 2.11154 12.5293 2.29687 12.4307 2.49414C12.332 2.69139 12.2891 2.90362 12.2891 3.11523C12.2886 3.39221 12.3644 3.66793 12.4814 3.88965C12.5966 4.11231 12.7562 4.27605 12.8916 4.3418L12.6963 4.73242C12.4468 4.60586 12.2441 4.3753 12.0947 4.09277C11.9457 3.80984 11.853 3.47039 11.8525 3.11523C11.8525 2.84446 11.9082 2.56372 12.04 2.2998C12.1715 2.0354 12.3791 1.78947 12.6709 1.5918C12.9853 1.37705 13.149 1.17917 13.2441 1.00684C13.3377 0.833572 13.3663 0.682422 13.3887 0.540039C13.4047 0.443877 13.4122 0.352197 13.457 0.245117C13.4824 0.185421 13.5296 0.117067 13.5996 0.0703125C13.6802 0.0167451 13.7733 0 13.8613 0C13.8831 1.29476e-05 13.9054 0.00109472 13.9277 0.00292969Z" fill="#004236"/>
<path d="M16.1162 6.8418V7.0418H16.3162V6.8418H16.1162ZM15.3984 6.8418V6.6418H15.1333L15.2061 6.89675L15.3984 6.8418ZM17.3164 13.5537L17.1241 13.6087L17.2062 13.8959L17.4405 13.7106L17.3164 13.5537ZM17.7881 13.1807L17.9743 13.1076L17.8757 12.8564L17.664 13.0238L17.7881 13.1807ZM18.5127 15.0264L18.3265 15.0995L18.7126 15.0206L18.5127 15.0264ZM18.5059 14.7881H18.3058L18.3059 14.7938L18.5059 14.7881ZM18.5059 14.7812H18.7059L18.7059 14.7796L18.5059 14.7812ZM18.4844 12.1152L18.6844 12.1136L18.6836 12.0157L18.6058 11.9563L18.4844 12.1152ZM18.4395 12.0801L18.3184 12.2393L18.3193 12.24L18.4395 12.0801ZM18.001 11.7568L18.1182 11.5948L18.1181 11.5947L18.001 11.7568ZM16.9619 11.0176L16.8467 11.1811L16.8468 11.1811L16.9619 11.0176ZM16.6602 10.8066L16.7762 10.6436L16.7712 10.6403L16.6602 10.8066ZM16.6533 10.8008L16.5119 10.6594L16.3638 10.8075L16.5186 10.9486L16.6533 10.8008ZM16.6543 10.7998L16.7957 10.9412L16.9661 10.7708L16.7673 10.6348L16.6543 10.7998ZM16.5088 10.5283H16.3088V10.5284L16.5088 10.5283ZM16.5361 10.3984L16.7189 10.4797L16.72 10.4771L16.5361 10.3984ZM16.8379 10.1992V9.99922H16.8377L16.8379 10.1992ZM16.9189 10.209V10.409L16.9701 10.0156L16.9189 10.209ZM16.918 10.209V10.009L16.8696 10.403L16.918 10.209ZM18.873 10.6963L18.8247 10.8904L19.1834 10.9798L19.062 10.6306L18.873 10.6963ZM18.1797 8.70215L17.9903 8.76657L17.9908 8.76783L18.1797 8.70215ZM18.1621 8.59473L17.9621 8.59468V8.59473H18.1621ZM18.2578 8.3623L18.1364 8.20337L18.1256 8.21163L18.116 8.22129L18.2578 8.3623ZM18.3281 8.30859L18.2279 8.13554L18.2168 8.14192L18.2067 8.14966L18.3281 8.30859ZM18.4912 8.26465L18.4913 8.06465H18.4912V8.26465ZM18.7441 8.38281L18.8971 8.25399L18.8971 8.25395L18.7441 8.38281ZM20.1973 10.1084L20.0443 10.2372L20.1102 10.3155L20.2123 10.3078L20.1973 10.1084ZM20.5742 10.085L20.5853 10.2847L20.7423 10.2759L20.7709 10.1213L20.5742 10.085ZM21.0176 7.6875L21.2142 7.72387L21.2143 7.72373L21.0176 7.6875ZM21.3408 7.41797L21.3403 7.61797H21.3408V7.41797ZM21.665 7.6875L21.8617 7.65117L21.665 7.6875ZM22.1074 10.082L21.9108 10.1184L21.9394 10.2736L22.097 10.2818L22.1074 10.082ZM22.3633 10.0957L22.3503 10.2953L22.4511 10.3018L22.5162 10.2246L22.3633 10.0957ZM23.8066 8.38281L23.6537 8.25393L23.6537 8.25394L23.8066 8.38281ZM24.0586 8.26465L24.0588 8.06465H24.0586V8.26465ZM24.2217 8.30859L24.1209 8.48134L24.4217 8.65686V8.30859H24.2217ZM24.2217 8.30762L24.321 8.13403L24.0217 7.96273V8.30762H24.2217ZM24.3877 8.59473L24.1877 8.59385V8.59472L24.3877 8.59473ZM24.3701 8.70312L24.1814 8.6368L24.1812 8.63744L24.3701 8.70312ZM23.623 10.8516L23.4341 10.7859L23.3977 10.8906L23.4673 10.977L23.623 10.8516ZM23.6299 10.8604L23.4658 10.9747L23.5446 11.0877L23.6782 11.0544L23.6299 10.8604ZM25.7969 10.3203L25.8452 10.5144L25.8487 10.5135L25.7969 10.3203ZM25.8789 10.3096L25.8791 10.1096H25.8789V10.3096ZM26.1299 10.4258L26.2996 10.32L26.2919 10.3076L26.2825 10.2965L26.1299 10.4258ZM26.1816 10.5088L26.3656 10.4303L26.3595 10.4161L26.3514 10.403L26.1816 10.5088ZM26.208 10.6387H26.408V10.6384L26.208 10.6387ZM26.0576 10.915L25.9491 10.7471L25.3796 11.115H26.0576V10.915ZM26.0586 10.915L26.148 11.0939L26.0586 10.715V10.915ZM26.0566 10.916L25.9672 10.7371L25.8566 10.7924V10.916H26.0566ZM26.0566 10.917L26.1666 11.084L26.2566 11.0248V10.917H26.0566ZM24.2178 12.1279L24.1078 11.9609L24.0169 12.0207L24.0178 12.1295L24.2178 12.1279ZM24.2383 14.7197H24.4383L24.4383 14.7181L24.2383 14.7197ZM24.2354 14.8096L24.0354 14.8044L24.0354 14.8057L24.2354 14.8096ZM24.2227 15.4727L24.0595 15.5884L24.411 16.0838L24.4226 15.4765L24.2227 15.4727ZM24.082 15.2744L24.2452 15.1587L24.0278 14.8523L23.895 15.2037L24.082 15.2744ZM23.5762 16.3516L23.7477 16.4545L23.748 16.4538L23.5762 16.3516ZM22.8037 17.2158L22.6939 17.0487L22.3854 17.2513L22.7236 17.3991L22.8037 17.2158ZM24.3125 17.875L24.3926 17.6917L24.3926 17.6917L24.3125 17.875ZM25.1602 18.9365H25.3602V18.9176L25.3566 18.899L25.1602 18.9365ZM25.1602 18.9385H24.9602V18.9551L24.9629 18.9715L25.1602 18.9385ZM25.5215 21.0996L25.3242 21.1326L25.3978 21.5724L25.6773 21.225L25.5215 21.0996ZM26.1689 20.2949L26.3248 20.4203L26.3249 20.4202L26.1689 20.2949ZM27.1572 19.7588V19.5588H27.1472L27.1373 19.5598L27.1572 19.7588ZM27.1582 19.7588V19.9588H27.1692L27.1802 19.9576L27.1582 19.7588ZM27.3027 19.751V19.551H27.3027L27.3027 19.751ZM28.2324 20.0869L28.3601 19.933L28.36 19.9329L28.2324 20.0869ZM30.8887 22.291L30.761 22.4449L30.761 22.445L30.8887 22.291ZM31.415 23.4121L31.215 23.4119V23.412L31.415 23.4121ZM31.0947 24.3223L30.9158 24.2328L31.2507 24.4475L31.0947 24.3223ZM31.0957 24.3203L31.2746 24.4098L30.9403 24.1944L31.0957 24.3203ZM26.9238 29.4707L26.7684 29.3448L26.7117 29.4148L26.7266 29.5037L26.9238 29.4707ZM27.8398 34.9434L27.8883 35.1374L28.0676 35.0926L28.0371 34.9103L27.8398 34.9434ZM26.9639 35.1621L26.9154 34.9681L26.7391 35.0121L26.7661 35.1918L26.9639 35.1621ZM27.2891 37.3252L27.0913 37.3549L27.1169 37.5252H27.2891V37.3252ZM30.0654 37.3252H30.2654V37.1252H30.0654V37.3252ZM30.0654 43V43.2H30.2654V43H30.0654ZM11.585 43H11.385V43.2H11.585V43ZM11.585 37.3252V37.1252H11.385V37.3252H11.585ZM13.8711 37.3252V37.5252H14.0581L14.0706 37.3386L13.8711 37.3252ZM14.3408 30.3447L14.1972 30.2055L14.1462 30.2582L14.1413 30.3313L14.3408 30.3447ZM14.9873 29.6777L15.1309 29.8169L15.2019 29.7437L15.1843 29.6433L14.9873 29.6777ZM14.2695 25.5654L14.1259 25.4263L14.055 25.4995L14.0725 25.5998L14.2695 25.5654ZM15.3838 24.415L15.5274 24.5542L15.6169 24.4619L15.57 24.3422L15.3838 24.415ZM14.3789 21.8467V21.6467H14.0859L14.1927 21.9196L14.3789 21.8467ZM14.3799 21.8467V22.0467H14.682L14.564 21.7686L14.3799 21.8467ZM14.2627 21.2773H14.0627V21.2774L14.2627 21.2773ZM14.8311 20.123L14.953 20.2816L14.9552 20.2799L14.8311 20.123ZM14.8545 20.1045L14.9786 20.2613L15.1208 20.1487L15.0227 19.9963L14.8545 20.1045ZM13.6045 18.1621L13.436 18.2699L13.4363 18.2703L13.6045 18.1621ZM13.374 17.376H13.174V17.376L13.374 17.376ZM13.9268 16.2324L13.8028 16.0755L13.8026 16.0756L13.9268 16.2324ZM14.5537 15.7373L14.6777 15.8943L14.7727 15.8192L14.7502 15.7003L14.5537 15.7373ZM13.4688 9.98242L13.6653 9.94537L13.6538 9.88467L13.6102 9.841L13.4688 9.98242ZM12.3818 8.89551H12.1818V8.97835L12.2404 9.03693L12.3818 8.89551ZM12.3818 6.8418H12.5818V6.6418H12.3818V6.8418ZM11.6055 6.8418H11.4055V7.0418H11.6055V6.8418ZM11.6055 4.85254V4.65254H11.4055V4.85254H11.6055ZM16.1162 4.85254H16.3162V4.65254H16.1162V4.85254ZM12.0215 42.5635H11.8215V42.7635H12.0215V42.5635ZM29.6289 42.5635V42.7635H29.8289V42.5635H29.6289ZM29.6289 37.7617H29.8289V37.5617H29.6289V37.7617ZM12.0215 37.7617V37.5617H11.8215V37.7617H12.0215ZM14.1982 16.5752L14.0742 16.4183L14.0741 16.4184L14.1982 16.5752ZM13.8105 17.376H13.6105V17.376L13.8105 17.376ZM13.9727 17.9258L14.1409 17.8176L14.1409 17.8176L13.9727 17.9258ZM15.4385 20.2061L15.5604 20.3646L15.7061 20.2526L15.6067 20.0979L15.4385 20.2061ZM15.0967 20.4688L14.9748 20.3102L14.9746 20.3104L15.0967 20.4688ZM14.6992 21.2773L14.4992 21.277L14.4992 21.2781L14.6992 21.2773ZM14.7822 21.6807L14.5981 21.7597L14.6033 21.7701L14.7822 21.6807ZM14.7842 21.6846L14.9704 21.6117L14.9671 21.6032L14.9631 21.5951L14.7842 21.6846ZM15.7178 24.0703L15.5315 24.1432L15.6449 24.4328L15.8614 24.2095L15.7178 24.0703ZM17.5166 22.2148L17.6558 22.0712L17.5122 21.9321L17.373 22.0756L17.5166 22.2148ZM17.8301 22.5186L17.9737 22.6577L18.1129 22.5141L17.9692 22.3749L17.8301 22.5186ZM14.7383 25.709L14.5947 25.5698L14.5237 25.643L14.5413 25.7434L14.7383 25.709ZM15.3633 29.291L15.1663 29.3254L15.2338 29.7122L15.507 29.4302L15.3633 29.291ZM16.8613 27.7441L17.0003 27.6003L16.8566 27.4615L16.7177 27.605L16.8613 27.7441ZM17.1758 28.0479L17.3194 28.1871L17.4588 28.0432L17.3147 27.904L17.1758 28.0479ZM14.7656 30.5342L14.622 30.395L14.571 30.4476L14.5661 30.5208L14.7656 30.5342ZM14.3086 37.3252L14.109 37.3118L14.0947 37.5252H14.3086V37.3252ZM26.8477 37.3252V37.5252H27.08L27.0454 37.2954L26.8477 37.3252ZM26.4727 34.835L26.4243 34.6409L26.2478 34.6849L26.2749 34.8647L26.4727 34.835ZM27.3428 34.6182L27.3911 34.8122L27.5706 34.7675L27.54 34.5851L27.3428 34.6182ZM24.7305 19.0176L24.9278 18.9845L24.9269 18.9801L24.7305 19.0176ZM24.1387 18.2754L24.2189 18.0922L24.2187 18.0921L24.1387 18.2754ZM18.3232 15.7354L18.1371 15.8085L18.1674 15.8855L18.2432 15.9186L18.3232 15.7354ZM17.5967 13.8877L17.7828 13.8145L17.6841 13.5636L17.4726 13.7308L17.5967 13.8877ZM22.4941 28.4385L22.681 28.5097L22.7523 28.3227L22.5652 28.2515L22.4941 28.4385ZM19.9375 35.1475L19.8662 35.3343L20.0532 35.4056L20.1244 35.2187L19.9375 35.1475ZM19.5303 34.9922L19.3434 34.921L19.2722 35.1078L19.459 35.1791L19.5303 34.9922ZM22.0859 28.2832L22.157 28.0963L21.9702 28.0252L21.899 28.212L22.0859 28.2832ZM27.2012 20.1934L27.1809 19.9944L27.1807 19.9944L27.2012 20.1934ZM26.5088 20.5693L26.6646 20.6947L26.6648 20.6944L26.5088 20.5693ZM25.6182 21.6758L25.4624 21.5504L25.4061 21.6203L25.4209 21.7088L25.6182 21.6758ZM26.8271 28.8965L26.6299 28.9295L26.7032 29.3672L26.9825 29.0224L26.8271 28.8965ZM30.7529 24.0508L30.9083 24.1767L30.9221 24.1597L30.9318 24.1402L30.7529 24.0508ZM30.7539 24.0488L30.5975 23.9242L30.5844 23.9406L30.575 23.9594L30.7539 24.0488ZM30.9795 23.4121L31.1795 23.4126L31.1795 23.4118L30.9795 23.4121ZM30.6104 22.627L30.7381 22.4731L30.7381 22.473L30.6104 22.627ZM27.9541 20.4229L27.8262 20.5766L27.8264 20.5768L27.9541 20.4229ZM27.3027 20.1885V19.9885H27.3026L27.3027 20.1885ZM21.0391 12.0352L21.0346 11.8352L20.9369 11.8374L20.8786 11.9158L21.0391 12.0352ZM18.6172 15.292L18.4567 15.1726L18.3903 15.262L18.4312 15.3655L18.6172 15.292ZM18.6631 15.4082L18.4771 15.4817L18.5074 15.5584L18.583 15.5915L18.6631 15.4082ZM22.5557 17.1084L22.4756 17.2917L22.9797 17.5119L22.7347 17.0193L22.5557 17.1084ZM22.4619 16.9199L22.3734 16.7406L22.1935 16.8293L22.2828 17.009L22.4619 16.9199ZM23.2012 16.1279L23.0293 16.0256L23.0292 16.0258L23.2012 16.1279ZM23.7744 14.8389L23.9633 14.9045L23.9971 14.8073L23.9377 14.7233L23.7744 14.8389ZM21.791 12.0371L21.9543 11.9216L21.8966 11.8401L21.7968 11.8372L21.791 12.0371ZM21.3809 12.0273V11.8273H21.3808L21.3809 12.0273ZM12.8174 8.71484H12.6174V8.79769L12.676 8.85627L12.8174 8.71484ZM13.8721 9.76953L14.0686 9.73245L14.0572 9.67177L14.0135 9.62811L13.8721 9.76953ZM14.9404 15.4316L14.7439 15.4687L14.8052 15.7934L15.0644 15.5886L14.9404 15.4316ZM16.9463 13.8467L17.0703 14.0036L17.1754 13.9205L17.1386 13.7917L16.9463 13.8467ZM14.9443 6.8418L15.1366 6.78684L15.0952 6.6418H14.9443V6.8418ZM12.8174 6.8418V6.6418H12.6174V6.8418H12.8174ZM20.4756 12.0605L20.6361 12.1799L20.8946 11.8321L20.4622 11.861L20.4756 12.0605ZM18.9229 12.2529L18.8866 12.0562L18.7215 12.0867L18.7229 12.2545L18.9229 12.2529ZM18.9375 14.1299L18.7375 14.1314L18.7422 14.728L19.098 14.2492L18.9375 14.1299ZM23.7959 14.1152L23.6326 14.2307L24.0005 14.7511L23.9959 14.1138L23.7959 14.1152ZM23.7822 12.2422L23.9822 12.2407L23.981 12.0747L23.8175 12.0453L23.7822 12.2422ZM22.3467 12.0654L22.3607 11.8659L21.9397 11.8363L22.1834 12.1809L22.3467 12.0654ZM20.9404 10.5049L20.9482 10.7047L21.1081 10.6985L21.1371 10.5412L20.9404 10.5049ZM20.7656 10.5117L20.7734 10.7116L20.7734 10.7116L20.7656 10.5117ZM20.1182 10.5508L20.1338 10.7502L20.1343 10.7501L20.1182 10.5508ZM20.0059 10.5596L19.8529 10.6884L19.919 10.767L20.0215 10.759L20.0059 10.5596ZM18.7822 9.10645L18.9352 8.97762L18.5933 9.17215L18.7822 9.10645ZM19.4395 10.9961L19.6191 11.0839L19.6557 11.0091L19.6284 10.9304L19.4395 10.9961ZM19.3125 11.2559L19.2641 11.4499L19.4211 11.4891L19.4922 11.3437L19.3125 11.2559ZM17.3701 10.7715L17.4185 10.5774L17.255 10.9351L17.3701 10.7715ZM18.3672 11.4824L18.2496 11.6442L18.2496 11.6442L18.3672 11.4824ZM18.8223 11.8252L18.9637 11.6838L18.9566 11.6766L18.9487 11.6703L18.8223 11.8252ZM18.8252 11.8271L18.7127 11.9925L18.7807 12.0388L18.8617 12.0238L18.8252 11.8271ZM21.3809 11.5908V11.3908H21.3809L21.3809 11.5908ZM23.8926 11.8193L23.8566 12.0161L23.9355 12.0305L24.0026 11.9864L23.8926 11.8193ZM25.2959 10.8955L25.4059 11.0626L25.2475 10.7015L25.2959 10.8955ZM23.4482 11.3564L23.283 11.4692L23.3615 11.5842L23.4967 11.5505L23.4482 11.3564ZM23.3623 11.2305L23.1971 11.3432L23.1971 11.3432L23.3623 11.2305ZM23.2109 11.0303L23.0574 11.1585L23.058 11.1592L23.2109 11.0303ZM23.1318 10.9355L22.9429 10.8699L22.9058 10.9768L22.9783 11.0637L23.1318 10.9355ZM23.7676 9.10645L23.9565 9.17211L23.6146 8.97763L23.7676 9.10645ZM22.5557 10.5459L22.5415 10.7454L22.6431 10.7526L22.7087 10.6747L22.5557 10.5459ZM22.4453 10.5381L22.4594 10.3386L22.4593 10.3386L22.4453 10.5381ZM21.917 10.5098L21.9238 10.3099L21.9237 10.3099L21.917 10.5098ZM21.7412 10.5039L21.5445 10.5402L21.5738 10.6984L21.7345 10.7038L21.7412 10.5039ZM21.3408 8.33691L21.5375 8.30058L21.1441 8.30059L21.3408 8.33691ZM12.042 6.4043H11.842V6.6043H12.042V6.4043ZM15.6797 6.4043V6.6043H15.8797V6.4043H15.6797ZM15.6797 5.28906H15.8797V5.08906H15.6797V5.28906ZM12.042 5.28906V5.08906H11.842V5.28906H12.042ZM13.9277 0.00292969L13.9452 -0.196312L13.9441 -0.1964L13.9277 0.00292969ZM14.2402 0.0966797L14.329 -0.0825632L14.3279 -0.0830949L14.2402 0.0966797ZM14.543 0.292969L14.6676 0.136578L14.6671 0.136187L14.543 0.292969ZM15.126 0.923828L15.289 0.808001L15.289 0.807946L15.126 0.923828ZM15.7783 2.80469H15.9783L15.9783 2.80424L15.7783 2.80469ZM15.7764 2.89648L15.9762 2.90392L15.9763 2.90256L15.7764 2.89648ZM15.4111 4.31738L15.2405 4.21312L15.2401 4.21368L15.4111 4.31738ZM15.0381 4.72559L14.8656 4.8268L14.9657 4.99736L15.1373 4.89922L15.0381 4.72559ZM14.8828 4.46094L15.0554 4.3597L15.0528 4.35561L14.8828 4.46094ZM14.8145 4.35059L14.6917 4.19272L14.5498 4.30308L14.6444 4.45591L14.8145 4.35059ZM14.8232 4.34375L14.7107 4.17787L14.7005 4.18588L14.8232 4.34375ZM14.8701 4.30469L14.7323 4.15976L14.7322 4.15982L14.8701 4.30469ZM15.0391 4.08984L15.21 4.19368L15.21 4.19363L15.0391 4.08984ZM15.3408 2.87988L15.141 2.87198L15.141 2.87237L15.3408 2.87988ZM15.3418 2.80469L15.1418 2.80445V2.80469H15.3418ZM15.0703 1.68652L15.2512 1.60113L15.2511 1.60101L15.0703 1.68652ZM14.459 0.802734L14.317 0.943633L14.3172 0.94383L14.459 0.802734ZM14.0479 0.488281L13.9589 0.667394L13.9593 0.66761L14.0479 0.488281ZM13.958 0.451172L14.017 0.260074L14.0078 0.257227L13.9983 0.25528L13.958 0.451172ZM13.8916 0.4375L13.9319 0.241609L13.9152 0.238156L13.898 0.237604L13.8916 0.4375ZM13.8613 0.436523L13.8678 0.236523H13.8613V0.436523ZM13.8516 0.4375L13.8261 0.239124L13.7212 0.252582L13.6733 0.346906L13.8516 0.4375ZM13.8496 0.44043L14.0427 0.494201L14.0454 0.481293L13.8496 0.44043ZM13.8311 0.53418L14.0285 0.566338L14.0286 0.565104L13.8311 0.53418ZM13.5713 1.30859L13.4029 1.20064L13.4024 1.20143L13.5713 1.30859ZM12.917 1.95215L12.8046 1.78673L12.8044 1.78682L12.917 1.95215ZM12.4307 2.49414L12.6095 2.58361L12.6096 2.58356L12.4307 2.49414ZM12.2891 3.11523L12.4891 3.11554V3.11524L12.2891 3.11523ZM12.4814 3.88965L12.6591 3.79778L12.6583 3.79626L12.4814 3.88965ZM12.8916 4.3418L13.0705 4.43124L13.161 4.25024L12.9789 4.16188L12.8916 4.3418ZM12.6963 4.73242L12.6058 4.91079L12.7852 5.00179L12.8752 4.82186L12.6963 4.73242ZM12.0947 4.09277L11.9178 4.18595L11.9179 4.18627L12.0947 4.09277ZM11.8525 3.11523H11.6525L11.6525 3.11552L11.8525 3.11523ZM12.04 2.2998L12.219 2.3892L12.2191 2.38886L12.04 2.2998ZM12.6709 1.5918L12.7831 1.75738L12.7837 1.75694L12.6709 1.5918ZM13.2441 1.00684L13.4192 1.10351L13.4201 1.10188L13.2441 1.00684ZM13.3887 0.540039L13.1914 0.50713L13.1911 0.509047L13.3887 0.540039ZM13.457 0.245117L13.273 0.166802L13.2726 0.167855L13.457 0.245117ZM13.5996 0.0703125L13.4889 -0.0962733L13.4886 -0.0960363L13.5996 0.0703125ZM13.8613 0L13.8614 -0.2H13.8613V0ZM16.1162 6.8418V6.6418H15.3984V6.8418V7.0418H16.1162V6.8418ZM15.3984 6.8418L15.2061 6.89675L17.1241 13.6087L17.3164 13.5537L17.5087 13.4988L15.5907 6.78685L15.3984 6.8418ZM17.3164 13.5537L17.4405 13.7106L17.9122 13.3375L17.7881 13.1807L17.664 13.0238L17.1923 13.3968L17.3164 13.5537ZM17.7881 13.1807L17.6019 13.2538L18.3265 15.0995L18.5127 15.0264L18.6989 14.9533L17.9743 13.1076L17.7881 13.1807ZM18.5127 15.0264L18.7126 15.0206L18.7058 14.7824L18.5059 14.7881L18.3059 14.7938L18.3128 15.0321L18.5127 15.0264ZM18.5059 14.7881H18.7059V14.7812H18.5059H18.3059V14.7881H18.5059ZM18.5059 14.7812L18.7059 14.7796L18.6844 12.1136L18.4844 12.1152L18.2844 12.1168L18.3059 14.7829L18.5059 14.7812ZM18.4844 12.1152L18.6058 11.9563C18.5998 11.9517 18.5955 11.9483 18.5882 11.9424C18.5807 11.9365 18.5718 11.9294 18.5596 11.9202L18.4395 12.0801L18.3193 12.24C18.327 12.2457 18.3323 12.25 18.3383 12.2547C18.3443 12.2596 18.3526 12.2662 18.3629 12.2742L18.4844 12.1152ZM18.4395 12.0801L18.5605 11.9208C18.4485 11.8358 18.2915 11.7202 18.1182 11.5948L18.001 11.7568L17.8837 11.9189C18.0559 12.0435 18.2101 12.157 18.3184 12.2393L18.4395 12.0801ZM18.001 11.7568L18.1181 11.5947C17.7709 11.344 17.3546 11.0494 17.077 10.854L16.9619 11.0176L16.8468 11.1811C17.1239 11.3762 17.5387 11.6697 17.8839 11.919L18.001 11.7568ZM16.9619 11.0176L17.0771 10.8541C16.9023 10.7309 16.7946 10.6568 16.7761 10.6437L16.6602 10.8066L16.5442 10.9696C16.5607 10.9813 16.6809 11.0642 16.8467 11.1811L16.9619 11.0176ZM16.6602 10.8066L16.7712 10.6403C16.7777 10.6446 16.7823 10.6483 16.7833 10.6491C16.7851 10.6505 16.7864 10.6516 16.7869 10.652C16.788 10.6529 16.7886 10.6534 16.7884 10.6533C16.7883 10.6532 16.7882 10.6531 16.788 10.6529C16.788 10.6529 16.7879 10.6529 16.7879 10.6529C16.7879 10.6528 16.7879 10.6528 16.7879 10.6528C16.7879 10.6528 16.7879 10.6528 16.7879 10.6529C16.7879 10.6529 16.788 10.6529 16.788 10.6529C16.788 10.6529 16.788 10.6529 16.788 10.6529C16.788 10.6529 16.788 10.653 16.788 10.653C16.788 10.653 16.788 10.653 16.788 10.653C16.788 10.653 16.788 10.653 16.7881 10.653C16.7881 10.653 16.7881 10.653 16.6533 10.8008C16.5186 10.9486 16.5186 10.9486 16.5186 10.9486C16.5186 10.9486 16.5186 10.9486 16.5186 10.9486C16.5186 10.9486 16.5186 10.9486 16.5186 10.9486C16.5186 10.9486 16.5186 10.9486 16.5186 10.9486C16.5187 10.9486 16.5187 10.9487 16.5187 10.9487C16.5187 10.9487 16.5188 10.9488 16.5188 10.9488C16.5189 10.9489 16.5191 10.949 16.5192 10.9492C16.5195 10.9494 16.5199 10.9498 16.5203 10.9502C16.5212 10.951 16.5225 10.9521 16.524 10.9534C16.5253 10.9546 16.5275 10.9565 16.53 10.9586C16.5312 10.9596 16.5332 10.9612 16.5355 10.9631C16.5371 10.9643 16.5423 10.9684 16.5491 10.973L16.6602 10.8066ZM16.6533 10.8008L16.7947 10.9422L16.7957 10.9412L16.6543 10.7998L16.5129 10.6584L16.5119 10.6594L16.6533 10.8008ZM16.6543 10.7998L16.7673 10.6348C16.7289 10.6085 16.7088 10.5675 16.7088 10.5282L16.5088 10.5283L16.3088 10.5284C16.3089 10.7023 16.3964 10.8657 16.5413 10.9649L16.6543 10.7998ZM16.5088 10.5283H16.7088C16.7088 10.5117 16.7124 10.4942 16.7189 10.4797L16.5361 10.3984L16.3534 10.3172C16.3231 10.3852 16.3088 10.4583 16.3088 10.5283H16.5088ZM16.5361 10.3984L16.72 10.4771C16.7406 10.4289 16.7868 10.3993 16.8381 10.3992L16.8379 10.1992L16.8377 9.99922C16.6302 9.99945 16.4372 10.1211 16.3522 10.3198L16.5361 10.3984ZM16.8379 10.1992V10.3992C16.8516 10.3992 16.8617 10.4007 16.8678 10.4023L16.9189 10.209L16.9701 10.0156C16.9235 10.0033 16.8779 9.99922 16.8379 9.99922V10.1992ZM16.9189 10.209V10.009H16.918V10.209V10.409H16.9189V10.209ZM16.918 10.209L16.8696 10.403L18.8247 10.8904L18.873 10.6963L18.9214 10.5022L16.9663 10.0149L16.918 10.209ZM18.873 10.6963L19.062 10.6306L18.3686 8.63647L18.1797 8.70215L17.9908 8.76783L18.6841 10.762L18.873 10.6963ZM18.1797 8.70215L18.369 8.63772C18.3646 8.62459 18.3621 8.60962 18.3621 8.59473H18.1621H17.9621C17.9621 8.65135 17.9711 8.71001 17.9903 8.76657L18.1797 8.70215ZM18.1621 8.59473L18.3621 8.59477C18.3621 8.56047 18.3758 8.52733 18.3996 8.50332L18.2578 8.3623L18.116 8.22129C18.0169 8.32097 17.9621 8.45578 17.9621 8.59468L18.1621 8.59473ZM18.2578 8.3623L18.3792 8.52124L18.4495 8.46753L18.3281 8.30859L18.2067 8.14966L18.1364 8.20337L18.2578 8.3623ZM18.3281 8.30859L18.4284 8.48165C18.4483 8.47012 18.4703 8.46465 18.4912 8.46465V8.26465V8.06465C18.402 8.06465 18.3105 8.08767 18.2279 8.13554L18.3281 8.30859ZM18.4912 8.26465L18.4911 8.46465C18.5278 8.46466 18.5656 8.48127 18.5912 8.51168L18.7441 8.38281L18.8971 8.25395C18.7943 8.13191 18.644 8.06471 18.4913 8.06465L18.4912 8.26465ZM18.7441 8.38281L18.5912 8.51164L20.0443 10.2372L20.1973 10.1084L20.3502 9.97957L18.8971 8.25399L18.7441 8.38281ZM20.1973 10.1084L20.2123 10.3078C20.3353 10.2985 20.4596 10.2916 20.5853 10.2847L20.5742 10.085L20.5631 9.88527C20.4381 9.89221 20.3098 9.89932 20.1822 9.90897L20.1973 10.1084ZM20.5742 10.085L20.7709 10.1213L21.2142 7.72387L21.0176 7.6875L20.8209 7.65113L20.3776 10.0486L20.5742 10.085ZM21.0176 7.6875L21.2143 7.72373C21.2257 7.66175 21.2794 7.61781 21.3403 7.61797L21.3408 7.41797L21.3413 7.21797C21.0856 7.2173 20.8671 7.40062 20.8209 7.65127L21.0176 7.6875ZM21.3408 7.41797V7.61797C21.4036 7.61797 21.4571 7.66258 21.4684 7.72383L21.665 7.6875L21.8617 7.65117C21.8152 7.39966 21.5959 7.21797 21.3408 7.21797V7.41797ZM21.665 7.6875L21.4684 7.72383L21.9108 10.1184L22.1074 10.082L22.3041 10.0457L21.8617 7.65117L21.665 7.6875ZM22.1074 10.082L22.097 10.2818C22.1849 10.2863 22.267 10.2899 22.3503 10.2953L22.3633 10.0957L22.3763 9.89612C22.2895 9.89048 22.201 9.88663 22.1178 9.8823L22.1074 10.082ZM22.3633 10.0957L22.5162 10.2246L23.9596 8.51169L23.8066 8.38281L23.6537 8.25394L22.2103 9.96683L22.3633 10.0957ZM23.8066 8.38281L23.9596 8.5117C23.9856 8.48076 24.0227 8.46465 24.0586 8.46465V8.26465V8.06465C23.9053 8.06465 23.7561 8.13239 23.6537 8.25393L23.8066 8.38281ZM24.0586 8.26465L24.0584 8.46465C24.0801 8.46467 24.1024 8.47052 24.1209 8.48134L24.2217 8.30859L24.3225 8.13585C24.2406 8.0881 24.1485 8.06472 24.0588 8.06465L24.0586 8.26465ZM24.2217 8.30859H24.4217V8.30762H24.2217H24.0217V8.30859H24.2217ZM24.2217 8.30762L24.1223 8.4812C24.1638 8.50496 24.1879 8.54879 24.1877 8.59385L24.3877 8.59473L24.5877 8.5956C24.5885 8.40971 24.4904 8.23094 24.321 8.13403L24.2217 8.30762ZM24.3877 8.59473L24.1877 8.59472C24.1877 8.61234 24.1852 8.6261 24.1814 8.6368L24.3701 8.70312L24.5588 8.76945C24.5799 8.70944 24.5877 8.64984 24.5877 8.59473L24.3877 8.59473ZM24.3701 8.70312L24.1812 8.63744L23.4341 10.7859L23.623 10.8516L23.812 10.9172L24.559 8.76881L24.3701 8.70312ZM23.623 10.8516L23.4673 10.977C23.4678 10.9776 23.4692 10.9793 23.4692 10.9794C23.4696 10.9799 23.4697 10.98 23.4697 10.98C23.4696 10.9799 23.4692 10.9794 23.4687 10.9787C23.4681 10.9779 23.4671 10.9765 23.4658 10.9747L23.6299 10.8604L23.7939 10.746C23.7897 10.7398 23.7858 10.7348 23.7835 10.732C23.7816 10.7295 23.7789 10.7262 23.7788 10.7261L23.623 10.8516ZM23.6299 10.8604L23.6782 11.0544L25.8452 10.5144L25.7969 10.3203L25.7485 10.1262L23.5815 10.6663L23.6299 10.8604ZM25.7969 10.3203L25.8487 10.5135C25.8586 10.5108 25.8689 10.5096 25.8789 10.5096V10.3096V10.1096C25.836 10.1096 25.7909 10.1149 25.7451 10.1271L25.7969 10.3203ZM25.8789 10.3096L25.8787 10.5096C25.9173 10.5096 25.9531 10.5265 25.9773 10.5551L26.1299 10.4258L26.2825 10.2965C26.1824 10.1784 26.0352 10.1097 25.8791 10.1096L25.8789 10.3096ZM26.1299 10.4258L25.9602 10.5316L26.0119 10.6146L26.1816 10.5088L26.3514 10.403L26.2996 10.32L26.1299 10.4258ZM26.1816 10.5088L25.9977 10.5873C26.0044 10.6029 26.008 10.6208 26.008 10.639L26.208 10.6387L26.408 10.6384C26.4079 10.5693 26.3944 10.4979 26.3656 10.4303L26.1816 10.5088ZM26.208 10.6387H26.008C26.008 10.6812 25.9862 10.7231 25.9491 10.7471L26.0576 10.915L26.1662 11.083C26.3204 10.9834 26.408 10.8133 26.408 10.6387H26.208ZM26.0576 10.915V11.115H26.0586V10.915V10.715H26.0576V10.915ZM26.0586 10.915L25.9692 10.7362L25.9672 10.7371L26.0566 10.916L26.1461 11.0949L26.148 11.0939L26.0586 10.915ZM26.0566 10.916H25.8566V10.917H26.0566H26.2566V10.916H26.0566ZM26.0566 10.917L25.9466 10.75L24.1078 11.9609L24.2178 12.1279L24.3278 12.295L26.1666 11.084L26.0566 10.917ZM24.2178 12.1279L24.0178 12.1295L24.0383 14.7213L24.2383 14.7197L24.4383 14.7181L24.4178 12.1263L24.2178 12.1279ZM24.2383 14.7197H24.0383V14.7266H24.2383H24.4383V14.7197H24.2383ZM24.2383 14.7266H24.0383C24.0383 14.7399 24.0378 14.7523 24.0372 14.7646C24.0368 14.7742 24.0357 14.7918 24.0354 14.8044L24.2354 14.8096L24.4353 14.8148C24.4355 14.808 24.4359 14.802 24.4368 14.7839C24.4375 14.7684 24.4383 14.749 24.4383 14.7266H24.2383ZM24.2354 14.8096L24.0354 14.8057L24.0227 15.4688L24.2227 15.4727L24.4226 15.4765L24.4353 14.8134L24.2354 14.8096ZM24.2227 15.4727L24.3858 15.3569L24.2452 15.1587L24.082 15.2744L23.9189 15.3901L24.0595 15.5884L24.2227 15.4727ZM24.082 15.2744L23.895 15.2037C23.7503 15.5861 23.587 15.9422 23.4043 16.2493L23.5762 16.3516L23.748 16.4538C23.9459 16.1213 24.1188 15.7427 24.2691 15.3452L24.082 15.2744ZM23.5762 16.3516L23.4047 16.2486C23.1938 16.6001 22.9606 16.8735 22.6939 17.0487L22.8037 17.2158L22.9135 17.383C23.2485 17.1629 23.5193 16.835 23.7477 16.4545L23.5762 16.3516ZM22.8037 17.2158L22.7236 17.3991L24.2324 18.0583L24.3125 17.875L24.3926 17.6917L22.8838 17.0325L22.8037 17.2158ZM24.3125 17.875L24.2324 18.0583C24.6119 18.2241 24.8859 18.5671 24.9637 18.9741L25.1602 18.9365L25.3566 18.899C25.254 18.3624 24.8929 17.9104 24.3926 17.6917L24.3125 17.875ZM25.1602 18.9365H24.9602V18.9385H25.1602H25.3602V18.9365H25.1602ZM25.1602 18.9385L24.9629 18.9715L25.3242 21.1326L25.5215 21.0996L25.7187 21.0666L25.3574 18.9055L25.1602 18.9385ZM25.5215 21.0996L25.6773 21.225L26.3248 20.4203L26.1689 20.2949L26.0131 20.1695L25.3657 20.9742L25.5215 21.0996ZM26.1689 20.2949L26.3249 20.4202C26.5354 20.1582 26.8427 19.9913 27.1772 19.9578L27.1572 19.7588L27.1373 19.5598C26.6959 19.604 26.2906 19.8241 26.013 20.1697L26.1689 20.2949ZM27.1572 19.7588V19.9588H27.1582V19.7588V19.5588H27.1572V19.7588ZM27.1582 19.7588L27.1802 19.9576C27.2204 19.9531 27.2621 19.951 27.3028 19.951L27.3027 19.751L27.3027 19.551C27.2485 19.551 27.1921 19.5538 27.1362 19.56L27.1582 19.7588ZM27.3027 19.751V19.951C27.5942 19.951 27.8781 20.053 28.1048 20.2409L28.2324 20.0869L28.36 19.9329C28.0618 19.6857 27.6876 19.551 27.3027 19.551V19.751ZM28.2324 20.0869L28.1047 20.2408L30.761 22.4449L30.8887 22.291L31.0164 22.1371L28.3601 19.933L28.2324 20.0869ZM30.8887 22.291L30.761 22.445C31.0596 22.6925 31.2155 23.0517 31.215 23.4119L31.415 23.4121L31.615 23.4124C31.6156 22.9375 31.4101 22.4635 31.0163 22.137L30.8887 22.291ZM31.415 23.4121L31.215 23.412C31.215 23.6875 31.1242 23.966 30.9388 24.1971L31.0947 24.3223L31.2507 24.4475C31.4953 24.1428 31.6149 23.7751 31.615 23.4122L31.415 23.4121ZM31.0947 24.3223L31.2736 24.4117L31.2746 24.4098L31.0957 24.3203L30.9168 24.2309L30.9158 24.2328L31.0947 24.3223ZM31.0957 24.3203L30.9403 24.1944L26.7684 29.3448L26.9238 29.4707L27.0792 29.5966L31.2511 24.4462L31.0957 24.3203ZM26.9238 29.4707L26.7266 29.5037L27.6426 34.9764L27.8398 34.9434L28.0371 34.9103L27.1211 29.4377L26.9238 29.4707ZM27.8398 34.9434L27.7914 34.7493L26.9154 34.9681L26.9639 35.1621L27.0123 35.3562L27.8883 35.1374L27.8398 34.9434ZM26.9639 35.1621L26.7661 35.1918L27.0913 37.3549L27.2891 37.3252L27.4868 37.2955L27.1616 35.1324L26.9639 35.1621ZM27.2891 37.3252V37.5252H30.0654V37.3252V37.1252H27.2891V37.3252ZM30.0654 37.3252H29.8654V43H30.0654H30.2654V37.3252H30.0654ZM30.0654 43V42.8H11.585V43V43.2H30.0654V43ZM11.585 43H11.785V37.3252H11.585H11.385V43H11.585ZM11.585 37.3252V37.5252H13.8711V37.3252V37.1252H11.585V37.3252ZM13.8711 37.3252L14.0706 37.3386L14.5404 30.3582L14.3408 30.3447L14.1413 30.3313L13.6715 37.3118L13.8711 37.3252ZM14.3408 30.3447L14.4844 30.4839L15.1309 29.8169L14.9873 29.6777L14.8437 29.5385L14.1972 30.2055L14.3408 30.3447ZM14.9873 29.6777L15.1843 29.6433L14.4666 25.531L14.2695 25.5654L14.0725 25.5998L14.7903 29.7121L14.9873 29.6777ZM14.2695 25.5654L14.4132 25.7046L15.5274 24.5542L15.3838 24.415L15.2401 24.2759L14.1259 25.4263L14.2695 25.5654ZM15.3838 24.415L15.57 24.3422L14.5652 21.7738L14.3789 21.8467L14.1927 21.9196L15.1975 24.4879L15.3838 24.415ZM14.3789 21.8467V22.0467H14.3799V21.8467V21.6467H14.3789V21.8467ZM14.3799 21.8467L14.564 21.7686C14.4962 21.6088 14.4627 21.4414 14.4627 21.2773L14.2627 21.2773L14.0627 21.2774C14.0627 21.4957 14.1073 21.7162 14.1958 21.9248L14.3799 21.8467ZM14.2627 21.2773H14.4627C14.4627 20.8965 14.6363 20.5252 14.953 20.2816L14.8311 20.123L14.7091 19.9645C14.2914 20.2858 14.0627 20.7756 14.0627 21.2773H14.2627ZM14.8311 20.123L14.9552 20.2799L14.9786 20.2613L14.8545 20.1045L14.7304 19.9477L14.7069 19.9662L14.8311 20.123ZM14.8545 20.1045L15.0227 19.9963L13.7727 18.0539L13.6045 18.1621L13.4363 18.2703L14.6863 20.2127L14.8545 20.1045ZM13.6045 18.1621L13.7729 18.0543C13.6389 17.8449 13.5741 17.6087 13.574 17.3759L13.374 17.376L13.174 17.376C13.1741 17.6829 13.2597 17.9944 13.436 18.2699L13.6045 18.1621ZM13.374 17.376H13.574C13.574 17.0036 13.7396 16.6358 14.0509 16.3892L13.9268 16.2324L13.8026 16.0756C13.392 16.4009 13.174 16.8859 13.174 17.376H13.374ZM13.9268 16.2324L14.0507 16.3894L14.6777 15.8943L14.5537 15.7373L14.4298 15.5803L13.8028 16.0755L13.9268 16.2324ZM14.5537 15.7373L14.7502 15.7003L13.6653 9.94537L13.4688 9.98242L13.2722 10.0195L14.3572 15.7744L14.5537 15.7373ZM13.4688 9.98242L13.6102 9.841L12.5233 8.75409L12.3818 8.89551L12.2404 9.03693L13.3273 10.1238L13.4688 9.98242ZM12.3818 8.89551H12.5818V6.8418H12.3818H12.1818V8.89551H12.3818ZM12.3818 6.8418V6.6418H11.6055V6.8418V7.0418H12.3818V6.8418ZM11.6055 6.8418H11.8055V4.85254H11.6055H11.4055V6.8418H11.6055ZM11.6055 4.85254V5.05254H16.1162V4.85254V4.65254H11.6055V4.85254ZM16.1162 4.85254H15.9162V6.8418H16.1162H16.3162V4.85254H16.1162ZM12.0215 42.5635V42.7635H29.6289V42.5635V42.3635H12.0215V42.5635ZM29.6289 42.5635H29.8289V37.7617H29.6289H29.4289V42.5635H29.6289ZM29.6289 37.7617V37.5617H12.0215V37.7617V37.9617H29.6289V37.7617ZM12.0215 37.7617H11.8215V42.5635H12.0215H12.2215V37.7617H12.0215ZM14.1982 16.5752L14.0741 16.4184C13.7716 16.6577 13.6105 17.0135 13.6105 17.376H13.8105H14.0105C14.0105 17.1318 14.1188 16.8931 14.3223 16.732L14.1982 16.5752ZM13.8105 17.376L13.6105 17.376C13.6106 17.6026 13.6736 17.8305 13.8044 18.034L13.9727 17.9258L14.1409 17.8176C14.0526 17.6804 14.0106 17.5278 14.0105 17.3759L13.8105 17.376ZM13.9727 17.9258L13.8044 18.0339L15.2702 20.3142L15.4385 20.2061L15.6067 20.0979L14.1409 17.8176L13.9727 17.9258ZM15.4385 20.2061L15.3166 20.0475L14.9748 20.3102L15.0967 20.4688L15.2186 20.6273L15.5604 20.3646L15.4385 20.2061ZM15.0967 20.4688L14.9746 20.3104C14.6676 20.547 14.4998 20.9078 14.4992 21.277L14.6992 21.2773L14.8992 21.2777C14.8996 21.0283 15.0129 20.7859 15.2188 20.6271L15.0967 20.4688ZM14.6992 21.2773L14.4992 21.2781C14.4999 21.4395 14.5311 21.6027 14.5985 21.7596L14.7822 21.6807L14.966 21.6017C14.9209 21.4968 14.8997 21.387 14.8992 21.2766L14.6992 21.2773ZM14.7822 21.6807L14.6033 21.7701L14.6053 21.774L14.7842 21.6846L14.9631 21.5951L14.9611 21.5912L14.7822 21.6807ZM14.7842 21.6846L14.5979 21.7575L15.5315 24.1432L15.7178 24.0703L15.904 23.9974L14.9704 21.6117L14.7842 21.6846ZM15.7178 24.0703L15.8614 24.2095L17.6602 22.3541L17.5166 22.2148L17.373 22.0756L15.5742 23.9311L15.7178 24.0703ZM17.5166 22.2148L17.3774 22.3585L17.6909 22.6622L17.8301 22.5186L17.9692 22.3749L17.6558 22.0712L17.5166 22.2148ZM17.8301 22.5186L17.6865 22.3794L14.5947 25.5698L14.7383 25.709L14.8819 25.8482L17.9737 22.6577L17.8301 22.5186ZM14.7383 25.709L14.5413 25.7434L15.1663 29.3254L15.3633 29.291L15.5603 29.2566L14.9353 25.6746L14.7383 25.709ZM15.3633 29.291L15.507 29.4302L17.005 27.8833L16.8613 27.7441L16.7177 27.605L15.2196 29.1519L15.3633 29.291ZM16.8613 27.7441L16.7224 27.888L17.0368 28.1917L17.1758 28.0479L17.3147 27.904L17.0003 27.6003L16.8613 27.7441ZM17.1758 28.0479L17.0322 27.9086L14.622 30.395L14.7656 30.5342L14.9092 30.6734L17.3194 28.1871L17.1758 28.0479ZM14.7656 30.5342L14.5661 30.5208L14.109 37.3118L14.3086 37.3252L14.5081 37.3386L14.9652 30.5476L14.7656 30.5342ZM14.3086 37.3252V37.5252H26.8477V37.3252V37.1252H14.3086V37.3252ZM26.8477 37.3252L27.0454 37.2954L26.6704 34.8052L26.4727 34.835L26.2749 34.8647L26.6499 37.355L26.8477 37.3252ZM26.4727 34.835L26.521 35.029L27.3911 34.8122L27.3428 34.6182L27.2944 34.4241L26.4243 34.6409L26.4727 34.835ZM27.3428 34.6182L27.54 34.5851L24.9277 18.9845L24.7305 19.0176L24.5332 19.0506L27.1455 34.6512L27.3428 34.6182ZM24.7305 19.0176L24.9269 18.9801C24.8518 18.5857 24.5865 18.2532 24.2189 18.0922L24.1387 18.2754L24.0584 18.4586C24.3052 18.5667 24.4835 18.7902 24.534 19.055L24.7305 19.0176ZM24.1387 18.2754L24.2187 18.0921L18.4033 15.5521L18.3232 15.7354L18.2432 15.9186L24.0586 18.4587L24.1387 18.2754ZM18.3232 15.7354L18.5094 15.6622L17.7828 13.8145L17.5967 13.8877L17.4106 13.9609L18.1371 15.8085L18.3232 15.7354ZM17.5967 13.8877L17.4726 13.7308L14.0742 16.4183L14.1982 16.5752L14.3223 16.7321L17.7207 14.0446L17.5967 13.8877ZM22.4941 28.4385L22.3073 28.3673L19.7506 35.0762L19.9375 35.1475L20.1244 35.2187L22.681 28.5097L22.4941 28.4385ZM19.9375 35.1475L20.0088 34.9606L19.6015 34.8053L19.5303 34.9922L19.459 35.1791L19.8662 35.3343L19.9375 35.1475ZM19.5303 34.9922L19.7172 35.0634L22.2728 28.3544L22.0859 28.2832L21.899 28.212L19.3434 34.921L19.5303 34.9922ZM22.0859 28.2832L22.0148 28.4701L22.423 28.6254L22.4941 28.4385L22.5652 28.2515L22.157 28.0963L22.0859 28.2832ZM27.2012 20.1934L27.1807 19.9944C26.8561 20.0278 26.5575 20.1888 26.3527 20.4443L26.5088 20.5693L26.6648 20.6944C26.8019 20.5234 27.0024 20.4149 27.2216 20.3923L27.2012 20.1934ZM26.5088 20.5693L26.353 20.4439L25.4624 21.5504L25.6182 21.6758L25.774 21.8012L26.6646 20.6947L26.5088 20.5693ZM25.6182 21.6758L25.4209 21.7088L26.6299 28.9295L26.8271 28.8965L27.0244 28.8635L25.8154 21.6428L25.6182 21.6758ZM26.8271 28.8965L26.9825 29.0224L30.9083 24.1767L30.7529 24.0508L30.5975 23.9249L26.6717 28.7706L26.8271 28.8965ZM30.7529 24.0508L30.9318 24.1402L30.9328 24.1383L30.7539 24.0488L30.575 23.9594L30.574 23.9613L30.7529 24.0508ZM30.7539 24.0488L30.9103 24.1735C31.0896 23.9485 31.1788 23.6815 31.1795 23.4126L30.9795 23.4121L30.7795 23.4116C30.779 23.5916 30.7198 23.7708 30.5975 23.9242L30.7539 24.0488ZM30.9795 23.4121L31.1795 23.4118C31.1789 23.061 31.0287 22.7143 30.7381 22.4731L30.6104 22.627L30.4826 22.7808C30.6781 22.9431 30.7791 23.1755 30.7795 23.4125L30.9795 23.4121ZM30.6104 22.627L30.7381 22.473L28.0818 20.2689L27.9541 20.4229L27.8264 20.5768L30.4826 22.7809L30.6104 22.627ZM27.9541 20.4229L28.082 20.2691C27.8622 20.0863 27.5853 19.9885 27.3027 19.9885V20.1885V20.3885C27.4935 20.3885 27.6795 20.4546 27.8262 20.5766L27.9541 20.4229ZM27.3027 20.1885L27.3026 19.9885C27.2634 19.9885 27.2224 19.9902 27.1809 19.9944L27.2012 20.1934L27.2214 20.3923C27.2473 20.3897 27.2747 20.3885 27.3028 20.3885L27.3027 20.1885ZM21.0391 12.0352L20.8786 11.9158L18.4567 15.1726L18.6172 15.292L18.7777 15.4113L21.1996 12.1545L21.0391 12.0352ZM18.6172 15.292L18.4312 15.3655L18.4771 15.4817L18.6631 15.4082L18.8491 15.3347L18.8032 15.2185L18.6172 15.292ZM18.6631 15.4082L18.583 15.5915L22.4756 17.2917L22.5557 17.1084L22.6357 16.9251L18.7431 15.2249L18.6631 15.4082ZM22.5557 17.1084L22.7347 17.0193L22.641 16.8309L22.4619 16.9199L22.2828 17.009L22.3766 17.1975L22.5557 17.1084ZM22.4619 16.9199L22.5504 17.0993C22.854 16.9495 23.1354 16.6304 23.3731 16.23L23.2012 16.1279L23.0292 16.0258C22.8068 16.4003 22.5748 16.6412 22.3734 16.7406L22.4619 16.9199ZM23.2012 16.1279L23.373 16.2303C23.5973 15.8537 23.7945 15.3906 23.9633 14.9045L23.7744 14.8389L23.5855 14.7732C23.4214 15.2455 23.2346 15.6809 23.0293 16.0256L23.2012 16.1279ZM23.7744 14.8389L23.9377 14.7233L21.9543 11.9216L21.791 12.0371L21.6278 12.1527L23.6112 14.9544L23.7744 14.8389ZM21.791 12.0371L21.7968 11.8372C21.6639 11.8334 21.5212 11.8273 21.3809 11.8273V12.0273V12.2273C21.5135 12.2273 21.6451 12.233 21.7852 12.237L21.791 12.0371ZM21.3809 12.0273L21.3808 11.8273C21.2645 11.8274 21.1415 11.8328 21.0346 11.8352L21.0391 12.0352L21.0435 12.2351C21.1644 12.2324 21.2694 12.2274 21.3809 12.2273L21.3809 12.0273ZM12.8174 8.71484L12.676 8.85627L13.7306 9.91095L13.8721 9.76953L14.0135 9.62811L12.9588 8.57342L12.8174 8.71484ZM13.8721 9.76953L13.6755 9.80661L14.7439 15.4687L14.9404 15.4316L15.137 15.3946L14.0686 9.73245L13.8721 9.76953ZM14.9404 15.4316L15.0644 15.5886L17.0703 14.0036L16.9463 13.8467L16.8223 13.6898L14.8164 15.2747L14.9404 15.4316ZM16.9463 13.8467L17.1386 13.7917L15.1366 6.78684L14.9443 6.8418L14.752 6.89676L16.754 13.9016L16.9463 13.8467ZM14.9443 6.8418V6.6418H12.8174V6.8418V7.0418H14.9443V6.8418ZM12.8174 6.8418H12.6174V8.71484H12.8174H13.0174V6.8418H12.8174ZM20.4756 12.0605L20.4622 11.861C19.9342 11.8963 19.4076 11.9602 18.8866 12.0562L18.9229 12.2529L18.9591 12.4496C19.464 12.3566 19.9752 12.2945 20.4889 12.2601L20.4756 12.0605ZM18.9229 12.2529L18.7229 12.2545L18.7375 14.1314L18.9375 14.1299L19.1375 14.1283L19.1228 12.2514L18.9229 12.2529ZM18.9375 14.1299L19.098 14.2492L20.6361 12.1799L20.4756 12.0605L20.3151 11.9412L18.777 14.0106L18.9375 14.1299ZM23.7959 14.1152L23.9959 14.1138L23.9822 12.2407L23.7822 12.2422L23.5822 12.2436L23.5959 14.1167L23.7959 14.1152ZM23.7822 12.2422L23.8175 12.0453C23.3349 11.9588 22.8484 11.9002 22.3607 11.8659L22.3467 12.0654L22.3326 12.2649C22.8071 12.2983 23.2795 12.3552 23.7469 12.439L23.7822 12.2422ZM22.3467 12.0654L22.1834 12.1809L23.6326 14.2307L23.7959 14.1152L23.9592 13.9998L22.51 11.95L22.3467 12.0654ZM20.9404 10.5049L20.9326 10.305L20.7578 10.3119L20.7656 10.5117L20.7734 10.7116L20.9482 10.7047L20.9404 10.5049ZM20.7656 10.5117L20.7578 10.3119C20.5393 10.3204 20.3207 10.3338 20.1021 10.3514L20.1182 10.5508L20.1343 10.7501C20.3478 10.7329 20.5608 10.7198 20.7734 10.7116L20.7656 10.5117ZM20.1182 10.5508L20.1026 10.3514L19.9903 10.3602L20.0059 10.5596L20.0215 10.759L20.1338 10.7502L20.1182 10.5508ZM20.0059 10.5596L20.1588 10.4307L18.9352 8.97762L18.7822 9.10645L18.6292 9.23527L19.8529 10.6884L20.0059 10.5596ZM18.7822 9.10645L18.5933 9.17215L19.2506 11.0618L19.4395 10.9961L19.6284 10.9304L18.9711 9.04074L18.7822 9.10645ZM19.4395 10.9961L19.2598 10.9083L19.1328 11.168L19.3125 11.2559L19.4922 11.3437L19.6191 11.0839L19.4395 10.9961ZM19.3125 11.2559L19.3609 11.0618L17.4185 10.5774L17.3701 10.7715L17.3217 10.9655L19.2641 11.4499L19.3125 11.2559ZM17.3701 10.7715L17.255 10.9351C17.5541 11.1455 17.9405 11.4194 18.2496 11.6442L18.3672 11.4824L18.4848 11.3207C18.1732 11.0941 17.7849 10.8187 17.4852 10.6079L17.3701 10.7715ZM18.3672 11.4824L18.2496 11.6442C18.4463 11.7872 18.605 11.906 18.6958 11.9801L18.8223 11.8252L18.9487 11.6703C18.8483 11.5883 18.6814 11.4635 18.4848 11.3206L18.3672 11.4824ZM18.8223 11.8252L18.6808 11.9666C18.6889 11.9747 18.6973 11.9817 18.7056 11.9877C18.7135 11.9934 18.7201 11.9973 18.7229 11.999C18.7236 11.9994 18.7242 11.9997 18.7245 11.9999C18.7247 12 18.7248 12.0001 18.7249 12.0001C18.725 12.0002 18.725 12.0002 18.725 12.0002C18.7251 12.0002 18.7251 12.0002 18.7251 12.0002C18.7252 12.0003 18.7243 11.9998 18.7233 11.9992C18.7208 11.9977 18.7171 11.9955 18.7127 11.9925L18.8252 11.8271L18.9377 11.6618C18.9327 11.6584 18.9284 11.6558 18.9254 11.654C18.924 11.6532 18.9229 11.6526 18.9228 11.6525C18.9223 11.6522 18.9232 11.6528 18.9243 11.6534C18.9266 11.6547 18.9327 11.6583 18.9402 11.6637C18.9481 11.6695 18.956 11.6761 18.9637 11.6838L18.8223 11.8252ZM18.8252 11.8271L18.8617 12.0238C19.6926 11.8696 20.5366 11.7908 21.3809 11.7908L21.3809 11.5908L21.3809 11.3908C20.5118 11.3908 19.6433 11.472 18.7887 11.6305L18.8252 11.8271ZM21.3809 11.5908V11.7908C22.2104 11.7908 23.04 11.8669 23.8566 12.0161L23.8926 11.8193L23.9285 11.6226C23.0885 11.4691 22.2348 11.3908 21.3809 11.3908V11.5908ZM23.8926 11.8193L24.0026 11.9864L25.4059 11.0626L25.2959 10.8955L25.1859 10.7285L23.7826 11.6523L23.8926 11.8193ZM25.2959 10.8955L25.2475 10.7015L23.3998 11.1624L23.4482 11.3564L23.4967 11.5505L25.3443 11.0896L25.2959 10.8955ZM23.4482 11.3564L23.6135 11.2437L23.5275 11.1178L23.3623 11.2305L23.1971 11.3432L23.283 11.4692L23.4482 11.3564ZM23.3623 11.2305L23.5275 11.1178C23.477 11.0437 23.4225 10.9709 23.3638 10.9013L23.2109 11.0303L23.058 11.1592C23.1069 11.2171 23.1532 11.2789 23.1971 11.3432L23.3623 11.2305ZM23.2109 11.0303L23.3645 10.9021L23.2854 10.8074L23.1318 10.9355L22.9783 11.0637L23.0574 11.1585L23.2109 11.0303ZM23.1318 10.9355L23.3208 11.0012L23.9565 9.17211L23.7676 9.10645L23.5787 9.04078L22.9429 10.8699L23.1318 10.9355ZM23.7676 9.10645L23.6146 8.97763L22.4027 10.4171L22.5557 10.5459L22.7087 10.6747L23.9206 9.23526L23.7676 9.10645ZM22.5557 10.5459L22.5698 10.3464L22.4594 10.3386L22.4453 10.5381L22.4312 10.7376L22.5415 10.7454L22.5557 10.5459ZM22.4453 10.5381L22.4593 10.3386C22.2799 10.326 22.1013 10.3159 21.9238 10.3099L21.917 10.5098L21.9102 10.7096C22.0817 10.7155 22.2554 10.7253 22.4314 10.7376L22.4453 10.5381ZM21.917 10.5098L21.9237 10.3099L21.7479 10.304L21.7412 10.5039L21.7345 10.7038L21.9103 10.7097L21.917 10.5098ZM21.7412 10.5039L21.9379 10.4676L21.5375 8.30058L21.3408 8.33691L21.1441 8.37325L21.5445 10.5402L21.7412 10.5039ZM21.3408 8.33691L21.1441 8.30059L20.7438 10.4686L20.9404 10.5049L21.1371 10.5412L21.5375 8.37324L21.3408 8.33691ZM12.042 6.4043V6.6043H15.6797V6.4043V6.2043H12.042V6.4043ZM15.6797 6.4043H15.8797V5.28906H15.6797H15.4797V6.4043H15.6797ZM15.6797 5.28906V5.08906H12.042V5.28906V5.48906H15.6797V5.28906ZM12.042 5.28906H11.842V6.4043H12.042H12.242V5.28906H12.042ZM13.9277 0.00292969L13.9103 0.202168C13.9861 0.2088 14.0649 0.233688 14.1526 0.276454L14.2402 0.0966797L14.3279 -0.0830949C14.2115 -0.139853 14.0843 -0.184138 13.9452 -0.196309L13.9277 0.00292969ZM14.2402 0.0966797L14.1515 0.275919C14.2377 0.318586 14.3265 0.376614 14.4188 0.44975L14.543 0.292969L14.6671 0.136187C14.5584 0.0500226 14.4459 -0.0246616 14.329 -0.0825599L14.2402 0.0966797ZM14.543 0.292969L14.4183 0.449359C14.6027 0.596349 14.7907 0.797368 14.963 1.03971L15.126 0.923828L15.289 0.807946C15.0986 0.540168 14.8857 0.310409 14.6676 0.136579L14.543 0.292969ZM15.126 0.923828L14.9629 1.03965C15.3081 1.52557 15.5769 2.15515 15.5783 2.80514L15.7783 2.80469L15.9783 2.80424C15.9766 2.04876 15.667 1.34001 15.289 0.808001L15.126 0.923828ZM15.7783 2.80469H15.5783C15.5783 2.83137 15.5774 2.85888 15.5765 2.89041L15.7764 2.89648L15.9763 2.90256C15.9772 2.87328 15.9783 2.83881 15.9783 2.80469H15.7783ZM15.7764 2.89648L15.5765 2.88905C15.5521 3.54503 15.3932 3.96312 15.2405 4.21312L15.4111 4.31738L15.5818 4.42164C15.7747 4.10587 15.9496 3.61931 15.9762 2.90392L15.7764 2.89648ZM15.4111 4.31738L15.2401 4.21368C15.1642 4.3389 15.089 4.42337 15.0327 4.47662C14.9759 4.53032 14.9383 4.55223 14.9388 4.55195L15.0381 4.72559L15.1373 4.89922C15.1892 4.86959 15.391 4.73631 15.5821 4.42108L15.4111 4.31738ZM15.0381 4.72559L15.2106 4.62438L15.0553 4.35973L14.8828 4.46094L14.7103 4.56215L14.8656 4.8268L15.0381 4.72559ZM14.8828 4.46094L15.0528 4.35561L14.9845 4.24526L14.8145 4.35059L14.6444 4.45591L14.7128 4.56626L14.8828 4.46094ZM14.8145 4.35059L14.9372 4.50846L14.946 4.50162L14.8232 4.34375L14.7005 4.18588L14.6917 4.19272L14.8145 4.35059ZM14.8232 4.34375L14.9355 4.50927C14.9557 4.49556 14.9807 4.47552 15.008 4.44956L14.8701 4.30469L14.7322 4.15982C14.7254 4.16634 14.7198 4.17116 14.7159 4.17439C14.7117 4.17778 14.71 4.1789 14.711 4.17823L14.8232 4.34375ZM14.8701 4.30469L15.0079 4.44961C15.0613 4.39888 15.1348 4.31753 15.21 4.19368L15.0391 4.08984L14.8681 3.98601C14.8131 4.07663 14.7627 4.13081 14.7323 4.15976L14.8701 4.30469ZM15.0391 4.08984L15.21 4.19363C15.3597 3.94704 15.5161 3.54048 15.5407 2.8874L15.3408 2.87988L15.141 2.87237C15.1187 3.46561 14.9784 3.80433 14.8681 3.98606L15.0391 4.08984ZM15.3408 2.87988L15.5407 2.88779C15.5418 2.8579 15.5418 2.8287 15.5418 2.80469H15.3418H15.1418C15.1418 2.83031 15.1418 2.8514 15.141 2.87198L15.3408 2.87988ZM15.3418 2.80469L15.5418 2.80492C15.5423 2.3887 15.4259 1.97124 15.2512 1.60113L15.0703 1.68652L14.8895 1.77192C15.0453 2.10205 15.1422 2.46081 15.1418 2.80445L15.3418 2.80469ZM15.0703 1.68652L15.2511 1.60101C15.0762 1.23122 14.8394 0.901399 14.6007 0.661638L14.459 0.802734L14.3172 0.94383C14.5228 1.15035 14.7336 1.44231 14.8895 1.77204L15.0703 1.68652ZM14.459 0.802734L14.6009 0.661836C14.443 0.502734 14.2777 0.378714 14.1364 0.308952L14.0479 0.488281L13.9593 0.66761C14.0501 0.712447 14.1803 0.805907 14.317 0.943633L14.459 0.802734ZM14.0479 0.488281L14.1368 0.309169C14.0971 0.289423 14.0565 0.272253 14.017 0.260074L13.958 0.451172L13.899 0.64227C13.9124 0.646421 13.9326 0.654349 13.9589 0.667393L14.0479 0.488281ZM13.958 0.451172L13.9983 0.25528L13.9319 0.241609L13.8916 0.4375L13.8513 0.633391L13.9177 0.647063L13.958 0.451172ZM13.8916 0.4375L13.898 0.237604L13.8678 0.236627L13.8613 0.436523L13.8549 0.636419L13.8852 0.637396L13.8916 0.4375ZM13.8613 0.436523V0.236523C13.8539 0.236523 13.8405 0.236718 13.8244 0.239256C13.821 0.239794 13.8183 0.240308 13.8168 0.240584C13.8162 0.240706 13.8156 0.240821 13.8156 0.240826C13.8154 0.240858 13.8157 0.240803 13.8161 0.240734C13.8185 0.240275 13.822 0.239655 13.8261 0.239124L13.8516 0.4375L13.877 0.635876C13.8831 0.635096 13.888 0.634229 13.8916 0.63354C13.8922 0.633413 13.8928 0.633302 13.8929 0.633279C13.8932 0.633228 13.8929 0.63329 13.8925 0.63336C13.8916 0.633531 13.8894 0.633946 13.8866 0.634393C13.8801 0.635414 13.8742 0.635984 13.8692 0.636274C13.8649 0.636521 13.8619 0.636523 13.8613 0.636523V0.436523ZM13.8516 0.4375L13.6733 0.346906C13.6806 0.332527 13.6915 0.3155 13.7076 0.298925C13.7153 0.29104 13.7222 0.285258 13.7268 0.281639C13.7288 0.280061 13.7304 0.278845 13.7305 0.278809C13.7311 0.278362 13.7294 0.279634 13.7276 0.280972C13.7235 0.284159 13.7144 0.291479 13.7042 0.302323C13.6936 0.313694 13.6842 0.326375 13.6763 0.340174C13.6616 0.365858 13.6561 0.388841 13.6538 0.399567L13.8496 0.44043L14.0454 0.481293C14.0434 0.490984 14.038 0.513309 14.0236 0.538532C14.0159 0.5521 14.0066 0.564599 13.9961 0.575815C13.9861 0.586504 13.9771 0.593695 13.9732 0.596758C13.9715 0.598034 13.9699 0.599244 13.9706 0.598735C13.9707 0.598636 13.9724 0.597356 13.9745 0.595708C13.9793 0.59195 13.9864 0.586011 13.9942 0.577929C14.0108 0.560959 14.0221 0.543373 14.0299 0.528094L13.8516 0.4375ZM13.8496 0.44043L13.6569 0.386775C13.6483 0.417928 13.6403 0.459482 13.6335 0.503255L13.8311 0.53418L14.0286 0.565104C14.0347 0.526237 14.0399 0.50274 14.0423 0.494084L13.8496 0.44043ZM13.8311 0.53418L13.6337 0.502022C13.6058 0.673328 13.579 0.926046 13.4029 1.20065L13.5713 1.30859L13.7397 1.41654C13.9675 1.06113 14.0026 0.724757 14.0285 0.566337L13.8311 0.53418ZM13.5713 1.30859L13.4024 1.20143C13.2851 1.38626 13.099 1.58669 12.8046 1.78673L12.917 1.95215L13.0294 2.11757C13.3622 1.89145 13.5895 1.65322 13.7402 1.41576L13.5713 1.30859ZM12.917 1.95215L12.8044 1.78682C12.5428 1.96493 12.366 2.1761 12.2518 2.40472L12.4307 2.49414L12.6096 2.58356C12.6925 2.41764 12.8229 2.25816 13.0295 2.11747L12.917 1.95215ZM12.4307 2.49414L12.2518 2.40467C12.1376 2.63303 12.0891 2.87651 12.0891 3.11522L12.2891 3.11523L12.4891 3.11524C12.4891 2.93073 12.5264 2.74976 12.6095 2.58361L12.4307 2.49414ZM12.2891 3.11523L12.0891 3.11493C12.0886 3.42668 12.1733 3.73437 12.3046 3.98304L12.4814 3.88965L12.6583 3.79626C12.5555 3.60149 12.4887 3.35775 12.4891 3.11554L12.2891 3.11523ZM12.4814 3.88965L12.3038 3.98151C12.4316 4.22864 12.618 4.4313 12.8043 4.52172L12.8916 4.3418L12.9789 4.16188C12.8943 4.1208 12.7616 3.99598 12.6591 3.79778L12.4814 3.88965ZM12.8916 4.3418L12.7127 4.25235L12.5174 4.64298L12.6963 4.73242L12.8752 4.82186L13.0705 4.43124L12.8916 4.3418ZM12.6963 4.73242L12.7868 4.55406C12.5851 4.45179 12.4084 4.25801 12.2715 3.99928L12.0947 4.09277L11.9179 4.18627C12.0799 4.49258 12.3084 4.75993 12.6058 4.91079L12.6963 4.73242ZM12.0947 4.09277L12.2717 3.99959C12.137 3.74383 12.053 3.43611 12.0525 3.11495L11.8525 3.11523L11.6525 3.11552C11.6531 3.50467 11.7545 3.87584 11.9178 4.18595L12.0947 4.09277ZM11.8525 3.11523H12.0525C12.0525 2.87171 12.1026 2.62216 12.219 2.3892L12.04 2.2998L11.8611 2.21041C11.7138 2.50528 11.6525 2.8172 11.6525 3.11523H11.8525ZM12.04 2.2998L12.2191 2.38886C12.3349 2.15594 12.5192 1.93614 12.7831 1.75738L12.6709 1.5918L12.5587 1.42621C12.239 1.6428 12.0081 1.91486 11.861 2.21075L12.04 2.2998ZM12.6709 1.5918L12.7837 1.75694C13.1198 1.52731 13.3068 1.30721 13.4192 1.10351L13.2441 1.00684L13.0691 0.910164C12.9912 1.05113 12.8507 1.22678 12.5581 1.42665L12.6709 1.5918ZM13.2441 1.00684L13.4201 1.10188C13.5302 0.898115 13.5629 0.719764 13.5863 0.571032L13.3887 0.540039L13.1911 0.509047C13.1698 0.645079 13.1453 0.769029 13.0682 0.911792L13.2441 1.00684ZM13.3887 0.540039L13.5859 0.572947C13.6047 0.46026 13.6083 0.401746 13.6415 0.322379L13.457 0.245117L13.2726 0.167855C13.2161 0.302648 13.2047 0.427494 13.1914 0.507131L13.3887 0.540039ZM13.457 0.245117L13.6411 0.323431C13.6546 0.29156 13.6795 0.257434 13.7106 0.236661L13.5996 0.0703125L13.4886 -0.0960363C13.3796 -0.0233002 13.3102 0.079281 13.273 0.166803L13.457 0.245117ZM13.5996 0.0703125L13.7103 0.236898C13.747 0.212515 13.7967 0.2 13.8613 0.2V0V-0.2C13.7498 -0.2 13.6135 -0.179024 13.4889 -0.0962729L13.5996 0.0703125ZM13.8613 0L13.8612 0.2C13.8766 0.200009 13.8933 0.200777 13.9114 0.202259L13.9277 0.00292969L13.9441 -0.1964C13.9174 -0.198588 13.8897 -0.199983 13.8614 -0.2L13.8613 0Z" fill="#004236" mask="url(#path-1-outside-1_1_2997)"/>
</g>
<defs>
<clipPath id="clip0_1_2997">
<rect width="43" height="43" fill="white"/>
</clipPath>
</defs>
</svg>
