<svg width="28" height="28" viewBox="0 0 28 28" fill="none" xmlns="http://www.w3.org/2000/svg">
<path d="M21 23.625V2.625H8.75V23.625H5.25V25.375H24.5V23.625H21ZM14 23.625V20.125H12.25V23.625H10.5V4.375H19.25V23.625H14ZM15.75 6.125H17.5V7.875H15.75V6.125ZM12.25 6.125H14V7.875H12.25V6.125ZM15.75 9.625H17.5V11.375H15.75V9.625ZM12.25 9.625H14V11.375H12.25V9.625ZM15.75 13.125H17.5V14.875H15.75V13.125ZM12.25 13.125H14V14.875H12.25V13.125ZM15.75 16.625H17.5V18.375H15.75V16.625ZM12.25 16.625H14V18.375H12.25V16.625ZM15.75 20.125H17.5V21.875H15.75V20.125Z" fill="url(#paint0_linear_824_2823)"/>
<defs>
<linearGradient id="paint0_linear_824_2823" x1="5.25" y1="14" x2="24.5" y2="14" gradientUnits="userSpaceOnUse">
<stop stop-color="#905E26"/>
<stop offset="0.258244" stop-color="#F5EC9B"/>
<stop offset="1" stop-color="#905E26"/>
</linearGradient>
</defs>
</svg>
