<svg width="32" height="32" viewBox="0 0 32 32" fill="none" xmlns="http://www.w3.org/2000/svg">
<path d="M26.6668 22.6669V15.2696C26.6668 14.5572 26.6662 14.2008 26.5796 13.8692C26.5028 13.5755 26.3768 13.2974 26.2063 13.0462C26.0138 12.7627 25.7463 12.5276 25.21 12.0584L18.81 6.45844C17.8146 5.58738 17.3168 5.15208 16.7567 4.98642C16.2631 4.84046 15.737 4.84046 15.2434 4.98642C14.6836 5.15196 14.1866 5.58685 13.1926 6.45658L6.79052 12.0584C6.25435 12.5276 5.98688 12.7627 5.79443 13.0462C5.62388 13.2974 5.4969 13.5755 5.42012 13.8692C5.3335 14.2008 5.3335 14.5572 5.3335 15.2696V22.6669C5.3335 23.9093 5.3335 24.5304 5.53648 25.0205C5.80714 25.6739 6.32592 26.1936 6.97934 26.4643C7.46939 26.6673 8.09064 26.6673 9.33315 26.6673C10.5757 26.6673 11.1976 26.6673 11.6877 26.4643C12.3411 26.1936 12.8597 25.674 13.1304 25.0205C13.3334 24.5305 13.3335 23.9093 13.3335 22.6668V21.3335C13.3335 19.8607 14.5274 18.6668 16.0002 18.6668C17.473 18.6668 18.6668 19.8607 18.6668 21.3335V22.6668C18.6668 23.9093 18.6668 24.5305 18.8698 25.0205C19.1404 25.674 19.6592 26.1936 20.3127 26.4643C20.8027 26.6673 21.424 26.6673 22.6664 26.6673C23.909 26.6673 24.531 26.6673 25.021 26.4643C25.6744 26.1936 26.1931 25.6739 26.4638 25.0205C26.6667 24.5304 26.6668 23.9093 26.6668 22.6669Z" stroke="url(#paint0_linear_824_2850)" stroke-width="2" stroke-linecap="round" stroke-linejoin="round"/>
<defs>
<linearGradient id="paint0_linear_824_2850" x1="5.3335" y1="15.7721" x2="26.6668" y2="15.7721" gradientUnits="userSpaceOnUse">
<stop stop-color="#905E26"/>
<stop offset="0.258244" stop-color="#F5EC9B"/>
<stop offset="1" stop-color="#905E26"/>
</linearGradient>
</defs>
</svg>
