<svg width="78" height="31" viewBox="0 0 78 31" fill="none" xmlns="http://www.w3.org/2000/svg">
<rect width="78" height="31" rx="5" fill="url(#paint0_linear_243_1002)" fill-opacity="0.3"/>
<path d="M14.5531 10.7461C14.5531 10.7461 8.84278 14.9779 8.84277 16.4921C8.84276 18.0064 14.5531 22.2381 14.5531 22.2381" stroke="#14161A" stroke-width="1.99861" stroke-linecap="round" stroke-linejoin="round"/>
<path d="M32.233 21V10.8182H35.7926C36.5019 10.8182 37.0869 10.9408 37.5476 11.1861C38.0083 11.428 38.3513 11.7545 38.5767 12.1655C38.8021 12.5732 38.9148 13.0256 38.9148 13.5227C38.9148 13.9602 38.8369 14.3215 38.6811 14.6065C38.5286 14.8916 38.3265 15.117 38.0746 15.2827C37.826 15.4484 37.5559 15.571 37.2642 15.6506V15.75C37.5758 15.7699 37.889 15.8793 38.2038 16.0781C38.5187 16.277 38.7822 16.562 38.9943 16.9332C39.2064 17.3045 39.3125 17.7585 39.3125 18.2955C39.3125 18.8059 39.1965 19.2649 38.9645 19.6726C38.7325 20.0803 38.3662 20.4034 37.8658 20.642C37.3653 20.8807 36.714 21 35.9119 21H32.233ZM33.4659 19.9062H35.9119C36.7173 19.9062 37.2891 19.7505 37.6271 19.4389C37.9685 19.1241 38.1392 18.7429 38.1392 18.2955C38.1392 17.9508 38.0514 17.6326 37.8757 17.3409C37.7 17.0459 37.4498 16.8106 37.125 16.6349C36.8002 16.456 36.4157 16.3665 35.9716 16.3665H33.4659V19.9062ZM33.4659 15.2926H35.7528C36.1241 15.2926 36.4588 15.2197 36.7571 15.0739C37.0587 14.928 37.2973 14.7225 37.473 14.4574C37.652 14.1922 37.7415 13.8807 37.7415 13.5227C37.7415 13.0753 37.5857 12.6958 37.2741 12.3842C36.9626 12.0694 36.4688 11.9119 35.7926 11.9119H33.4659V15.2926ZM43.4265 21.179C42.9426 21.179 42.5034 21.0878 42.109 20.9055C41.7146 20.7199 41.4014 20.4531 41.1694 20.1051C40.9374 19.7538 40.8214 19.3295 40.8214 18.8324C40.8214 18.3949 40.9076 18.0402 41.0799 17.7685C41.2522 17.4934 41.4826 17.2779 41.771 17.1222C42.0593 16.9664 42.3775 16.8504 42.7255 16.7741C43.0768 16.6946 43.4298 16.6316 43.7844 16.5852C44.2485 16.5256 44.6246 16.4808 44.913 16.451C45.2047 16.4179 45.4168 16.3632 45.5494 16.2869C45.6853 16.2107 45.7532 16.0781 45.7532 15.8892V15.8494C45.7532 15.3589 45.619 14.9777 45.3505 14.706C45.0853 14.4342 44.6826 14.2983 44.1424 14.2983C43.5823 14.2983 43.1431 14.4209 42.8249 14.6662C42.5067 14.9115 42.283 15.1733 42.1538 15.4517L41.0401 15.054C41.239 14.59 41.5041 14.2287 41.8356 13.9702C42.1703 13.7083 42.5349 13.526 42.9293 13.4233C43.3271 13.3172 43.7182 13.2642 44.1026 13.2642C44.3479 13.2642 44.6296 13.294 44.9478 13.3537C45.2693 13.41 45.5792 13.5277 45.8775 13.7067C46.1791 13.8857 46.4293 14.1558 46.6282 14.517C46.8271 14.8783 46.9265 15.3622 46.9265 15.9688V21H45.7532V19.9659H45.6935C45.614 20.1316 45.4814 20.3089 45.2958 20.4979C45.1102 20.6868 44.8633 20.8475 44.555 20.9801C44.2468 21.1127 43.8706 21.179 43.4265 21.179ZM43.6055 20.125C44.0695 20.125 44.4606 20.0339 44.7788 19.8516C45.1003 19.6693 45.3422 19.4339 45.5046 19.1456C45.6703 18.8572 45.7532 18.554 45.7532 18.2358V17.1619C45.7035 17.2216 45.5941 17.2763 45.4251 17.326C45.2594 17.3724 45.0671 17.4138 44.8484 17.4503C44.6329 17.4834 44.4225 17.5133 44.217 17.5398C44.0148 17.563 43.8507 17.5829 43.7248 17.5994C43.4199 17.6392 43.1348 17.7038 42.8697 17.7933C42.6078 17.8795 42.3957 18.0104 42.2333 18.1861C42.0742 18.3584 41.9947 18.5937 41.9947 18.892C41.9947 19.2997 42.1455 19.608 42.4471 19.8168C42.752 20.0223 43.1381 20.125 43.6055 20.125ZM52.1703 21.1591C51.4544 21.1591 50.8379 20.9901 50.3208 20.652C49.8038 20.3139 49.4061 19.8482 49.1277 19.255C48.8493 18.6617 48.71 17.9839 48.71 17.2216C48.71 16.446 48.8526 15.7616 49.1376 15.1683C49.426 14.5717 49.827 14.1061 50.3407 13.7713C50.8578 13.4332 51.461 13.2642 52.1504 13.2642C52.6873 13.2642 53.1712 13.3636 53.6021 13.5625C54.033 13.7614 54.3859 14.0398 54.661 14.3977C54.9361 14.7557 55.1068 15.1733 55.1731 15.6506H53.9998C53.9103 15.3026 53.7115 14.9943 53.4032 14.7259C53.0983 14.4541 52.6873 14.3182 52.1703 14.3182C51.7129 14.3182 51.3118 14.4375 50.9672 14.6761C50.6258 14.9115 50.359 15.2446 50.1667 15.6754C49.9778 16.103 49.8833 16.6051 49.8833 17.1818C49.8833 17.7718 49.9761 18.2855 50.1618 18.723C50.3507 19.1605 50.6158 19.5002 50.9572 19.7422C51.3019 19.9841 51.7063 20.1051 52.1703 20.1051C52.4752 20.1051 52.752 20.0521 53.0005 19.946C53.2491 19.84 53.4596 19.6875 53.6319 19.4886C53.8043 19.2898 53.9269 19.0511 53.9998 18.7727H55.1731C55.1068 19.2235 54.9428 19.6295 54.6809 19.9908C54.4224 20.3487 54.0794 20.6338 53.6518 20.8459C53.2276 21.0547 52.7337 21.1591 52.1703 21.1591ZM57.9821 18.2159L57.9622 16.7642H58.2008L61.5417 13.3636H62.9934L59.4338 16.9631H59.3343L57.9821 18.2159ZM56.8883 21V10.8182H58.0616V21H56.8883ZM61.7406 21L58.7576 17.2216L59.5929 16.4062L63.2321 21H61.7406Z" fill="#14161A"/>
<defs>
<linearGradient id="paint0_linear_243_1002" x1="7.9708" y1="4.81034" x2="53.9627" y2="51.1737" gradientUnits="userSpaceOnUse">
<stop stop-color="#004236"/>
<stop offset="1" stop-color="#007E67"/>
</linearGradient>
</defs>
</svg>
