<svg width="83" height="83" viewBox="0 0 83 83" fill="none" xmlns="http://www.w3.org/2000/svg">
<path fill-rule="evenodd" clip-rule="evenodd" d="M75.2188 25.9375C75.2188 24.5058 74.0567 23.3438 72.625 23.3438H62.25C60.8182 23.3438 59.6562 24.5058 59.6562 25.9375V72.625C59.6562 74.0567 60.8182 75.2188 62.25 75.2188H72.625C74.0567 75.2188 75.2188 74.0567 75.2188 72.625V25.9375ZM23.3438 41.5C23.3438 40.0682 22.1818 38.9062 20.75 38.9062H10.375C8.94325 38.9062 7.78125 40.0682 7.78125 41.5V72.625C7.78125 74.0567 8.94325 75.2188 10.375 75.2188H20.75C22.1818 75.2188 23.3438 74.0567 23.3438 72.625V41.5ZM49.2812 10.375C49.2812 8.94325 48.1193 7.78125 46.6875 7.78125H36.3125C34.8808 7.78125 33.7188 8.94325 33.7188 10.375V72.625C33.7188 74.0567 34.8808 75.2188 36.3125 75.2188H46.6875C48.1193 75.2188 49.2812 74.0567 49.2812 72.625V10.375Z" fill="white"/>
</svg>
