<svg width="24" height="28" viewBox="0 0 24 28" fill="none" xmlns="http://www.w3.org/2000/svg">
<path d="M21.9072 24.833C21.9072 25.333 21.6166 25.667 21.1807 25.667H13.916V24H21.9072V24.833ZM21.1807 2.33301C21.6165 2.33301 21.9071 2.6662 21.9072 3.16602V12.333H14.6426C14.2068 12.333 13.9161 12.6662 13.916 13.166C13.916 13.666 14.2067 14 14.6426 14H21.9072V15.666H13.1895C12.7536 15.666 12.4629 16 12.4629 16.5V25.666H8.83008V17.333C8.83008 16.833 8.53941 16.5 8.10352 16.5H5.19824C4.76234 16.5 4.47168 16.833 4.47168 17.333C4.47168 17.833 4.76234 18.166 5.19824 18.166H7.37695V25.666H2.29199C1.85609 25.666 1.56543 25.333 1.56543 24.833V14H10.2832C10.7191 14 11.0098 13.666 11.0098 13.166V2.33301H21.1807ZM21.9072 22.333H13.916V20.666H21.9072V22.333ZM21.9072 19H13.916V17.333H21.9072V19ZM9.55664 2.33301V12.333H1.56543V3.16602C1.56556 2.6662 1.85619 2.33301 2.29199 2.33301H9.55664Z" fill="url(#paint0_linear_232_2849)"/>
<defs>
<linearGradient id="paint0_linear_232_2849" x1="1.56543" y1="14" x2="21.9072" y2="14" gradientUnits="userSpaceOnUse">
<stop stop-color="#905E26"/>
<stop offset="0.258244" stop-color="#F5EC9B"/>
<stop offset="1" stop-color="#905E26"/>
</linearGradient>
</defs>
</svg>
