<svg width="33" height="33" viewBox="0 0 33 33" fill="none" xmlns="http://www.w3.org/2000/svg">
<path fill-rule="evenodd" clip-rule="evenodd" d="M16.3351 2.88602L2.84639 13.666C2.81618 13.6942 2.79205 13.7282 2.7755 13.7661C2.75894 13.8039 2.75031 13.8447 2.75014 13.886L2.64014 27.306C2.64014 28.0354 2.92987 28.7348 3.44559 29.2506C3.96132 29.7663 4.66079 30.056 5.39014 30.056L27.5001 30.2485C28.2295 30.2485 28.929 29.9588 29.4447 29.4431C29.9604 28.9273 30.2501 28.2279 30.2501 27.4985V13.886C30.2491 13.8435 30.2387 13.8018 30.2197 13.7637C30.2007 13.7257 30.1735 13.6923 30.1401 13.666L16.6651 2.88602C16.6198 2.84544 16.561 2.823 16.5001 2.823C16.4393 2.823 16.3805 2.84544 16.3351 2.88602Z" stroke="#9E9E9E" stroke-width="1.5" stroke-linecap="round" stroke-linejoin="round"/>
<path d="M30.25 15.1238H17.875" stroke="#9E9E9E" stroke-width="1.5" stroke-linecap="round" stroke-linejoin="round"/>
<path d="M2.75 15.1238H7.79625V20.17H12.8287V25.2025H17.875V30.1663" stroke="#9E9E9E" stroke-width="1.5" stroke-linecap="round" stroke-linejoin="round"/>
</svg>
