<svg width="17" height="17" viewBox="0 0 17 17" fill="none" xmlns="http://www.w3.org/2000/svg">
<path d="M9.48031 5.90769V3.95385C9.48031 2.87758 8.60273 2 7.52646 2H5.05932C3.98304 2 3.10547 2.87758 3.10547 3.95385V5.87458C3.3704 5.62621 3.66844 5.41095 3.98304 5.22881V3.95385C3.98304 3.35776 4.46323 2.87758 5.05932 2.87758H7.52646C8.12255 2.87758 8.60273 3.35776 8.60273 3.95385V5.24537C8.91733 5.42751 9.21538 5.65932 9.48031 5.90769Z" fill="#4BAC96"/>
<path d="M3.96685 12.4652H4.51326V11.8526C4.51326 11.3558 4.91065 10.9584 5.40739 10.9584H5.67232C5.80479 10.9584 5.93725 10.9916 6.05316 11.0412C6.13595 10.5942 6.53334 10.2464 7.01352 10.2464H7.31157C7.85798 10.2464 8.28849 10.677 8.28849 11.2234V11.9188H9.58002C10.1595 11.1902 10.4741 10.2796 10.4741 9.31919C10.4576 7.15009 8.70244 5.29559 6.53334 5.17969C6.45055 5.17969 6.38432 5.17969 6.30153 5.17969C5.22526 5.17969 4.21522 5.57708 3.43699 6.32219C2.59253 7.10042 2.12891 8.17669 2.12891 9.33575C2.12891 10.3789 2.50974 11.3724 3.20518 12.1341C3.40387 12.3493 3.68536 12.4652 3.96685 12.4652Z" fill="#4BAC96"/>
<path d="M7.03007 10.7754C6.7817 10.7754 6.58301 10.9741 6.58301 11.2225V14.2526C6.58301 14.5009 6.7817 14.6996 7.03007 14.6996H7.32812C7.57649 14.6996 7.77518 14.5009 7.77518 14.2526V11.2225C7.77518 10.9741 7.57649 10.7754 7.32812 10.7754H7.03007Z" fill="#4BAC96"/>
<path d="M5.42385 11.4883C5.22515 11.4883 5.05957 11.6539 5.05957 11.8526V13.6243C5.05957 13.823 5.22515 13.9885 5.42385 13.9885H5.68878C5.88747 13.9885 6.05305 13.823 6.05305 13.6243V11.8526C6.05305 11.6539 5.88747 11.4883 5.68878 11.4883H5.42385Z" fill="#4BAC96"/>
<path d="M13.4043 14.6831C13.6527 14.6831 13.8514 14.4844 13.8514 14.236V11.2225C13.8514 10.9741 13.6527 10.7754 13.4043 10.7754H13.1062C12.8579 10.7754 12.6592 10.9741 12.6592 11.2225V14.2526C12.6592 14.5009 12.8579 14.6996 13.1062 14.6996H13.4043V14.6831Z" fill="#4BAC96"/>
<path d="M15.011 11.4883H14.7461C14.5474 11.4883 14.3818 11.6539 14.3818 11.8526V13.6243C14.3818 13.823 14.5474 13.9885 14.7461 13.9885H15.011C15.2097 13.9885 15.3753 13.823 15.3753 13.6243V11.8526C15.3753 11.6539 15.2097 11.4883 15.011 11.4883Z" fill="#4BAC96"/>
<path d="M12.1296 12.4473H8.32129V13.0268H12.1296V12.4473Z" fill="#4BAC96"/>
</svg>
