<svg width="33" height="33" viewBox="0 0 33 33" fill="none" xmlns="http://www.w3.org/2000/svg">
<path d="M7.30957 12.5967C11.3799 10.3223 15.5166 10.3223 19.5869 12.5967H19.5859C20.3889 13.0438 20.9712 13.8186 21.208 14.7344L21.251 14.9189V14.9209C21.2941 15.151 21.3184 15.3788 21.3184 15.6074C21.3183 16.0606 21.2264 16.5024 21.0566 16.9131H21.9443V16.9248C23.2373 17.0023 24.2637 18.0744 24.2637 19.3867C24.2636 20.162 23.8933 20.8974 23.2764 21.3613C22.7342 21.769 22.4083 22.4152 22.4082 23.0957V29.124C22.4082 29.4618 22.1327 29.7372 21.7949 29.7373H5.10156C4.76375 29.7372 4.4883 29.4618 4.48828 29.124V23.0957C4.4882 22.4152 4.16224 21.769 3.62012 21.3613C3.00319 20.8974 2.63292 20.162 2.63281 19.3867C2.63281 18.0241 3.73897 16.918 5.10156 16.918H5.84473C5.58768 16.2947 5.51104 15.6062 5.64551 14.9248V14.9238C5.84394 13.9227 6.44934 13.0779 7.30957 12.5967ZM20.4033 18.1406C19.7212 18.1408 19.1621 18.6997 19.1621 19.3818V28.5059H21.1807V23.0918C21.1807 22.0294 21.69 21.0109 22.5391 20.375L22.54 20.374C22.8494 20.1428 23.0361 19.7704 23.0361 19.3818C23.0361 18.6996 22.4771 18.1407 21.7949 18.1406H20.4033ZM17.2188 22.1953C14.7156 21.122 12.18 21.1209 9.67676 22.1943L9.67773 22.1953C9.24411 22.3836 8.96094 22.8234 8.96094 23.3232V28.5059H17.9355V23.3232C17.9355 22.8181 17.652 22.3788 17.2197 22.1953H17.2188ZM5.10156 18.1406C4.41936 18.1407 3.86035 18.6996 3.86035 19.3818C3.86038 19.7704 4.04705 20.1428 4.35645 20.374V20.375C5.20583 21.0108 5.71582 22.0291 5.71582 23.0918V28.5059H7.7334V19.3818C7.7334 18.6997 7.17524 18.1408 6.49316 18.1406H5.10156ZM18.9854 13.665C15.3077 11.6088 11.5888 11.6089 7.91113 13.665L7.91016 13.666C7.43509 13.93 7.07859 14.3803 6.90918 14.9248L6.84863 15.1641C6.70761 15.8521 6.90768 16.5624 7.37598 17.0869C8.30169 17.4467 8.96094 18.3334 8.96094 19.3818V21.1885C9.0351 21.1454 9.1123 21.1062 9.19141 21.0713H9.19238C12.0169 19.8587 14.8841 19.8587 17.7041 21.0713H17.7051C17.7842 21.1062 17.8614 21.1454 17.9355 21.1885V19.3818C17.9355 18.3389 18.5891 17.4521 19.5098 17.0918C19.8851 16.6769 20.0918 16.157 20.0918 15.6074C20.0918 15.4584 20.0779 15.3064 20.0479 15.1602V15.1592C19.9169 14.5135 19.5247 13.9671 18.9854 13.665Z" fill="url(#paint0_linear_285_2787)" stroke="url(#paint1_linear_285_2787)" stroke-width="0.3"/>
<path d="M28.2871 3.92969C28.5753 3.92988 28.8262 4.13214 28.8877 4.41406V4.41504L30.2793 10.9062V10.9092C30.3151 11.0888 30.2741 11.2789 30.1553 11.4229C30.0393 11.5632 29.8626 11.6494 29.6777 11.6494H26.582V28.5059H27.3594C27.6972 28.5059 27.9727 28.7823 27.9727 29.1201C27.9724 29.4578 27.6971 29.7334 27.3594 29.7334H24.5771C24.2394 29.7334 23.9641 29.4578 23.9639 29.1201C23.9639 28.7822 24.2393 28.5059 24.5771 28.5059H25.3545V11.6494H24.2637V12.8906C24.2635 13.2284 23.9872 13.5039 23.6494 13.5039C23.3118 13.5037 23.0363 13.2282 23.0361 12.8906V11.6494H22.2588C22.0739 11.6494 21.8972 11.5632 21.7812 11.4229C21.6567 11.2729 21.6218 11.0869 21.6572 10.9092V10.9062L23.0488 4.41504V4.41406C23.1103 4.13213 23.3612 3.92984 23.6494 3.92969H28.2871ZM23.0195 10.4219H28.917L27.79 5.15723H24.1465L23.0195 10.4219Z" fill="url(#paint2_linear_285_2787)" stroke="url(#paint3_linear_285_2787)" stroke-width="0.3"/>
<defs>
<linearGradient id="paint0_linear_285_2787" x1="2.7832" y1="20.3144" x2="24.1132" y2="20.3144" gradientUnits="userSpaceOnUse">
<stop stop-color="#905E26"/>
<stop offset="0.258244" stop-color="#F5EC9B"/>
<stop offset="1" stop-color="#905E26"/>
</linearGradient>
<linearGradient id="paint1_linear_285_2787" x1="2.7832" y1="20.3144" x2="24.1132" y2="20.3144" gradientUnits="userSpaceOnUse">
<stop stop-color="#905E26"/>
<stop offset="0.258244" stop-color="#F5EC9B"/>
<stop offset="1" stop-color="#905E26"/>
</linearGradient>
<linearGradient id="paint2_linear_285_2787" x1="21.7939" y1="16.8317" x2="30.1419" y2="16.8317" gradientUnits="userSpaceOnUse">
<stop stop-color="#905E26"/>
<stop offset="0.258244" stop-color="#F5EC9B"/>
<stop offset="1" stop-color="#905E26"/>
</linearGradient>
<linearGradient id="paint3_linear_285_2787" x1="21.7939" y1="16.8317" x2="30.1419" y2="16.8317" gradientUnits="userSpaceOnUse">
<stop stop-color="#905E26"/>
<stop offset="0.258244" stop-color="#F5EC9B"/>
<stop offset="1" stop-color="#905E26"/>
</linearGradient>
</defs>
</svg>
