<svg width="123" height="50" viewBox="0 0 123 50" fill="none" xmlns="http://www.w3.org/2000/svg">
<path fill-rule="evenodd" clip-rule="evenodd" d="M0 0H123V49.4617H0V0ZM0.523404 0.523404H122.477V48.9383H0.523404V0.523404ZM1.57021 1.57021H121.43V47.8915H1.57021V1.57021ZM2.09362 2.09362H120.906V47.3681H1.57021H2.09362V2.09362Z" fill="url(#paint0_linear_755_5476)"/>
<path d="M12.9474 12.9473H36.2344V36.2338H28.3387L29.2188 34.1994H34.1985V14.9831H14.9832V34.1994H23.6069L30.3657 18.5682L32.2258 20.2559L25.3167 36.2338H12.9474V12.9473ZM17.1939 18.5682L20.2108 20.7233L23.3906 28.1276L22.3362 30.5394L17.1939 18.5682Z" fill="url(#paint1_linear_755_5476)"/>
<path d="M41.6104 16.5935H42.8523L44.8837 21.5509L46.9151 16.5935H48.157L44.9468 24.0664H44.8205L41.6104 16.5935ZM50.5357 23.9612V16.5935H51.6725V23.9612H50.5357ZM54.2617 23.2034C54.7037 23.6139 55.6931 24.0664 56.6719 24.0664C58.1876 24.0664 59.1138 23.3191 59.1138 22.0982C59.1138 21.0878 58.6086 20.4879 57.1245 19.6143C55.9668 18.9301 55.6931 18.7302 55.6931 18.3302C55.6931 17.9092 56.072 17.5829 56.7877 17.5829C57.1877 17.5829 57.7771 17.7618 58.1034 17.9829L58.7138 17.0566C58.2297 16.7304 57.3982 16.4883 56.7982 16.4883C55.3984 16.4883 54.4827 17.2882 54.4827 18.3407C54.4827 19.2669 54.9248 19.73 56.293 20.4879C57.3982 21.0983 57.9034 21.6141 57.9034 22.0772C57.9034 22.6455 57.4508 22.9297 56.6719 22.9297C55.9352 22.9297 55.2405 22.5824 54.9142 22.2877L54.2617 23.2034ZM66.3657 17.6882H64.2922V23.9612H63.1555V17.6882H61.0715L61.1452 16.5935H66.292L66.3657 17.6882ZM73.3965 23.9612L72.8176 22.614H69.8074L69.2285 23.9612H68.0076L71.2494 16.4883H71.3757L74.6174 23.9612H73.3965ZM70.26 21.5614H72.365L71.3125 19.1196L70.26 21.5614ZM81.1641 16.5935H82.4061L84.4375 21.5509L86.4688 16.5935H87.7108L84.5006 24.0664H84.3743L81.1641 16.5935ZM90.0895 23.9612V16.5935H91.2262V23.9612H90.0895ZM98.6781 22.8666L98.7518 23.9612H94.2365V16.5935H98.5413L98.6255 17.6882H95.3732V19.2564H97.5203V20.351H95.3732V22.8666H98.6781ZM100.709 16.5935H101.909L103.351 21.1299L105.246 16.4883H105.372L107.277 21.1299L108.719 16.5935H109.919L107.456 24.0664H107.33L105.309 19.2459L103.288 24.0664H103.172L100.709 16.5935Z" fill="url(#paint2_linear_755_5476)"/>
<path d="M44.583 32.9555H43.478L42.5417 31.4154V32.9555H41.6104V29.362H42.9866C43.8471 29.362 44.1894 29.8558 44.1894 30.4719C44.1894 30.9779 43.8912 31.2737 43.4609 31.3666L44.583 32.9555ZM43.3019 30.4815C43.3019 30.2615 43.1772 30.1222 42.8325 30.1222H42.5416V30.8433H42.8325C43.1772 30.8433 43.3019 30.7015 43.3019 30.4815ZM47.9119 30.1711H46.6602V30.7578H47.775V31.5596H46.6602V32.139H47.9119V32.9555H45.7288V29.362H47.9119V30.1711ZM51.8277 32.9555L51.5955 32.2905H50.1581L49.9283 32.9555H48.9822L50.3047 29.362H51.4513L52.7738 32.9555H51.8277ZM50.4245 31.5229H51.329L50.8768 30.2224L50.4245 31.5229ZM54.8756 32.139H55.9268V32.9555H53.9442V29.362H54.8756V32.139ZM59.3658 29.362V30.1712H58.5542V32.9556H57.6326V30.1712H56.8186V29.362H59.3658ZM63.4822 29.362L62.299 31.237V32.9556H61.3676V31.2517L60.177 29.362H61.1989L61.8296 30.423L62.4652 29.362H63.4822ZM67.9156 33.0043C67.1284 33.0043 66.4879 32.6254 66.3877 31.9043L67.3533 31.6843C67.3802 32.0754 67.6247 32.2587 67.9547 32.2587C68.1942 32.2587 68.3409 32.1439 68.3409 31.9385C68.3409 31.6696 67.9962 31.5694 67.5953 31.4325C67.0893 31.2638 66.5222 31.0535 66.5222 30.3911C66.5222 29.7212 67.0649 29.3105 67.8398 29.3105C68.4705 29.3105 69.1574 29.5599 69.3066 30.303L68.4118 30.5231C68.3605 30.1979 68.1894 30.0561 67.9009 30.0561C67.6442 30.0561 67.4634 30.1564 67.4634 30.3666C67.4634 30.5671 67.7861 30.6477 68.1552 30.7675C68.671 30.9386 69.3066 31.1733 69.3066 31.8847C69.3066 32.6743 68.6416 33.0043 67.9156 33.0043ZM72.8116 30.1711H71.5599V30.7578H72.6747V31.5596H71.5599V32.139H72.8116V32.9555H70.6285V29.362H72.8116V30.1711ZM77.2311 32.9555H76.1261L75.1898 31.4154V32.9555H74.2584V29.362H75.6347C76.4952 29.362 76.8375 29.8558 76.8375 30.4719C76.8375 30.9779 76.5392 31.2737 76.109 31.3666L77.2311 32.9555ZM75.95 30.4815C75.95 30.2615 75.8253 30.1222 75.4806 30.1222H75.1897V30.8433H75.4806C75.8253 30.8433 75.95 30.7015 75.95 30.4815ZM80.7091 29.362H81.7016L80.3693 32.9555H79.323L78.0005 29.362H78.993L79.8511 31.8873L80.7091 29.362ZM82.8721 32.9555V29.362H83.8035V32.9555H82.8721ZM86.9761 33.0043C85.8907 33.0043 85.1109 32.2734 85.1109 31.1587C85.1109 30.0415 85.8907 29.3106 86.9761 29.3106C87.8342 29.3106 88.504 29.7604 88.7435 30.4913L87.8733 30.7969C87.7535 30.396 87.4088 30.1564 86.9761 30.1564C86.4358 30.1564 86.0349 30.5427 86.0349 31.1587C86.0349 31.7747 86.4358 32.1585 86.9761 32.1585C87.4088 32.1585 87.7535 31.9189 87.8733 31.518L88.7435 31.8236C88.504 32.5545 87.8342 33.0043 86.9761 33.0043ZM92.1728 30.1711H90.9211V30.7578H92.0359V31.5596H90.9211V32.139H92.1728V32.9555H89.9897V29.362H92.1728V30.1711ZM94.8663 33.0043C94.0791 33.0043 93.4386 32.6254 93.3384 31.9043L94.304 31.6843C94.3309 32.0754 94.5754 32.2587 94.9054 32.2587C95.145 32.2587 95.2916 32.1439 95.2916 31.9385C95.2916 31.6696 94.9469 31.5694 94.546 31.4325C94.04 31.2638 93.4729 31.0535 93.4729 30.3911C93.4729 29.7212 94.0156 29.3105 94.7905 29.3105C95.4212 29.3105 96.1082 29.5599 96.2573 30.303L95.3626 30.5231C95.3112 30.1979 95.1401 30.0561 94.8516 30.0561C94.595 30.0561 94.4141 30.1564 94.4141 30.3666C94.4141 30.5671 94.7368 30.6477 95.1059 30.7675C95.6217 30.9386 96.2573 31.1733 96.2573 31.8847C96.2573 32.6743 95.5923 33.0043 94.8663 33.0043Z" fill="url(#paint3_linear_755_5476)"/>
<defs>
<linearGradient id="paint0_linear_755_5476" x1="0" y1="0" x2="123" y2="0" gradientUnits="userSpaceOnUse">
<stop stop-color="#905E26"/>
<stop offset="0.5" stop-color="#F5EC9B"/>
<stop offset="1" stop-color="#905E26"/>
</linearGradient>
<linearGradient id="paint1_linear_755_5476" x1="12.9474" y1="12.9473" x2="36.2344" y2="12.9473" gradientUnits="userSpaceOnUse">
<stop stop-color="#905E26"/>
<stop offset="0.5" stop-color="#F5EC9B"/>
<stop offset="1" stop-color="#905E26"/>
</linearGradient>
<linearGradient id="paint2_linear_755_5476" x1="41.6104" y1="16.4883" x2="109.919" y2="16.4883" gradientUnits="userSpaceOnUse">
<stop stop-color="#905E26"/>
<stop offset="0.5" stop-color="#F5EC9B"/>
<stop offset="1" stop-color="#905E26"/>
</linearGradient>
<linearGradient id="paint3_linear_755_5476" x1="41.6104" y1="29.3105" x2="96.2573" y2="29.3105" gradientUnits="userSpaceOnUse">
<stop stop-color="#905E26"/>
<stop offset="0.5" stop-color="#F5EC9B"/>
<stop offset="1" stop-color="#905E26"/>
</linearGradient>
</defs>
</svg>
