<svg width="25" height="31" viewBox="0 0 25 31" fill="none" xmlns="http://www.w3.org/2000/svg">
<g clip-path="url(#clip0_824_2858)">
<path d="M0.833211 15.6264V23.5599C0.833211 23.8888 0.964908 24.2042 1.19933 24.4367C1.43375 24.6693 1.75169 24.7999 2.08321 24.7999H22.9165C23.2481 24.7999 23.566 24.6693 23.8004 24.4367C24.0348 24.2042 24.1665 23.8888 24.1665 23.5599V15.6264C24.4237 15.5388 24.6446 15.3698 24.7953 15.1453C24.9096 14.972 24.9783 14.773 24.9952 14.5666C25.0121 14.3602 24.9766 14.1529 24.892 13.9636L23.9636 11.8969C23.8657 11.678 23.706 11.4919 23.5037 11.3612C23.3015 11.2304 23.0654 11.1605 22.824 11.1599H14.2415L13.802 10.7528L14.3657 8.69563C15.3247 8.27163 16.1079 7.53387 16.5843 6.60573C17.0606 5.67758 17.2014 4.61532 16.9829 3.59659C16.7644 2.57787 16.1999 1.66444 15.3839 1.00906C14.5679 0.353682 13.5498 -0.00390625 12.4999 -0.00390625C11.4499 -0.00390625 10.4318 0.353682 9.61584 1.00906C8.79983 1.66444 8.23538 2.57787 8.01689 3.59659C7.79839 4.61532 7.93911 5.67758 8.41549 6.60573C8.89188 7.53387 9.67505 8.27163 10.634 8.69563L11.1978 10.7528L10.7582 11.1599H2.17571C1.93438 11.1606 1.69839 11.2305 1.49625 11.3613C1.29411 11.492 1.13444 11.6781 1.03654 11.8969L0.106961 13.9636C0.0228043 14.1527 -0.0123592 14.3597 0.00466903 14.5657C0.0216972 14.7717 0.0903769 14.9702 0.204461 15.1432C0.354785 15.3685 0.575771 15.5383 0.833211 15.6264ZM1.66654 23.5599V15.7066H6.04363C6.02729 15.7683 6.01806 15.8317 6.01613 15.8955C6.01382 16.0065 6.03423 16.1168 6.07613 16.2197C6.11802 16.3227 6.18053 16.4161 6.25988 16.4944L6.80404 17.0342C6.88371 17.1133 6.97867 17.1756 7.08321 17.2173V23.9733H2.08321C1.9727 23.9733 1.86672 23.9297 1.78858 23.8522C1.71044 23.7747 1.66654 23.6695 1.66654 23.5599ZM18.1507 15.91L17.609 16.4473L12.7845 11.9808C12.7073 11.9092 12.6056 11.8694 12.4999 11.8694C12.3942 11.8694 12.2925 11.9092 12.2153 11.9808L7.39279 16.4506L6.85113 15.9133L12.3724 10.7966C12.407 10.7647 12.4526 10.747 12.4999 10.747C12.5472 10.747 12.5927 10.7647 12.6274 10.7966L18.1507 15.91ZM14.1665 23.9733H12.9165V19.8399H13.7499C13.8604 19.8399 13.9664 19.8835 14.0445 19.961C14.1226 20.0385 14.1665 20.1436 14.1665 20.2533V23.9733ZM12.0832 23.9733H10.8332V20.2533C10.8332 20.1436 10.8771 20.0385 10.9552 19.961C11.0334 19.8835 11.1394 19.8399 11.2499 19.8399H12.0832V23.9733ZM14.9999 23.9733V20.2533C14.9999 19.9244 14.8682 19.609 14.6338 19.3764C14.3993 19.1439 14.0814 19.0133 13.7499 19.0133H11.2499C10.9184 19.0133 10.6004 19.1439 10.366 19.3764C10.1316 19.609 9.99988 19.9244 9.99988 20.2533V23.9733H7.91654V17.0875C7.93154 17.0756 7.94738 17.0665 7.96154 17.0532L12.4999 12.8484L17.0378 17.0532C17.052 17.0665 17.0682 17.076 17.0832 17.0879V23.9733H14.9999ZM22.9165 23.9733H17.9165V17.2165C18.0212 17.175 18.1164 17.1128 18.1961 17.0338L18.7378 16.4965C18.817 16.4182 18.8794 16.3248 18.9213 16.2219C18.9631 16.1191 18.9835 16.0089 18.9811 15.898C18.9809 15.8335 18.9732 15.7693 18.9582 15.7066H23.3332V23.5599C23.3332 23.6695 23.2893 23.7747 23.2112 23.8522C23.133 23.9297 23.0271 23.9733 22.9165 23.9733ZM22.824 11.9866C22.9045 11.9873 22.9831 12.0111 23.0502 12.0551C23.1173 12.0991 23.1702 12.1614 23.2024 12.2346L24.1303 14.3013C24.1579 14.364 24.1694 14.4327 24.1636 14.5009C24.1579 14.5692 24.1351 14.635 24.0974 14.6924C24.0597 14.7498 24.0082 14.7969 23.9475 14.8297C23.8869 14.8624 23.8189 14.8797 23.7499 14.8799H18.2595L15.1345 11.9866H22.824ZM8.74988 4.54659C8.74988 3.81084 8.96981 3.09162 9.38187 2.47987C9.79392 1.86812 10.3796 1.39132 11.0648 1.10976C11.75 0.8282 12.504 0.754531 13.2315 0.898068C13.9589 1.04161 14.6271 1.3959 15.1515 1.91615C15.676 2.4364 16.0331 3.09924 16.1778 3.82085C16.3225 4.54246 16.2483 5.29043 15.9644 5.97017C15.6806 6.64991 15.2 7.2309 14.5833 7.63966C13.9666 8.04842 13.2416 8.26659 12.4999 8.26659C11.5057 8.2655 10.5525 7.87322 9.84945 7.17582C9.14642 6.47842 8.75098 5.53286 8.74988 4.54659ZM12.4999 9.09326C12.8078 9.09319 13.1149 9.06245 13.4165 9.0015L13.1082 10.1266C12.9321 9.99598 12.7181 9.9254 12.4982 9.9254C12.2783 9.9254 12.0643 9.99598 11.8882 10.1266L11.5799 9.0015C11.8827 9.06267 12.1909 9.09341 12.4999 9.09326ZM0.868628 14.3013L1.79779 12.2346C1.82995 12.1615 1.88274 12.0992 1.9498 12.0552C2.01686 12.0112 2.09531 11.9873 2.17571 11.9866H9.86529L6.74029 14.8799H1.24988C1.18068 14.88 1.11256 14.8629 1.05167 14.8303C0.990779 14.7976 0.93904 14.7505 0.901123 14.6931C0.863206 14.6356 0.840304 14.5697 0.834485 14.5013C0.828666 14.4329 0.840114 14.3642 0.867795 14.3013H0.868628Z" fill="url(#paint0_linear_824_2858)"/>
<path d="M13.3335 15.293H11.6668C11.4458 15.293 11.2339 15.3801 11.0776 15.5351C10.9213 15.6901 10.8335 15.9004 10.8335 16.1196V17.3596C10.8335 17.5789 10.9213 17.7891 11.0776 17.9442C11.2339 18.0992 11.4458 18.1863 11.6668 18.1863H13.3335C13.5545 18.1863 13.7665 18.0992 13.9228 17.9442C14.079 17.7891 14.1668 17.5789 14.1668 17.3596V16.1196C14.1668 15.9004 14.079 15.6901 13.9228 15.5351C13.7665 15.3801 13.5545 15.293 13.3335 15.293ZM11.6668 17.3596V16.1196H13.3335V17.3596H11.6668Z" fill="url(#paint1_linear_824_2858)"/>
<path d="M4.99984 16.5332H3.74984C3.52882 16.5332 3.31686 16.6203 3.16058 16.7753C3.0043 16.9304 2.9165 17.1406 2.9165 17.3599V18.5999C2.9165 18.8191 3.0043 19.0294 3.16058 19.1844C3.31686 19.3394 3.52882 19.4265 3.74984 19.4265H4.99984C5.22085 19.4265 5.43281 19.3394 5.58909 19.1844C5.74537 19.0294 5.83317 18.8191 5.83317 18.5999V17.3599C5.83317 17.1406 5.74537 16.9304 5.58909 16.7753C5.43281 16.6203 5.22085 16.5332 4.99984 16.5332ZM3.74984 18.5999V17.3599H4.99984V18.5999H3.74984Z" fill="url(#paint2_linear_824_2858)"/>
<path d="M4.99984 20.2539H3.74984C3.52882 20.2539 3.31686 20.341 3.16058 20.496C3.0043 20.6511 2.9165 20.8613 2.9165 21.0806V22.3206C2.9165 22.5398 3.0043 22.7501 3.16058 22.9051C3.31686 23.0601 3.52882 23.1472 3.74984 23.1472H4.99984C5.22085 23.1472 5.43281 23.0601 5.58909 22.9051C5.74537 22.7501 5.83317 22.5398 5.83317 22.3206V21.0806C5.83317 20.8613 5.74537 20.6511 5.58909 20.496C5.43281 20.341 5.22085 20.2539 4.99984 20.2539ZM3.74984 22.3206V21.0806H4.99984V22.3206H3.74984Z" fill="url(#paint3_linear_824_2858)"/>
<path d="M21.2498 16.5332H19.9998C19.7788 16.5332 19.5669 16.6203 19.4106 16.7753C19.2543 16.9304 19.1665 17.1406 19.1665 17.3599V18.5999C19.1665 18.8191 19.2543 19.0294 19.4106 19.1844C19.5669 19.3394 19.7788 19.4265 19.9998 19.4265H21.2498C21.4709 19.4265 21.6828 19.3394 21.8391 19.1844C21.9954 19.0294 22.0832 18.8191 22.0832 18.5999V17.3599C22.0832 17.1406 21.9954 16.9304 21.8391 16.7753C21.6828 16.6203 21.4709 16.5332 21.2498 16.5332ZM19.9998 18.5999V17.3599H21.2498V18.5999H19.9998Z" fill="url(#paint4_linear_824_2858)"/>
<path d="M21.2498 20.2539H19.9998C19.7788 20.2539 19.5669 20.341 19.4106 20.496C19.2543 20.6511 19.1665 20.8613 19.1665 21.0806V22.3206C19.1665 22.5398 19.2543 22.7501 19.4106 22.9051C19.5669 23.0601 19.7788 23.1472 19.9998 23.1472H21.2498C21.4709 23.1472 21.6828 23.0601 21.8391 22.9051C21.9954 22.7501 22.0832 22.5398 22.0832 22.3206V21.0806C22.0832 20.8613 21.9954 20.6511 21.8391 20.496C21.6828 20.341 21.4709 20.2539 21.2498 20.2539ZM19.9998 22.3206V21.0806H21.2498V22.3206H19.9998Z" fill="url(#paint5_linear_824_2858)"/>
<path d="M10.0227 4.13281H10.0002C9.94602 4.13296 9.89242 4.14384 9.84254 4.1648C9.79266 4.18576 9.7475 4.21638 9.7097 4.25487C9.67191 4.29337 9.64224 4.33896 9.62243 4.38898C9.60262 4.43899 9.59308 4.49242 9.59435 4.54615C9.59686 4.65699 9.64316 4.76243 9.72328 4.83974C9.8034 4.91705 9.91092 4.96005 10.0227 4.95948C10.1332 4.95948 10.2392 4.91593 10.3173 4.83842C10.3955 4.7609 10.4394 4.65577 10.4394 4.54615C10.4394 4.43652 10.3955 4.33139 10.3173 4.25388C10.2392 4.17636 10.1332 4.13281 10.0227 4.13281Z" fill="url(#paint6_linear_824_2858)"/>
<path d="M11.4833 3.99868L11.4633 4.00571C11.4125 4.02441 11.3659 4.05296 11.3264 4.0897C11.2868 4.12644 11.255 4.17064 11.2329 4.2197C11.2107 4.26876 11.1987 4.32171 11.1974 4.37545C11.1961 4.42919 11.2056 4.48265 11.2254 4.53271C11.2668 4.6353 11.3468 4.7179 11.4485 4.76302C11.5503 4.80815 11.6657 4.81226 11.7704 4.77451C11.8716 4.73496 11.9533 4.65768 11.9979 4.55919C12.0425 4.4607 12.0464 4.34882 12.0089 4.24746C11.9714 4.14611 11.8954 4.06334 11.7972 4.01685C11.699 3.97036 11.5863 3.96384 11.4833 3.99868Z" fill="url(#paint7_linear_824_2858)"/>
<path d="M12.5984 5.81195L12.6176 5.82063C12.6712 5.84572 12.7296 5.85884 12.7889 5.85907C12.8681 5.85859 12.9456 5.83556 13.0121 5.7927C13.0786 5.74984 13.1312 5.68895 13.1639 5.61727C13.2091 5.51626 13.2126 5.4017 13.1736 5.29816C13.1347 5.19462 13.0564 5.11034 12.9555 5.0634C12.8558 5.01912 12.7425 5.01548 12.6401 5.05327C12.5377 5.09105 12.4543 5.16723 12.408 5.2654C12.3616 5.36356 12.356 5.47586 12.3924 5.57809C12.4287 5.68032 12.504 5.7643 12.6022 5.81195H12.5984Z" fill="url(#paint8_linear_824_2858)"/>
<path d="M10.4533 5.99391L10.4379 6.0092C10.3814 6.06711 10.3434 6.14025 10.3287 6.21947C10.3139 6.29869 10.323 6.38047 10.3548 6.45459C10.3867 6.5287 10.4398 6.59186 10.5077 6.63615C10.5755 6.68044 10.655 6.7039 10.7362 6.7036C10.8508 6.70407 10.961 6.65948 11.0425 6.5796C11.0813 6.54123 11.112 6.49565 11.133 6.44548C11.1541 6.39531 11.1649 6.34152 11.165 6.28719C11.165 6.23287 11.1543 6.17906 11.1334 6.12884C11.1125 6.07863 11.0818 6.03299 11.0431 5.99453C11.0044 5.95607 10.9585 5.92555 10.9079 5.90471C10.8573 5.88386 10.8031 5.8731 10.7484 5.87305C10.6936 5.87299 10.6393 5.88363 10.5887 5.90437C10.5381 5.92511 10.4921 5.95553 10.4533 5.99391Z" fill="url(#paint9_linear_824_2858)"/>
<path d="M12.9168 7.00513C12.9168 6.89551 12.8729 6.79037 12.7948 6.71286C12.7167 6.63534 12.6107 6.5918 12.5002 6.5918C12.3897 6.5918 12.2837 6.63534 12.2055 6.71286C12.1274 6.79037 12.0835 6.89551 12.0835 7.00513V7.02745C12.0836 7.08119 12.0946 7.13435 12.1157 7.18383C12.1369 7.23331 12.1677 7.27811 12.2065 7.31561C12.2453 7.3531 12.2913 7.38253 12.3417 7.40218C12.3921 7.42183 12.446 7.4313 12.5002 7.43004C12.6119 7.42755 12.7182 7.38162 12.7961 7.30214C12.8741 7.22267 12.9174 7.116 12.9168 7.00513Z" fill="url(#paint10_linear_824_2858)"/>
</g>
<defs>
<linearGradient id="paint0_linear_824_2858" x1="0.000488281" y1="12.398" x2="24.9993" y2="12.398" gradientUnits="userSpaceOnUse">
<stop stop-color="#905E26"/>
<stop offset="0.258244" stop-color="#F5EC9B"/>
<stop offset="1" stop-color="#905E26"/>
</linearGradient>
<linearGradient id="paint1_linear_824_2858" x1="10.8335" y1="16.7396" x2="14.1668" y2="16.7396" gradientUnits="userSpaceOnUse">
<stop stop-color="#905E26"/>
<stop offset="0.258244" stop-color="#F5EC9B"/>
<stop offset="1" stop-color="#905E26"/>
</linearGradient>
<linearGradient id="paint2_linear_824_2858" x1="2.9165" y1="17.9799" x2="5.83317" y2="17.9799" gradientUnits="userSpaceOnUse">
<stop stop-color="#905E26"/>
<stop offset="0.258244" stop-color="#F5EC9B"/>
<stop offset="1" stop-color="#905E26"/>
</linearGradient>
<linearGradient id="paint3_linear_824_2858" x1="2.9165" y1="21.7006" x2="5.83317" y2="21.7006" gradientUnits="userSpaceOnUse">
<stop stop-color="#905E26"/>
<stop offset="0.258244" stop-color="#F5EC9B"/>
<stop offset="1" stop-color="#905E26"/>
</linearGradient>
<linearGradient id="paint4_linear_824_2858" x1="19.1665" y1="17.9799" x2="22.0832" y2="17.9799" gradientUnits="userSpaceOnUse">
<stop stop-color="#905E26"/>
<stop offset="0.258244" stop-color="#F5EC9B"/>
<stop offset="1" stop-color="#905E26"/>
</linearGradient>
<linearGradient id="paint5_linear_824_2858" x1="19.1665" y1="21.7006" x2="22.0832" y2="21.7006" gradientUnits="userSpaceOnUse">
<stop stop-color="#905E26"/>
<stop offset="0.258244" stop-color="#F5EC9B"/>
<stop offset="1" stop-color="#905E26"/>
</linearGradient>
<linearGradient id="paint6_linear_824_2858" x1="9.59424" y1="4.54615" x2="10.4394" y2="4.54615" gradientUnits="userSpaceOnUse">
<stop stop-color="#905E26"/>
<stop offset="0.258244" stop-color="#F5EC9B"/>
<stop offset="1" stop-color="#905E26"/>
</linearGradient>
<linearGradient id="paint7_linear_824_2858" x1="11.1973" y1="4.38834" x2="12.0344" y2="4.38834" gradientUnits="userSpaceOnUse">
<stop stop-color="#905E26"/>
<stop offset="0.258244" stop-color="#F5EC9B"/>
<stop offset="1" stop-color="#905E26"/>
</linearGradient>
<linearGradient id="paint8_linear_824_2858" x1="12.3687" y1="5.44321" x2="13.2005" y2="5.44321" gradientUnits="userSpaceOnUse">
<stop stop-color="#905E26"/>
<stop offset="0.258244" stop-color="#F5EC9B"/>
<stop offset="1" stop-color="#905E26"/>
</linearGradient>
<linearGradient id="paint9_linear_824_2858" x1="10.3218" y1="6.28833" x2="11.165" y2="6.28833" gradientUnits="userSpaceOnUse">
<stop stop-color="#905E26"/>
<stop offset="0.258244" stop-color="#F5EC9B"/>
<stop offset="1" stop-color="#905E26"/>
</linearGradient>
<linearGradient id="paint10_linear_824_2858" x1="12.0835" y1="7.01097" x2="12.9168" y2="7.01097" gradientUnits="userSpaceOnUse">
<stop stop-color="#905E26"/>
<stop offset="0.258244" stop-color="#F5EC9B"/>
<stop offset="1" stop-color="#905E26"/>
</linearGradient>
<clipPath id="clip0_824_2858">
<rect width="25" height="31" fill="white"/>
</clipPath>
</defs>
</svg>
