<svg width="27" height="25" viewBox="0 0 27 25" fill="none" xmlns="http://www.w3.org/2000/svg">
<path d="M21.9582 1.625H5.0415C3.33267 1.625 2.47824 1.625 1.94737 2.12307C1.4165 2.62115 1.4165 3.42278 1.4165 5.02605V5.85958C1.4165 7.11364 1.4165 7.74066 1.73019 8.26047C2.04387 8.78027 2.61695 9.10287 3.76311 9.74808L7.28301 11.7296C8.05202 12.1624 8.43652 12.3789 8.71183 12.6179C9.28516 13.1156 9.6381 13.7005 9.79804 14.4179C9.87484 14.7622 9.87484 15.1653 9.87484 15.9714V19.1971C9.87484 20.2962 9.87484 20.8456 10.1792 21.2741C10.4837 21.7024 11.0243 21.9138 12.1057 22.3366C14.3756 23.224 15.5106 23.6677 16.3178 23.1628C17.1248 22.658 17.1248 21.5044 17.1248 19.1971V15.9714C17.1248 15.1653 17.1248 14.7622 17.2017 14.4179C17.3615 13.7005 17.7145 13.1156 18.2879 12.6179C18.5631 12.3789 18.9476 12.1624 19.7167 11.7296L23.2366 9.74808C24.3827 9.10287 24.9558 8.78027 25.2695 8.26047C25.5832 7.74066 25.5832 7.11364 25.5832 5.85958V5.02605C25.5832 3.42278 25.5832 2.62115 25.0523 2.12307C24.5214 1.625 23.667 1.625 21.9582 1.625Z" stroke="white" stroke-width="2"/>
</svg>
