<svg width="20" height="20" viewBox="0 0 20 20" fill="none" xmlns="http://www.w3.org/2000/svg">
<path d="M18.125 1.25C18.5 1.25 18.75 1.5 18.75 1.875V8.75H12.5C12.125 8.75 11.875 9 11.875 9.375C11.875 9.75 12.125 10 12.5 10H18.75V11.25H11.25C10.875 11.25 10.625 11.5 10.625 11.875V18.75H7.5V12.5C7.5 12.125 7.25 11.875 6.875 11.875H4.375C4 11.875 3.75 12.125 3.75 12.5C3.75 12.875 4 13.125 4.375 13.125H6.25V18.75H1.875C1.5 18.75 1.25 18.5 1.25 18.125V10H8.75C9.125 10 9.375 9.75 9.375 9.375V1.25H18.125ZM18.75 18.125C18.75 18.5 18.5 18.75 18.125 18.75H11.875V17.5H18.75V18.125ZM18.75 16.25H11.875V15H18.75V16.25ZM18.75 13.75H11.875V12.5H18.75V13.75ZM8.125 1.25V8.75H1.25V1.875C1.25 1.5 1.5 1.25 1.875 1.25H8.125Z" fill="url(#paint0_linear_50_3003)"/>
<defs>
<linearGradient id="paint0_linear_50_3003" x1="1.25" y1="10" x2="18.75" y2="10" gradientUnits="userSpaceOnUse">
<stop stop-color="#905E26"/>
<stop offset="0.258244" stop-color="#F5EC9B"/>
<stop offset="1" stop-color="#905E26"/>
</linearGradient>
</defs>
</svg>
