<svg width="20" height="20" viewBox="0 0 20 20" fill="none" xmlns="http://www.w3.org/2000/svg">
<path fill-rule="evenodd" clip-rule="evenodd" d="M8.3685 12.0221H7.9878C7.35698 12.0221 6.8457 12.5334 6.8457 13.1642C6.8457 13.7951 7.35698 14.3063 7.9878 14.3063H9.5106C9.72074 14.3063 9.89129 14.4769 9.89129 14.687C9.89129 14.8972 9.72074 15.0677 9.5106 15.0677H7.9878C7.77765 15.0677 7.6071 14.8972 7.6071 14.687C7.6071 14.4769 7.43655 14.3063 7.2264 14.3063C7.01626 14.3063 6.8457 14.4769 6.8457 14.687C6.8457 15.3179 7.35698 15.8291 7.9878 15.8291H8.3685V16.2098C8.3685 16.42 8.53905 16.5905 8.7492 16.5905C8.95934 16.5905 9.1299 16.42 9.1299 16.2098V15.8291H9.5106C10.1414 15.8291 10.6527 15.3179 10.6527 14.687C10.6527 14.0562 10.1414 13.5449 9.5106 13.5449H7.9878C7.77765 13.5449 7.6071 13.3744 7.6071 13.1642C7.6071 12.9541 7.77765 12.7835 7.9878 12.7835H9.5106C9.72074 12.7835 9.89129 12.9541 9.89129 13.1642C9.89129 13.3744 10.0618 13.5449 10.272 13.5449C10.4821 13.5449 10.6527 13.3744 10.6527 13.1642C10.6527 12.5334 10.1414 12.0221 9.5106 12.0221H9.1299V11.6414C9.1299 11.4313 8.95934 11.2607 8.7492 11.2607C8.53905 11.2607 8.3685 11.4313 8.3685 11.6414V12.0221Z" fill="url(#paint0_linear_50_3046)"/>
<path d="M8.74902 1.21289C10.7227 1.21296 12.3252 2.81631 12.3252 4.79004C12.3251 5.17894 12.2599 5.55248 12.1445 5.90332C12.5648 6.1453 12.968 6.37767 13.2734 6.55371C13.4387 6.64896 13.5755 6.72821 13.6709 6.7832C13.7185 6.81063 13.7559 6.83203 13.7812 6.84668C13.794 6.854 13.804 6.8595 13.8105 6.86328C13.8137 6.86512 13.8157 6.86722 13.8174 6.86816L13.8193 6.86914H13.8203C14.2922 7.14144 14.6365 7.59011 14.7773 8.11621L16.748 15.4707C17.0415 16.5663 16.391 17.6917 15.2959 17.9854L13.0654 18.583C12.7158 18.8593 12.2749 19.0253 11.7949 19.0254H5.70312C4.56925 19.0253 3.64941 18.1056 3.64941 16.9717V9.3584C3.64941 8.81392 3.86635 8.29142 4.25098 7.90625V7.90527L5.62598 6.53027C5.33785 6.015 5.17293 5.42159 5.17285 4.79004C5.17285 2.81626 6.77525 1.21289 8.74902 1.21289ZM9.4502 5.61133C9.06299 5.22379 8.43506 5.22379 8.04785 5.61133L7.0332 6.62402C7.4829 7.0449 8.08508 7.30469 8.74902 7.30469C9.04188 7.30476 9.27919 7.54211 9.2793 7.83496C9.2793 8.12791 9.04195 8.36614 8.74902 8.36621C7.79237 8.36621 6.92319 7.98856 6.28125 7.37598L5.00195 8.65625C4.81586 8.84201 4.71094 9.09512 4.71094 9.3584V16.9717C4.71094 17.5196 5.15523 17.9638 5.70312 17.9639H11.7949C12.3427 17.9636 12.7861 17.5195 12.7861 16.9717V9.3584C12.7861 9.09512 12.6822 8.84201 12.4961 8.65625L9.4502 5.61133ZM13.2471 7.90527V7.90625C13.6316 8.29141 13.8477 8.81398 13.8477 9.3584V16.9717C13.8477 17.0768 13.8385 17.1802 13.8232 17.2812L15.0205 16.96C15.55 16.8181 15.8642 16.2743 15.7227 15.7451L13.752 8.39062C13.6838 8.1367 13.517 7.91975 13.2891 7.78809L12.9102 7.56934L13.2471 7.90527ZM8.74902 2.27441C7.36123 2.27441 6.23438 3.40224 6.23438 4.79004C6.23444 5.12511 6.30082 5.44418 6.41992 5.73633L7.29688 4.86035C8.01712 4.14051 9.13837 4.06639 9.94043 4.63867C9.9652 4.65231 10.0065 4.67513 10.0557 4.70312C10.132 4.74662 10.2395 4.80889 10.3701 4.88379C10.5923 5.01118 10.8819 5.17647 11.1982 5.3584C11.2406 5.17577 11.2636 4.98565 11.2637 4.79004C11.2637 3.40229 10.1368 2.27449 8.74902 2.27441Z" fill="url(#paint1_linear_50_3046)" stroke="url(#paint2_linear_50_3046)" stroke-width="0.3"/>
<defs>
<linearGradient id="paint0_linear_50_3046" x1="6.8457" y1="13.9256" x2="10.6527" y2="13.9256" gradientUnits="userSpaceOnUse">
<stop stop-color="#905E26"/>
<stop offset="0.258244" stop-color="#F5EC9B"/>
<stop offset="1" stop-color="#905E26"/>
</linearGradient>
<linearGradient id="paint1_linear_50_3046" x1="3.7998" y1="10.1194" x2="16.6681" y2="10.1194" gradientUnits="userSpaceOnUse">
<stop stop-color="#905E26"/>
<stop offset="0.258244" stop-color="#F5EC9B"/>
<stop offset="1" stop-color="#905E26"/>
</linearGradient>
<linearGradient id="paint2_linear_50_3046" x1="3.7998" y1="10.1194" x2="16.6681" y2="10.1194" gradientUnits="userSpaceOnUse">
<stop stop-color="#905E26"/>
<stop offset="0.258244" stop-color="#F5EC9B"/>
<stop offset="1" stop-color="#905E26"/>
</linearGradient>
</defs>
</svg>
