<svg width="29" height="29" viewBox="0 0 29 29" fill="none" xmlns="http://www.w3.org/2000/svg">
<path d="M22.9584 3.625H6.04175C4.33291 3.625 3.47849 3.625 2.94762 4.12307C2.41675 4.62115 2.41675 5.42278 2.41675 7.02605V7.85958C2.41675 9.11364 2.41675 9.74066 2.73043 10.2605C3.04411 10.7803 3.61719 11.1029 4.76336 11.7481L8.28325 13.7296C9.05226 14.1624 9.43677 14.3789 9.71207 14.6179C10.2854 15.1156 10.6383 15.7005 10.7983 16.4179C10.8751 16.7622 10.8751 17.1653 10.8751 17.9714V21.1971C10.8751 22.2962 10.8751 22.8456 11.1795 23.2741C11.4839 23.7024 12.0245 23.9138 13.1059 24.3366C15.3759 25.224 16.5109 25.6677 17.318 25.1628C18.1251 24.658 18.1251 23.5044 18.1251 21.1971V17.9714C18.1251 17.1653 18.1251 16.7622 18.2019 16.4179C18.3618 15.7005 18.7147 15.1156 19.2881 14.6179C19.5634 14.3789 19.9479 14.1624 20.717 13.7296L24.2368 11.7481C25.3829 11.1029 25.956 10.7803 26.2697 10.2605C26.5834 9.74066 26.5834 9.11364 26.5834 7.85958V7.02605C26.5834 5.42278 26.5834 4.62115 26.0526 4.12307C25.5217 3.625 24.6672 3.625 22.9584 3.625Z" stroke="white" stroke-width="2"/>
</svg>
