<svg width="154" height="81" viewBox="0 0 154 81" fill="none" xmlns="http://www.w3.org/2000/svg">
<g filter="url(#filter0_d_98_7078)">
<path d="M95.9073 43.9229C97.1028 48.3926 96.6775 53.1412 94.7068 57.3273C92.7361 61.5134 89.3472 64.8668 85.1406 66.7934C80.934 68.7199 76.1812 69.0953 71.7244 67.8529C67.2675 66.6105 63.3943 63.8306 60.791 60.0057C58.1876 56.1808 57.0222 51.5579 57.5013 46.956C57.9803 42.3541 60.0728 38.0703 63.4081 34.8636C66.7434 31.6569 71.1061 29.7343 75.7233 29.4365C80.3405 29.1386 84.9141 30.4848 88.6337 33.2364L86.7648 35.7627C83.6419 33.4525 79.8021 32.3223 75.9256 32.5724C72.0491 32.8224 68.3863 34.4366 65.586 37.1288C62.7858 39.8211 61.029 43.4177 60.6268 47.2813C60.2246 51.145 61.203 55.0263 63.3887 58.2376C65.5745 61.4489 68.8263 63.7828 72.5682 64.8259C76.3101 65.8689 80.3004 65.5538 83.8321 63.9363C87.3639 62.3188 90.2091 59.5034 91.8636 55.9888C93.5182 52.4743 93.8752 48.4875 92.8716 44.7349L95.9073 43.9229Z" fill="url(#paint0_linear_98_7078)"/>
</g>
<g filter="url(#filter1_d_98_7078)">
<path d="M83 44L74.75 53L71 48.9091" stroke="url(#paint1_linear_98_7078)" stroke-width="2" stroke-linecap="round" stroke-linejoin="round" shape-rendering="crispEdges"/>
</g>
<g filter="url(#filter2_d_98_7078)">
<path d="M33.1865 56.9858L20.9931 48.2497" stroke="url(#paint2_linear_98_7078)" stroke-linecap="round" stroke-linejoin="round"/>
<path d="M37.71 20.0854L25.5165 11.3493" stroke="url(#paint3_linear_98_7078)" stroke-linecap="round" stroke-linejoin="round"/>
<path d="M30.3584 34.8896L18.165 26.1535" stroke="url(#paint4_linear_98_7078)" stroke-linecap="round" stroke-linejoin="round"/>
</g>
<g filter="url(#filter3_d_98_7078)">
<path d="M128.523 57.6362L140.717 48.9001" stroke="url(#paint5_linear_98_7078)" stroke-linecap="round" stroke-linejoin="round"/>
<path d="M124 20.7363L136.193 12.0002" stroke="url(#paint6_linear_98_7078)" stroke-linecap="round" stroke-linejoin="round"/>
<path d="M131.352 35.54L143.545 26.8039" stroke="url(#paint7_linear_98_7078)" stroke-linecap="round" stroke-linejoin="round"/>
</g>
<path d="M10.6358 16.1359L10.4938 18.0454L11.9417 19.1822L10.1327 19.7107L9.46825 21.5228L8.49229 19.94L6.63283 19.9251L7.83869 18.418L7.35362 16.597L9.07608 17.2465L10.6358 16.1359Z" fill="url(#paint8_linear_98_7078)" stroke="url(#paint9_linear_98_7078)" stroke-linecap="round" stroke-linejoin="round"/>
<path d="M112.883 62.2935L112.74 64.2044L114.189 65.342L112.379 65.8708L111.714 67.6842L110.738 66.1003L108.877 66.0854L110.083 64.5773L109.598 62.7549L111.322 63.405L112.883 62.2935Z" fill="url(#paint10_linear_98_7078)" stroke="url(#paint11_linear_98_7078)" stroke-linecap="round" stroke-linejoin="round"/>
<path d="M105.883 1.29355L105.74 3.20437L107.189 4.34202L105.379 4.87082L104.714 6.68424L103.738 5.1003L101.877 5.08541L103.083 3.57727L102.598 1.75492L104.322 2.40496L105.883 1.29355Z" fill="url(#paint12_linear_98_7078)" stroke="url(#paint13_linear_98_7078)" stroke-linecap="round" stroke-linejoin="round"/>
<defs>
<filter id="filter0_d_98_7078" x="49.3955" y="25.396" width="55.1768" height="55.1763" filterUnits="userSpaceOnUse" color-interpolation-filters="sRGB">
<feFlood flood-opacity="0" result="BackgroundImageFix"/>
<feColorMatrix in="SourceAlpha" type="matrix" values="0 0 0 0 0 0 0 0 0 0 0 0 0 0 0 0 0 0 127 0" result="hardAlpha"/>
<feOffset dy="4"/>
<feGaussianBlur stdDeviation="4"/>
<feComposite in2="hardAlpha" operator="out"/>
<feColorMatrix type="matrix" values="0 0 0 0 0 0 0 0 0 0 0 0 0 0 0 0 0 0 0.1 0"/>
<feBlend mode="normal" in2="BackgroundImageFix" result="effect1_dropShadow_98_7078"/>
<feBlend mode="normal" in="SourceGraphic" in2="effect1_dropShadow_98_7078" result="shape"/>
</filter>
<filter id="filter1_d_98_7078" x="66" y="43" width="22" height="19" filterUnits="userSpaceOnUse" color-interpolation-filters="sRGB">
<feFlood flood-opacity="0" result="BackgroundImageFix"/>
<feColorMatrix in="SourceAlpha" type="matrix" values="0 0 0 0 0 0 0 0 0 0 0 0 0 0 0 0 0 0 127 0" result="hardAlpha"/>
<feOffset dy="4"/>
<feGaussianBlur stdDeviation="2"/>
<feComposite in2="hardAlpha" operator="out"/>
<feColorMatrix type="matrix" values="0 0 0 0 0 0 0 0 0 0 0 0 0 0 0 0 0 0 0.1 0"/>
<feBlend mode="normal" in2="BackgroundImageFix" result="effect1_dropShadow_98_7078"/>
<feBlend mode="normal" in="SourceGraphic" in2="effect1_dropShadow_98_7078" result="shape"/>
</filter>
<filter id="filter2_d_98_7078" x="13.7539" y="10.7739" width="28.3672" height="54.7876" filterUnits="userSpaceOnUse" color-interpolation-filters="sRGB">
<feFlood flood-opacity="0" result="BackgroundImageFix"/>
<feColorMatrix in="SourceAlpha" type="matrix" values="0 0 0 0 0 0 0 0 0 0 0 0 0 0 0 0 0 0 127 0" result="hardAlpha"/>
<feOffset dy="4"/>
<feGaussianBlur stdDeviation="2"/>
<feComposite in2="hardAlpha" operator="out"/>
<feColorMatrix type="matrix" values="0 0 0 0 0 0 0 0 0 0 0 0 0 0 0 0 0 0 0.1 0"/>
<feBlend mode="normal" in2="BackgroundImageFix" result="effect1_dropShadow_98_7078"/>
<feBlend mode="normal" in="SourceGraphic" in2="effect1_dropShadow_98_7078" result="shape"/>
</filter>
<filter id="filter3_d_98_7078" x="119.589" y="11.4248" width="28.3672" height="54.7871" filterUnits="userSpaceOnUse" color-interpolation-filters="sRGB">
<feFlood flood-opacity="0" result="BackgroundImageFix"/>
<feColorMatrix in="SourceAlpha" type="matrix" values="0 0 0 0 0 0 0 0 0 0 0 0 0 0 0 0 0 0 127 0" result="hardAlpha"/>
<feOffset dy="4"/>
<feGaussianBlur stdDeviation="2"/>
<feComposite in2="hardAlpha" operator="out"/>
<feColorMatrix type="matrix" values="0 0 0 0 0 0 0 0 0 0 0 0 0 0 0 0 0 0 0.1 0"/>
<feBlend mode="normal" in2="BackgroundImageFix" result="effect1_dropShadow_98_7078"/>
<feBlend mode="normal" in="SourceGraphic" in2="effect1_dropShadow_98_7078" result="shape"/>
</filter>
<linearGradient id="paint0_linear_98_7078" x1="58.4382" y1="39.9604" x2="101.362" y2="45.1241" gradientUnits="userSpaceOnUse">
<stop stop-color="#004236"/>
<stop offset="1" stop-color="#007E67"/>
</linearGradient>
<linearGradient id="paint1_linear_98_7078" x1="72.2263" y1="45.3966" x2="83.3252" y2="51.3255" gradientUnits="userSpaceOnUse">
<stop stop-color="#004236"/>
<stop offset="1" stop-color="#007E67"/>
</linearGradient>
<linearGradient id="paint2_linear_98_7078" x1="27.0898" y1="52.6177" x2="26.5786" y2="53.3312" gradientUnits="userSpaceOnUse">
<stop stop-color="#905E26"/>
<stop offset="0.258244" stop-color="#F5EC9B"/>
<stop offset="1" stop-color="#905E26"/>
</linearGradient>
<linearGradient id="paint3_linear_98_7078" x1="31.6133" y1="15.7174" x2="31.1021" y2="16.4309" gradientUnits="userSpaceOnUse">
<stop stop-color="#905E26"/>
<stop offset="0.258244" stop-color="#F5EC9B"/>
<stop offset="1" stop-color="#905E26"/>
</linearGradient>
<linearGradient id="paint4_linear_98_7078" x1="24.2617" y1="30.5216" x2="23.7505" y2="31.2351" gradientUnits="userSpaceOnUse">
<stop stop-color="#905E26"/>
<stop offset="0.258244" stop-color="#F5EC9B"/>
<stop offset="1" stop-color="#905E26"/>
</linearGradient>
<linearGradient id="paint5_linear_98_7078" x1="134.62" y1="53.2681" x2="135.131" y2="53.9816" gradientUnits="userSpaceOnUse">
<stop stop-color="#905E26"/>
<stop offset="0.258244" stop-color="#F5EC9B"/>
<stop offset="1" stop-color="#905E26"/>
</linearGradient>
<linearGradient id="paint6_linear_98_7078" x1="130.097" y1="16.3682" x2="130.608" y2="17.0817" gradientUnits="userSpaceOnUse">
<stop stop-color="#905E26"/>
<stop offset="0.258244" stop-color="#F5EC9B"/>
<stop offset="1" stop-color="#905E26"/>
</linearGradient>
<linearGradient id="paint7_linear_98_7078" x1="137.448" y1="31.172" x2="137.959" y2="31.8854" gradientUnits="userSpaceOnUse">
<stop stop-color="#905E26"/>
<stop offset="0.258244" stop-color="#F5EC9B"/>
<stop offset="1" stop-color="#905E26"/>
</linearGradient>
<linearGradient id="paint8_linear_98_7078" x1="7.04915" y1="17.1373" x2="11.6372" y2="19.7226" gradientUnits="userSpaceOnUse">
<stop stop-color="#905E26"/>
<stop offset="0.258244" stop-color="#F5EC9B"/>
<stop offset="1" stop-color="#905E26"/>
</linearGradient>
<linearGradient id="paint9_linear_98_7078" x1="7.04915" y1="17.1373" x2="11.6372" y2="19.7226" gradientUnits="userSpaceOnUse">
<stop stop-color="#905E26"/>
<stop offset="0.258244" stop-color="#F5EC9B"/>
<stop offset="1" stop-color="#905E26"/>
</linearGradient>
<linearGradient id="paint10_linear_98_7078" x1="109.293" y1="63.2956" x2="113.885" y2="65.8827" gradientUnits="userSpaceOnUse">
<stop stop-color="#905E26"/>
<stop offset="0.258244" stop-color="#F5EC9B"/>
<stop offset="1" stop-color="#905E26"/>
</linearGradient>
<linearGradient id="paint11_linear_98_7078" x1="109.293" y1="63.2956" x2="113.885" y2="65.8827" gradientUnits="userSpaceOnUse">
<stop stop-color="#905E26"/>
<stop offset="0.258244" stop-color="#F5EC9B"/>
<stop offset="1" stop-color="#905E26"/>
</linearGradient>
<linearGradient id="paint12_linear_98_7078" x1="102.293" y1="2.29564" x2="106.885" y2="4.88274" gradientUnits="userSpaceOnUse">
<stop stop-color="#905E26"/>
<stop offset="0.258244" stop-color="#F5EC9B"/>
<stop offset="1" stop-color="#905E26"/>
</linearGradient>
<linearGradient id="paint13_linear_98_7078" x1="102.293" y1="2.29564" x2="106.885" y2="4.88274" gradientUnits="userSpaceOnUse">
<stop stop-color="#905E26"/>
<stop offset="0.258244" stop-color="#F5EC9B"/>
<stop offset="1" stop-color="#905E26"/>
</linearGradient>
</defs>
</svg>
